{
DisplayStrings = (
"/reh-ar",
"/reh-ar.fina"
);
date = "2015-05-12 14:01:48 +0000";
familyName = "Rukiye";
fontMaster = (
{
alignmentZones = (
"{450, 15}",
"{0, -15}"
);
ascender = 700;
capHeight = 670;
descender = -250;
id = "FABFC9D4-E17A-4CB6-8F8E-4923CD579275";
userData = {
GSCornerRadius = 15;
};
xHeight = 450;
}
);
glyphs = (
{
glyphname = A;
lastChange = "2015-10-21 20:47:02 +0000";
layers = (
{
background = {
paths = (
{
closed = 1;
nodes = (
"-446 674 LINE",
"-329 674 OFFCURVE",
"-281 642 OFFCURVE",
"-253 550 CURVE SMOOTH",
"-93 35 LINE",
"7 35 LINE",
"7 0 LINE",
"-258 0 LINE",
"-375 395 LINE SMOOTH",
"-398 476 OFFCURVE",
"-418 502 OFFCURVE",
"-520 502 CURVE"
);
},
{
closed = 1;
nodes = (
"-427 521 LINE",
"-404 517 LINE",
"-523 19 LINE",
"-657 19 LINE"
);
},
{
closed = 1;
nodes = (
"-519 228 LINE",
"-312 228 LINE",
"-297 191 LINE",
"-543 191 LINE"
);
},
{
closed = 1;
nodes = (
"-465 33 LINE",
"-465 0 LINE",
"-722 0 LINE",
"-722 33 LINE"
);
},
{
closed = 1;
nodes = (
"25 40 LINE",
"25 0 LINE",
"247 0 LINE",
"247 40 LINE",
"198 41 LINE",
"317 595 LINE",
"296 587 LINE",
"453 41 LINE",
"404 40 LINE",
"404 0 LINE",
"702 0 LINE",
"702 40 LINE",
"653 41 LINE",
"433 672 LINE",
"307 665 LINE",
"72 41 LINE"
);
},
{
closed = 1;
nodes = (
"443 191 LINE",
"428 228 LINE",
"221 228 LINE",
"197 191 LINE"
);
}
);
};
layerId = "FABFC9D4-E17A-4CB6-8F8E-4923CD579275";
name = Regular;
paths = (
{
closed = 1;
nodes = (
"20 40 LINE",
"20 0 LINE",
"242 0 LINE",
"242 40 LINE",
"191 41 LINE",
"310 591 LINE",
"293 577 LINE",
"443 41 LINE",
"394 40 LINE",
"394 0 LINE",
"693 0 LINE",
"693 40 LINE",
"644 41 LINE",
"428 672 LINE",
"294 655 LINE",
"69 41 LINE"
);
},
{
closed = 1;
nodes = (
"443 191 LINE",
"428 228 LINE",
"221 228 LINE",
"197 191 LINE"
);
}
);
width = 702;
}
);
unicode = 0041;
},
{
glyphname = B;
lastChange = "2015-10-21 20:50:40 +0000";
layers = (
{
background = {
paths = (
{
closed = 1;
nodes = (
"255 41 LINE",
"364 40 LINE",
"364 0 LINE",
"20 0 LINE",
"20 40 LINE",
"69 41 LINE",
"69 629 LINE",
"20 630 LINE",
"20 670 LINE",
"256 670 LINE",
"452 670 LINE SMOOTH",
"513 670 OFFCURVE",
"600 615 OFFCURVE",
"600 489 CURVE SMOOTH",
"600 348 OFFCURVE",
"489 258 OFFCURVE",
"232 258 CURVE",
"232 296 LINE",
"363 296 OFFCURVE",
"412 356 OFFCURVE",
"412 458 CURVE SMOOTH",
"412 584 OFFCURVE",
"321 628 OFFCURVE",
"255 628 CURVE"
);
}
);
};
layerId = "FABFC9D4-E17A-4CB6-8F8E-4923CD579275";
name = Regular;
paths = (
{
closed = 1;
nodes = (
"237 347 LINE",
"384 347 LINE SMOOTH",
"566 348 OFFCURVE",
"622 316 OFFCURVE",
"622 211 CURVE SMOOTH",
"622 75 OFFCURVE",
"532 0 OFFCURVE",
"255 0 CURVE SMOOTH",
"20 0 LINE",
"20 40 LINE",
"69 41 LINE",
"69 629 LINE",
"20 630 LINE",
"20 670 LINE",
"256 670 LINE",
"437 670 LINE",
"524 659 OFFCURVE",
"562 617 OFFCURVE",
"562 529 CURVE SMOOTH",
"562 400 OFFCURVE",
"435 318 OFFCURVE",
"236 318 CURVE",
"232 347 LINE",
"328 347 OFFCURVE",
"374 393 OFFCURVE",
"374 488 CURVE SMOOTH",
"374 581 OFFCURVE",
"334 628 OFFCURVE",
"255 628 CURVE",
"255 39 LINE",
"386 39 OFFCURVE",
"434 81 OFFCURVE",
"434 170 CURVE SMOOTH",
"434 263 OFFCURVE",
"383 310 OFFCURVE",
"285 310 CURVE SMOOTH",
"234 310 LINE"
);
}
);
width = 642;
}
);
unicode = 0042;
},
{
glyphname = H;
lastChange = "2015-10-21 20:41:07 +0000";
layers = (
{
background = {
paths = (
{
closed = 1;
nodes = (
"-31 40 LINE",
"-31 0 LINE",
"191 0 LINE",
"191 40 LINE",
"142 41 LINE",
"261 595 LINE",
"240 587 LINE",
"397 41 LINE",
"348 40 LINE",
"348 0 LINE",
"646 0 LINE",
"646 40 LINE",
"597 41 LINE",
"377 672 LINE",
"251 665 LINE",
"16 41 LINE"
);
}
);
};
components = (
{
disableAlignment = 1;
name = I;
},
{
disableAlignment = 1;
name = I;
transform = "{1, 0, 0, 1, 370, 0}";
}
);
layerId = "FABFC9D4-E17A-4CB6-8F8E-4923CD579275";
name = Regular;
paths = (
{
closed = 1;
nodes = (
"483 314 LINE",
"468 351 LINE",
"231 351 LINE",
"207 314 LINE"
);
}
);
width = 694;
}
);
unicode = 0048;
},
{
glyphname = I;
lastChange = "2015-10-19 18:12:38 +0000";
layers = (
{
layerId = "FABFC9D4-E17A-4CB6-8F8E-4923CD579275";
name = Regular;
paths = (
{
closed = 1;
nodes = (
"255 629 LINE",
"304 630 LINE",
"304 670 LINE",
"20 670 LINE",
"20 630 LINE",
"69 629 LINE",
"69 41 LINE",
"20 40 LINE",
"20 0 LINE",
"304 0 LINE",
"304 40 LINE",
"255 41 LINE"
);
}
);
width = 324;
}
);
unicode = 0049;
},
{
glyphname = L;
lastChange = "2015-10-22 15:31:58 +0000";
layers = (
{
layerId = "FABFC9D4-E17A-4CB6-8F8E-4923CD579275";
name = Regular;
paths = (
{
closed = 1;
nodes = (
"255 629 LINE",
"304 630 LINE",
"304 670 LINE",
"20 670 LINE",
"20 630 LINE",
"69 629 LINE",
"69 41 LINE",
"20 40 LINE",
"20 0 LINE",
"304 0 LINE",
"304 40 LINE",
"255 41 LINE"
);
}
);
width = 600;
}
);
unicode = 004C;
},
{
glyphname = O;
lastChange = "2015-10-22 15:31:35 +0000";
layers = (
{
background = {
paths = (
{
closed = 1;
nodes = (
"-102 253 OFFCURVE",
"-125 161 OFFCURVE",
"-169 87 CURVE",
"-217 45 OFFCURVE",
"-357 -15 OFFCURVE",
"-435 -15 CURVE SMOOTH",
"-604 -15 OFFCURVE",
"-719 103 OFFCURVE",
"-719 301 CURVE SMOOTH",
"-719 412 OFFCURVE",
"-696 502 OFFCURVE",
"-652 578 CURVE",
"-604 619 OFFCURVE",
"-464 679 OFFCURVE",
"-386 679 CURVE SMOOTH",
"-217 679 OFFCURVE",
"-102 559 OFFCURVE",
"-102 364 CURVE SMOOTH"
);
},
{
closed = 1;
nodes = (
"-547 204 OFFCURVE",
"-467 95 OFFCURVE",
"-358 95 CURVE SMOOTH",
"-263 95 LINE",
"-294 68 LINE",
"-278 125 OFFCURVE",
"-274 231 OFFCURVE",
"-274 308 CURVE SMOOTH",
"-274 461 OFFCURVE",
"-354 569 OFFCURVE",
"-463 569 CURVE SMOOTH",
"-558 569 LINE",
"-527 596 LINE",
"-543 540 OFFCURVE",
"-547 434 OFFCURVE",
"-547 356 CURVE SMOOTH"
);
},
{
closed = 1;
nodes = (
"384 566 OFFCURVE",
"504 494 OFFCURVE",
"504 284 CURVE SMOOTH",
"504 239 OFFCURVE",
"494 138 OFFCURVE",
"475 75 CURVE",
"515 105 LINE",
"319 105 OFFCURVE",
"198 176 OFFCURVE",
"198 386 CURVE SMOOTH",
"198 432 OFFCURVE",
"209 532 OFFCURVE",
"228 595 CURVE",
"192 566 LINE"
);
},
{
closed = 1;
nodes = (
"265 685 OFFCURVE",
"185 640 OFFCURVE",
"126 585 CURVE",
"62 507 OFFCURVE",
"30 401 OFFCURVE",
"30 316 CURVE SMOOTH",
"30 99 OFFCURVE",
"162 -15 OFFCURVE",
"346 -15 CURVE SMOOTH",
"438 -15 OFFCURVE",
"518 30 OFFCURVE",
"577 86 CURVE",
"642 163 OFFCURVE",
"672 270 OFFCURVE",
"672 354 CURVE SMOOTH",
"672 572 OFFCURVE",
"540 685 OFFCURVE",
"356 685 CURVE SMOOTH"
);
}
);
};
layerId = "FABFC9D4-E17A-4CB6-8F8E-4923CD579275";
name = Regular;
paths = (
{
closed = 1;
nodes = (
"307 28 OFFCURVE",
"208 159 OFFCURVE",
"208 355 CURVE SMOOTH",
"208 501 OFFCURVE",
"263 639 OFFCURVE",
"334 639 CURVE SMOOTH",
"404 639 OFFCURVE",
"502 507 OFFCURVE",
"502 312 CURVE SMOOTH",
"502 166 OFFCURVE",
"447 28 OFFCURVE",
"376 28 CURVE SMOOTH"
);
},
{
closed = 1;
nodes = (
"20 180 OFFCURVE",
"73 79 OFFCURVE",
"170 17 CURVE",
"219 -6 OFFCURVE",
"292 -15 OFFCURVE",
"341 -15 CURVE SMOOTH",
"561 -15 OFFCURVE",
"690 164 OFFCURVE",
"690 361 CURVE SMOOTH",
"690 487 OFFCURVE",
"637 588 OFFCURVE",
"540 650 CURVE",
"491 673 OFFCURVE",
"417 682 OFFCURVE",
"368 682 CURVE SMOOTH",
"149 682 OFFCURVE",
"20 503 OFFCURVE",
"20 306 CURVE SMOOTH"
);
}
);
width = 702;
}
);
unicode = 004F;
},
{
glyphname = P;
lastChange = "2015-10-21 20:52:55 +0000";
layers = (
{
layerId = "FABFC9D4-E17A-4CB6-8F8E-4923CD579275";
name = Regular;
paths = (
{
closed = 1;
nodes = (
"255 41 LINE",
"364 40 LINE",
"364 0 LINE",
"20 0 LINE",
"20 40 LINE",
"69 41 LINE",
"69 629 LINE",
"20 630 LINE",
"20 670 LINE",
"256 670 LINE",
"452 670 LINE",
"541 655 OFFCURVE",
"600 587 OFFCURVE",
"600 499 CURVE SMOOTH",
"600 339 OFFCURVE",
"476 258 OFFCURVE",
"232 258 CURVE",
"232 296 LINE",
"354 296 OFFCURVE",
"412 348 OFFCURVE",
"412 458 CURVE SMOOTH",
"412 557 OFFCURVE",
"346 628 OFFCURVE",
"255 628 CURVE"
);
}
);
width = 630;
}
);
unicode = 0050;
},
{
glyphname = R;
lastChange = "2015-10-21 20:49:53 +0000";
layers = (
{
background = {
paths = (
{
closed = 1;
nodes = (
"255 41 LINE",
"364 40 LINE",
"364 0 LINE",
"20 0 LINE",
"20 40 LINE",
"69 41 LINE",
"69 629 LINE",
"20 630 LINE",
"20 670 LINE",
"256 670 LINE",
"452 670 LINE SMOOTH",
"513 670 OFFCURVE",
"600 615 OFFCURVE",
"600 499 CURVE SMOOTH",
"600 348 OFFCURVE",
"489 258 OFFCURVE",
"232 258 CURVE",
"232 296 LINE",
"363 296 OFFCURVE",
"412 356 OFFCURVE",
"412 458 CURVE SMOOTH",
"412 584 OFFCURVE",
"321 628 OFFCURVE",
"255 628 CURVE"
);
}
);
};
layerId = "FABFC9D4-E17A-4CB6-8F8E-4923CD579275";
name = Regular;
paths = (
{
closed = 1;
nodes = (
"255 41 LINE",
"364 40 LINE",
"364 0 LINE",
"20 0 LINE",
"20 40 LINE",
"69 41 LINE",
"69 629 LINE",
"20 630 LINE",
"20 670 LINE",
"256 670 LINE",
"452 670 LINE",
"545 655 OFFCURVE",
"600 595 OFFCURVE",
"600 509 CURVE SMOOTH",
"600 362 OFFCURVE",
"466 278 OFFCURVE",
"232 278 CURVE",
"232 316 LINE",
"354 316 OFFCURVE",
"412 365 OFFCURVE",
"412 468 CURVE SMOOTH",
"412 565 OFFCURVE",
"350 628 OFFCURVE",
"255 628 CURVE"
);
},
{
closed = 1;
nodes = (
"333 291 LINE",
"496 334 LINE",
"512 301 LINE SMOOTH",
"555 214 OFFCURVE",
"613 145 OFFCURVE",
"665 120 CURVE",
"708 142 LINE",
"726 106 LINE",
"533 -11 LINE",
"471 17 OFFCURVE",
"402 107 OFFCURVE",
"363 211 CURVE SMOOTH"
);
}
);
width = 716;
}
);
unicode = 0052;
},
{
glyphname = V;
lastChange = "2015-10-19 18:09:38 +0000";
layers = (
{
background = {
paths = (
{
closed = 1;
nodes = (
"671 632 LINE",
"671 672 LINE",
"449 672 LINE",
"449 632 LINE",
"498 631 LINE",
"386 77 LINE",
"407 85 LINE",
"250 631 LINE",
"299 632 LINE",
"299 672 LINE",
"1 672 LINE",
"1 632 LINE",
"50 631 LINE",
"270 0 LINE",
"396 7 LINE",
"624 631 LINE"
);
}
);
};
guideLines = (
{
position = "{287, 540}";
}
);
layerId = "FABFC9D4-E17A-4CB6-8F8E-4923CD579275";
name = Regular;
paths = (
{
closed = 1;
nodes = (
"672 630 LINE",
"672 670 LINE",
"450 670 LINE",
"450 630 LINE",
"501 629 LINE",
"387 79 LINE",
"404 93 LINE",
"244 629 LINE",
"293 630 LINE",
"293 670 LINE",
"10 670 LINE",
"10 630 LINE",
"59 629 LINE",
"279 -2 LINE",
"403 15 LINE",
"623 629 LINE"
);
}
);
width = 682;
}
);
unicode = 0056;
},
{
glyphname = W;
lastChange = "2015-10-19 21:55:28 +0000";
layers = (
{
layerId = "FABFC9D4-E17A-4CB6-8F8E-4923CD579275";
name = Regular;
paths = (
{
closed = 1;
nodes = (
"669 630 LINE",
"669 670 LINE",
"447 670 LINE",
"447 630 LINE",
"498 629 LINE",
"387 79 LINE",
"404 93 LINE",
"257 629 LINE",
"306 630 LINE",
"306 670 LINE",
"23 670 LINE",
"23 630 LINE",
"72 629 LINE",
"279 -2 LINE",
"403 15 LINE",
"620 629 LINE"
);
},
{
closed = 1;
nodes = (
"1094 630 LINE",
"1094 670 LINE",
"872 670 LINE",
"872 630 LINE",
"923 629 LINE",
"812 79 LINE",
"829 93 LINE",
"682 629 LINE",
"731 630 LINE",
"731 670 LINE",
"448 670 LINE",
"448 630 LINE",
"497 629 LINE",
"704 -2 LINE",
"828 15 LINE",
"1045 629 LINE"
);
}
);
width = 1117;
}
);
unicode = 0057;
},
{
glyphname = X;
lastChange = "2015-10-20 20:19:56 +0000";
layers = (
{
background = {
paths = (
{
closed = 1;
nodes = (
"279 629 LINE",
"328 630 LINE",
"328 670 LINE",
"10 670 LINE",
"10 630 LINE",
"59 629 LINE",
"421 41 LINE",
"372 40 LINE",
"372 0 LINE",
"690 0 LINE",
"690 40 LINE",
"641 41 LINE"
);
},
{
closed = 1;
nodes = (
"320 339 LINE",
"323 378 LINE",
"75 41 LINE",
"26 40 LINE",
"26 0 LINE",
"279 0 LINE",
"279 40 LINE",
"230 41 LINE"
);
},
{
closed = 1;
nodes = (
"654 630 LINE",
"654 670 LINE",
"406 670 LINE",
"406 630 LINE",
"455 629 LINE",
"356 360 LINE",
"353 322 LINE",
"605 629 LINE"
);
}
);
};
guideLines = (
{
angle = 270;
position = "{31, 549}";
},
{
angle = 270;
position = "{657, 525}";
}
);
layerId = "FABFC9D4-E17A-4CB6-8F8E-4923CD579275";
name = Regular;
paths = (
{
closed = 1;
nodes = (
"296 629 LINE",
"345 630 LINE",
"345 670 LINE",
"34 670 LINE",
"34 630 LINE",
"83 629 LINE",
"399 41 LINE",
"350 40 LINE",
"350 0 LINE",
"661 0 LINE",
"661 40 LINE",
"612 41 LINE"
);
},
{
closed = 1;
nodes = (
"320 379 LINE",
"323 418 LINE",
"86 41 LINE",
"27 40 LINE",
"27 0 LINE",
"280 0 LINE",
"280 40 LINE",
"216 41 LINE"
);
},
{
closed = 1;
nodes = (
"652 630 LINE",
"652 670 LINE",
"404 670 LINE",
"404 630 LINE",
"468 629 LINE",
"366 350 LINE",
"363 312 LINE",
"593 629 LINE"
);
}
);
width = 700;
}
);
unicode = 0058;
},
{
glyphname = a;
lastChange = "2015-10-19 22:29:10 +0000";
layers = (
{
background = {
paths = (
{
closed = 1;
nodes = (
"455 58 LINE",
"446 91 LINE",
"412 78 LINE",
"399 97 OFFCURVE",
"395 117 OFFCURVE",
"400 173 CURVE SMOOTH",
"413 320 LINE SMOOTH",
"425 455 OFFCURVE",
"345 513 OFFCURVE",
"243 513 CURVE SMOOTH",
"191 513 OFFCURVE",
"138 499 OFFCURVE",
"84 475 CURVE",
"32 310 LINE",
"61 298 LINE",
"81 344 LINE",
"106 355 OFFCURVE",
"139 361 OFFCURVE",
"170 361 CURVE SMOOTH",
"238 361 OFFCURVE",
"266 323 OFFCURVE",
"261 256 CURVE SMOOTH",
"251 125 LINE SMOOTH",
"246 58 OFFCURVE",
"259 13 OFFCURVE",
"298 -16 CURVE"
);
},
{
closed = 1;
nodes = (
"298 230 LINE",
"34 187 LINE",
"24 166 OFFCURVE",
"16 128 OFFCURVE",
"16 97 CURVE SMOOTH",
"16 33 OFFCURVE",
"59 -15 OFFCURVE",
"117 -15 CURVE SMOOTH",
"168 -15 OFFCURVE",
"243 22 OFFCURVE",
"299 65 CURVE",
"286 101 LINE",
"261 77 OFFCURVE",
"234 65 OFFCURVE",
"216 65 CURVE SMOOTH",
"197 65 OFFCURVE",
"174 83 OFFCURVE",
"174 127 CURVE SMOOTH",
"174 142 OFFCURVE",
"176 157 OFFCURVE",
"179 167 CURVE",
"294 195 LINE"
);
}
);
};
guideLines = (
{
position = "{53, 495}";
}
);
layerId = "FABFC9D4-E17A-4CB6-8F8E-4923CD579275";
name = Regular;
paths = (
{
closed = 1;
nodes = (
"442 52 LINE",
"430 81 LINE",
"399 69 LINE",
"387 88 OFFCURVE",
"384 101 OFFCURVE",
"388 155 CURVE SMOOTH",
"398 290 LINE SMOOTH",
"407 418 OFFCURVE",
"330 465 OFFCURVE",
"241 465 CURVE SMOOTH",
"196 465 OFFCURVE",
"147 453 OFFCURVE",
"98 432 CURVE",
"52 288 LINE",
"79 278 LINE",
"95 312 LINE",
"117 322 OFFCURVE",
"149 328 OFFCURVE",
"175 328 CURVE SMOOTH",
"238 328 OFFCURVE",
"262 290 OFFCURVE",
"259 232 CURVE SMOOTH",
"252 112 LINE SMOOTH",
"248 51 OFFCURVE",
"259 9 OFFCURVE",
"295 -17 CURVE"
);
},
{
closed = 1;
nodes = (
"293 208 LINE",
"51 169 LINE",
"42 150 OFFCURVE",
"35 114 OFFCURVE",
"35 88 CURVE SMOOTH",
"35 28 OFFCURVE",
"74 -15 OFFCURVE",
"128 -15 CURVE SMOOTH",
"174 -15 OFFCURVE",
"243 18 OFFCURVE",
"294 57 CURVE",
"282 90 LINE",
"259 68 OFFCURVE",
"234 57 OFFCURVE",
"218 57 CURVE SMOOTH",
"200 57 OFFCURVE",
"180 72 OFFCURVE",
"180 116 CURVE SMOOTH",
"180 126 OFFCURVE",
"181 141 OFFCURVE",
"184 151 CURVE",
"289 176 LINE"
);
}
);
width = 454;
}
);
unicode = 0061;
},
{
glyphname = b;
lastChange = "2015-10-20 13:06:42 +0000";
layers = (
{
background = {
paths = (
{
closed = 1;
nodes = (
"200 707 LINE",
"17 647 LINE",
"26 619 LINE",
"64 627 LINE",
"64 0 LINE",
"89 0 LINE",
"141 89 LINE",
"200 142 LINE"
);
},
{
closed = 1;
nodes = (
"463 121 OFFCURVE",
"481 193 OFFCURVE",
"481 262 CURVE SMOOTH",
"481 388 OFFCURVE",
"421 465 OFFCURVE",
"299 465 CURVE",
"177 322 LINE",
"191 296 LINE",
"245 350 LINE",
"299 350 OFFCURVE",
"341 310 OFFCURVE",
"341 202 CURVE SMOOTH",
"341 146 OFFCURVE",
"330 86 OFFCURVE",
"313 44 CURVE",
"339 58 LINE",
"295 68 OFFCURVE",
"229 111 OFFCURVE",
"180 177 CURVE",
"127 66 LINE",
"168 14 OFFCURVE",
"253 -15 OFFCURVE",
"289 -15 CURVE SMOOTH",
"332 -15 OFFCURVE",
"415 44 OFFCURVE",
"439 83 CURVE SMOOTH"
);
}
);
};
backgroundImage = {
crop = "{{0, 0}, {1080, 720}}";
imagePath = "../../Dropbox/LilMacBackup/Photo Booth Library/Pictures/Photo on 04-09-2015 at 17.29.jpg";
locked = "1";
transform = "{-2.056, -0, 0, 2.056, 1791, -622}";
};
layerId = "FABFC9D4-E17A-4CB6-8F8E-4923CD579275";
name = Regular;
paths = (
{
closed = 1;
nodes = (
"200 707 LINE",
"17 647 LINE",
"26 619 LINE",
"64 627 LINE",
"64 37 LINE",
"200 58 LINE"
);
},
{
closed = 1;
nodes = (
"469 115 OFFCURVE",
"494 192 OFFCURVE",
"494 260 CURVE SMOOTH",
"494 378 OFFCURVE",
"415 465 OFFCURVE",
"299 465 CURVE",
"177 322 LINE",
"191 296 LINE",
"245 350 LINE",
"301 350 OFFCURVE",
"354 296 OFFCURVE",
"354 200 CURVE SMOOTH",
"354 145 OFFCURVE",
"343 85 OFFCURVE",
"318 44 CURVE",
"344 58 LINE",
"285 65 OFFCURVE",
"196 100 OFFCURVE",
"146 136 CURVE",
"65 37 LINE",
"111 12 OFFCURVE",
"227 -15 OFFCURVE",
"285 -15 CURVE SMOOTH",
"331 -15 OFFCURVE",
"413 38 OFFCURVE",
"438 73 CURVE"
);
}
);
width = 516;
}
);
unicode = 0062;
},
{
glyphname = c;
lastChange = "2015-10-20 13:10:46 +0000";
layers = (
{
background = {
paths = (
{
closed = 1;
nodes = (
"-267 -15 OFFCURVE",
"-180 55 OFFCURVE",
"-135 121 CURVE",
"-157 142 LINE",
"-205 123 OFFCURVE",
"-242 116 OFFCURVE",
"-279 116 CURVE SMOOTH",
"-352 116 OFFCURVE",
"-413 170 OFFCURVE",
"-413 291 CURVE SMOOTH",
"-413 368 OFFCURVE",
"-393 435 OFFCURVE",
"-372 468 CURVE",
"-340 458 OFFCURVE",
"-298 359 OFFCURVE",
"-283 285 CURVE",
"-131 339 LINE",
"-151 441 OFFCURVE",
"-216 512 OFFCURVE",
"-327 510 CURVE SMOOTH",
"-477 507 OFFCURVE",
"-577 402 OFFCURVE",
"-577 231 CURVE SMOOTH",
"-577 78 OFFCURVE",
"-481 -15 OFFCURVE",
"-363 -15 CURVE SMOOTH"
);
},
{
closed = 1;
nodes = (
"339 -15 OFFCURVE",
"432 59 OFFCURVE",
"473 128 CURVE",
"449 148 LINE",
"407 126 OFFCURVE",
"375 116 OFFCURVE",
"335 116 CURVE SMOOTH",
"252 116 OFFCURVE",
"187 170 OFFCURVE",
"187 291 CURVE SMOOTH",
"187 368 OFFCURVE",
"207 435 OFFCURVE",
"228 468 CURVE",
"259 446 OFFCURVE",
"307 371 OFFCURVE",
"337 303 CURVE",
"463 381 LINE",
"429 451 OFFCURVE",
"354 510 OFFCURVE",
"273 510 CURVE SMOOTH",
"123 507 OFFCURVE",
"23 402 OFFCURVE",
"23 231 CURVE SMOOTH",
"23 78 OFFCURVE",
"119 -15 OFFCURVE",
"246 -15 CURVE SMOOTH"
);
}
);
};
backgroundImage = {
crop = "{{0, 0}, {3024, 4032}}";
imagePath = ../../../../var/folders/xp/9k2g5rln0g3214w24ld01r0h0000gn/T/com.apple.iChat/Messages/Transfers/IMG_0293.JPG;
locked = "1";
transform = "{0.465, 0, 0, 0.465, -726, -193}";
};
guideLines = (
{
position = "{18, 495}";
}
);
layerId = "FABFC9D4-E17A-4CB6-8F8E-4923CD579275";
name = Regular;
paths = (
{
closed = 1;
nodes = (
"239 105 OFFCURVE",
"175 154 OFFCURVE",
"175 265 CURVE SMOOTH",
"175 335 OFFCURVE",
"196 396 OFFCURVE",
"226 427 CURVE",
"254 407 OFFCURVE",
"297 338 OFFCURVE",
"324 276 CURVE",
"439 347 LINE",
"408 411 OFFCURVE",
"340 465 OFFCURVE",
"267 465 CURVE SMOOTH",
"208 465 OFFCURVE",
"157 451 OFFCURVE",
"105 425 CURVE",
"59 374 OFFCURVE",
"30 299 OFFCURVE",
"30 210 CURVE SMOOTH",
"30 71 OFFCURVE",
"120 -15 OFFCURVE",
"233 -15 CURVE SMOOTH",
"339 -15 OFFCURVE",
"420 55 OFFCURVE",
"458 124 CURVE",
"439 140 LINE",
"407 118 OFFCURVE",
"361 105 OFFCURVE",
"316 105 CURVE SMOOTH"
);
}
);
width = 472;
}
);
unicode = 0063;
},
{
glyphname = d;
lastChange = "2015-10-20 13:07:15 +0000";
layers = (
{
background = {
paths = (
{
closed = 1;
nodes = (
"1564 503 OFFCURVE",
"1513 513 OFFCURVE",
"1457 513 CURVE SMOOTH",
"1381 513 OFFCURVE",
"1312 471 OFFCURVE",
"1261 415 CURVE",
"1237 362 OFFCURVE",
"1224 306 OFFCURVE",
"1224 224 CURVE SMOOTH",
"1224 67 OFFCURVE",
"1293 -7 OFFCURVE",
"1381 -7 CURVE SMOOTH",
"1450 -7 OFFCURVE",
"1535 66 OFFCURVE",
"1596 138 CURVE",
"1584 170 LINE",
"1564 148 OFFCURVE",
"1518 105 OFFCURVE",
"1486 105 CURVE SMOOTH",
"1433 105 OFFCURVE",
"1387 144 OFFCURVE",
"1387 283 CURVE SMOOTH",
"1387 385 OFFCURVE",
"1392 432 OFFCURVE",
"1398 465 CURVE",
"1464 471 OFFCURVE",
"1525 462 OFFCURVE",
"1575 432 CURVE",
"1617 486 LINE"
);
},
{
closed = 1;
nodes = (
"1738 77 LINE",
"1726 109 LINE",
"1693 93 LINE",
"1679 111 OFFCURVE",
"1673 131 OFFCURVE",
"1673 187 CURVE SMOOTH",
"1673 775 LINE",
"1528 697 LINE",
"1528 126 LINE SMOOTH",
"1528 58 OFFCURVE",
"1546 15 OFFCURVE",
"1588 -10 CURVE"
);
},
{
closed = 1;
nodes = (
"-954 467 OFFCURVE",
"-1004 497 OFFCURVE",
"-1063 513 CURVE",
"-1230 476 LINE",
"-1255 391 OFFCURVE",
"-1266 315 OFFCURVE",
"-1266 235 CURVE SMOOTH",
"-1266 65 OFFCURVE",
"-1196 -7 OFFCURVE",
"-1127 -7 CURVE SMOOTH",
"-1056 -7 OFFCURVE",
"-969 64 OFFCURVE",
"-904 138 CURVE",
"-916 167 LINE",
"-938 142 OFFCURVE",
"-986 102 OFFCURVE",
"-1027 102 CURVE SMOOTH",
"-1070 102 OFFCURVE",
"-1103 152 OFFCURVE",
"-1103 269 CURVE SMOOTH",
"-1103 344 OFFCURVE",
"-1095 405 OFFCURVE",
"-1079 467 CURVE",
"-1023 455 OFFCURVE",
"-967 429 OFFCURVE",
"-922 396 CURVE",
"-902 421 LINE"
);
},
{
closed = 1;
nodes = (
"-827 685 OFFCURVE",
"-831 751 OFFCURVE",
"-840 800 CURVE",
"-1050 694 LINE",
"-1040 662 LINE",
"-985 679 LINE",
"-977 651 OFFCURVE",
"-972 595 OFFCURVE",
"-972 529 CURVE SMOOTH",
"-972 126 LINE SMOOTH",
"-972 58 OFFCURVE",
"-954 15 OFFCURVE",
"-912 -10 CURVE",
"-762 77 LINE",
"-774 109 LINE",
"-807 93 LINE",
"-821 111 OFFCURVE",
"-827 131 OFFCURVE",
"-827 187 CURVE SMOOTH",
"-827 595 LINE SMOOTH"
);
},
{
closed = 1;
nodes = (
"-2179 516 OFFCURVE",
"-2312 514 OFFCURVE",
"-2430 504 CURVE",
"-2455 409 OFFCURVE",
"-2466 324 OFFCURVE",
"-2466 235 CURVE SMOOTH",
"-2466 65 OFFCURVE",
"-2396 -7 OFFCURVE",
"-2327 -7 CURVE SMOOTH",
"-2256 -7 OFFCURVE",
"-2169 64 OFFCURVE",
"-2104 138 CURVE",
"-2116 167 LINE",
"-2138 142 OFFCURVE",
"-2186 102 OFFCURVE",
"-2227 102 CURVE SMOOTH",
"-2270 102 OFFCURVE",
"-2303 152 OFFCURVE",
"-2303 269 CURVE SMOOTH",
"-2303 344 OFFCURVE",
"-2295 405 OFFCURVE",
"-2279 467 CURVE",
"-2223 468 OFFCURVE",
"-2170 467 OFFCURVE",
"-2118 464 CURVE",
"-2110 502 LINE"
);
},
{
closed = 1;
nodes = (
"-2027 685 OFFCURVE",
"-2031 751 OFFCURVE",
"-2040 800 CURVE",
"-2250 694 LINE",
"-2240 662 LINE",
"-2185 679 LINE",
"-2177 654 OFFCURVE",
"-2172 603 OFFCURVE",
"-2172 544 CURVE SMOOTH",
"-2172 126 LINE SMOOTH",
"-2172 58 OFFCURVE",
"-2154 15 OFFCURVE",
"-2112 -10 CURVE",
"-1962 77 LINE",
"-1974 109 LINE",
"-2007 93 LINE",
"-2021 111 OFFCURVE",
"-2027 131 OFFCURVE",
"-2027 187 CURVE SMOOTH",
"-2027 595 LINE SMOOTH"
);
},
{
closed = 1;
nodes = (
"-1563 186 LINE",
"-1592 150 OFFCURVE",
"-1623 125 OFFCURVE",
"-1646 113 CURVE",
"-1676 113 OFFCURVE",
"-1703 153 OFFCURVE",
"-1703 269 CURVE SMOOTH",
"-1703 344 OFFCURVE",
"-1695 405 OFFCURVE",
"-1679 467 CURVE",
"-1639 470 OFFCURVE",
"-1566 461 OFFCURVE",
"-1513 443 CURVE",
"-1503 474 LINE",
"-1550 498 OFFCURVE",
"-1599 513 OFFCURVE",
"-1663 513 CURVE SMOOTH",
"-1719 513 OFFCURVE",
"-1792 494 OFFCURVE",
"-1830 476 CURVE",
"-1855 391 OFFCURVE",
"-1866 315 OFFCURVE",
"-1866 235 CURVE SMOOTH",
"-1866 65 OFFCURVE",
"-1796 -7 OFFCURVE",
"-1727 -7 CURVE",
"-1659 36 OFFCURVE",
"-1594 92 OFFCURVE",
"-1546 153 CURVE"
);
},
{
closed = 1;
nodes = (
"-1427 685 OFFCURVE",
"-1431 751 OFFCURVE",
"-1440 800 CURVE",
"-1650 694 LINE",
"-1640 662 LINE",
"-1585 679 LINE",
"-1577 651 OFFCURVE",
"-1572 595 OFFCURVE",
"-1572 529 CURVE SMOOTH",
"-1572 126 LINE SMOOTH",
"-1572 58 OFFCURVE",
"-1554 15 OFFCURVE",
"-1512 -10 CURVE",
"-1362 77 LINE",
"-1374 109 LINE",
"-1407 93 LINE",
"-1421 111 OFFCURVE",
"-1427 131 OFFCURVE",
"-1427 187 CURVE SMOOTH",
"-1427 595 LINE SMOOTH"
);
},
{
closed = 1;
nodes = (
"2121 126 LINE SMOOTH",
"2121 58 OFFCURVE",
"2141 15 OFFCURVE",
"2188 -10 CURVE",
"2338 77 LINE",
"2326 109 LINE",
"2293 93 LINE",
"2279 111 OFFCURVE",
"2273 131 OFFCURVE",
"2273 187 CURVE SMOOTH",
"2273 790 LINE",
"2059 709 LINE",
"2069 677 LINE",
"2121 688 LINE"
);
},
{
closed = 1;
nodes = (
"1962 511 LINE",
"1828 400 LINE",
"1813 362 OFFCURVE",
"1806 328 OFFCURVE",
"1806 270 CURVE SMOOTH",
"1806 118 OFFCURVE",
"1925 17 OFFCURVE",
"2017 -10 CURVE",
"2088 34 OFFCURVE",
"2156 97 OFFCURVE",
"2219 155 CURVE",
"2198 178 LINE",
"2162 146 OFFCURVE",
"2127 123 OFFCURVE",
"2091 108 CURVE",
"2005 170 OFFCURVE",
"1965 242 OFFCURVE",
"1965 359 CURVE SMOOTH",
"1965 369 OFFCURVE",
"1967 380 OFFCURVE",
"1968 390 CURVE",
"2182 394 LINE",
"2157 513 LINE"
);
},
{
closed = 1;
nodes = (
"2764 503 OFFCURVE",
"2703 515 OFFCURVE",
"2642 515 CURVE SMOOTH",
"2623 515 OFFCURVE",
"2603 514 OFFCURVE",
"2585 511 CURVE",
"2451 412 LINE",
"2439 353 OFFCURVE",
"2431 294 OFFCURVE",
"2431 225 CURVE SMOOTH",
"2431 65 OFFCURVE",
"2504 -7 OFFCURVE",
"2573 -7 CURVE SMOOTH",
"2624 -7 OFFCURVE",
"2731 60 OFFCURVE",
"2796 125 CURVE",
"2784 156 LINE",
"2762 134 OFFCURVE",
"2714 98 OFFCURVE",
"2673 98 CURVE SMOOTH",
"2630 98 OFFCURVE",
"2594 152 OFFCURVE",
"2594 269 CURVE SMOOTH",
"2594 342 OFFCURVE",
"2605 393 OFFCURVE",
"2620 455 CURVE",
"2580 395 LINE",
"2654 399 OFFCURVE",
"2715 394 OFFCURVE",
"2778 379 CURVE",
"2794 483 LINE"
);
},
{
closed = 1;
nodes = (
"2873 685 OFFCURVE",
"2869 751 OFFCURVE",
"2860 800 CURVE",
"2650 694 LINE",
"2660 662 LINE",
"2715 679 LINE",
"2723 654 OFFCURVE",
"2728 603 OFFCURVE",
"2728 544 CURVE SMOOTH",
"2728 126 LINE SMOOTH",
"2728 58 OFFCURVE",
"2746 15 OFFCURVE",
"2788 -10 CURVE",
"2940 79 LINE",
"2926 109 LINE",
"2893 93 LINE",
"2879 111 OFFCURVE",
"2873 131 OFFCURVE",
"2873 187 CURVE SMOOTH",
"2873 595 LINE SMOOTH"
);
},
{
closed = 1;
nodes = (
"3130 342 OFFCURVE",
"3123 269 OFFCURVE",
"3123 225 CURVE SMOOTH",
"3123 61 OFFCURVE",
"3198 -14 OFFCURVE",
"3309 -14 CURVE",
"3471 128 LINE",
"3464 159 LINE",
"3387 105 LINE",
"3320 105 OFFCURVE",
"3268 158 OFFCURVE",
"3268 293 CURVE SMOOTH",
"3268 333 OFFCURVE",
"3272 380 OFFCURVE",
"3277 418 CURVE",
"3216 382 LINE",
"3319 394 OFFCURVE",
"3389 384 OFFCURVE",
"3476 348 CURVE",
"3496 492 LINE",
"3454 507 OFFCURVE",
"3410 516 OFFCURVE",
"3366 516 CURVE SMOOTH",
"3308 516 OFFCURVE",
"3253 505 OFFCURVE",
"3216 490 CURVE",
"3141 394 LINE"
);
},
{
closed = 1;
nodes = (
"3573 790 LINE",
"3369 724 LINE",
"3379 692 LINE",
"3421 701 LINE",
"3421 125 LINE",
"3421 57 OFFCURVE",
"3439 15 OFFCURVE",
"3481 -10 CURVE",
"3640 79 LINE",
"3626 109 LINE",
"3593 93 LINE",
"3579 111 OFFCURVE",
"3573 131 OFFCURVE",
"3573 187 CURVE"
);
},
{
closed = 1;
nodes = (
"640 314 OFFCURVE",
"634 243 OFFCURVE",
"634 200 CURVE SMOOTH",
"634 53 OFFCURVE",
"707 -14 OFFCURVE",
"816 -14 CURVE",
"961 113 LINE",
"955 141 LINE",
"886 96 LINE",
"818 96 OFFCURVE",
"766 139 OFFCURVE",
"766 264 CURVE SMOOTH",
"766 296 OFFCURVE",
"769 339 OFFCURVE",
"774 373 CURVE",
"724 357 LINE",
"791 353 OFFCURVE",
"891 336 OFFCURVE",
"965 310 CURVE",
"983 440 LINE",
"941 453 OFFCURVE",
"885 461 OFFCURVE",
"858 461 CURVE SMOOTH",
"782 461 OFFCURVE",
"674 398 OFFCURVE",
"650 364 CURVE"
);
},
{
closed = 1;
nodes = (
"1052 707 LINE",
"869 647 LINE",
"878 619 LINE",
"916 627 LINE",
"916 111 LINE",
"916 50 OFFCURVE",
"932 12 OFFCURVE",
"970 -10 CURVE",
"1112 69 LINE",
"1100 96 LINE",
"1070 82 LINE",
"1058 98 OFFCURVE",
"1052 116 OFFCURVE",
"1052 166 CURVE"
);
},
{
closed = 1;
nodes = (
"-148 707 LINE",
"-331 647 LINE",
"-322 619 LINE",
"-284 627 LINE",
"-284 111 LINE",
"-284 50 OFFCURVE",
"-268 12 OFFCURVE",
"-230 -10 CURVE",
"-88 69 LINE",
"-100 96 LINE",
"-130 82 LINE",
"-142 98 OFFCURVE",
"-148 116 OFFCURVE",
"-148 166 CURVE"
);
},
{
closed = 1;
nodes = (
"-549 327 OFFCURVE",
"-565 246 OFFCURVE",
"-565 196 CURVE SMOOTH",
"-565 58 OFFCURVE",
"-505 -15 OFFCURVE",
"-383 -15 CURVE",
"-261 128 LINE",
"-275 154 LINE",
"-329 100 LINE",
"-383 100 OFFCURVE",
"-425 143 OFFCURVE",
"-425 244 CURVE SMOOTH",
"-425 308 OFFCURVE",
"-414 363 OFFCURVE",
"-397 406 CURVE",
"-423 392 LINE",
"-379 382 OFFCURVE",
"-313 339 OFFCURVE",
"-264 273 CURVE",
"-211 384 LINE",
"-252 434 OFFCURVE",
"-325 465 OFFCURVE",
"-387 465 CURVE SMOOTH",
"-413 465 OFFCURVE",
"-503 401 OFFCURVE",
"-523 367 CURVE"
);
},
{
closed = 1;
nodes = (
"47 331 OFFCURVE",
"25 263 OFFCURVE",
"25 198 CURVE SMOOTH",
"25 66 OFFCURVE",
"88 -15 OFFCURVE",
"217 -15 CURVE",
"339 128 LINE",
"325 154 LINE",
"271 100 LINE",
"211 100 OFFCURVE",
"165 143 OFFCURVE",
"165 258 CURVE SMOOTH",
"165 310 OFFCURVE",
"180 367 OFFCURVE",
"203 406 CURVE",
"177 392 LINE",
"236 385 OFFCURVE",
"321 350 OFFCURVE",
"370 314 CURVE",
"451 413 LINE",
"406 438 OFFCURVE",
"294 465 OFFCURVE",
"236 465 CURVE SMOOTH",
"190 465 OFFCURVE",
"102 406 OFFCURVE",
"77 367 CURVE SMOOTH"
);
},
{
closed = 1;
nodes = (
"452 707 LINE",
"269 647 LINE",
"278 619 LINE",
"316 627 LINE",
"316 111 LINE",
"316 50 OFFCURVE",
"332 12 OFFCURVE",
"370 -10 CURVE",
"512 69 LINE",
"500 96 LINE",
"470 82 LINE",
"458 98 OFFCURVE",
"452 116 OFFCURVE",
"452 166 CURVE"
);
}
);
};
backgroundImage = {
crop = "{{0, 0}, {1080, 720}}";
imagePath = "../../Pictures/Photo Booth Library/Pictures/Photo on 03-09-2015 at 17.42.jpg";
locked = "1";
transform = "{-3.088, -0, 0, 3.088, 2064, -804}";
};
layerId = "FABFC9D4-E17A-4CB6-8F8E-4923CD579275";
name = Regular;
paths = (
{
closed = 1;
nodes = (
"452 707 LINE",
"269 647 LINE",
"278 619 LINE",
"316 627 LINE",
"316 111 LINE",
"316 50 OFFCURVE",
"332 12 OFFCURVE",
"370 -10 CURVE",
"512 69 LINE",
"500 96 LINE",
"470 82 LINE",
"458 98 OFFCURVE",
"452 116 OFFCURVE",
"452 166 CURVE"
);
},
{
closed = 1;
nodes = (
"47 335 OFFCURVE",
"22 258 OFFCURVE",
"22 190 CURVE SMOOTH",
"22 72 OFFCURVE",
"101 -15 OFFCURVE",
"217 -15 CURVE",
"339 128 LINE",
"325 154 LINE",
"271 100 LINE",
"215 100 OFFCURVE",
"162 154 OFFCURVE",
"162 250 CURVE SMOOTH",
"162 305 OFFCURVE",
"173 365 OFFCURVE",
"198 406 CURVE",
"172 392 LINE",
"231 385 OFFCURVE",
"320 350 OFFCURVE",
"370 314 CURVE",
"451 413 LINE",
"405 438 OFFCURVE",
"289 465 OFFCURVE",
"231 465 CURVE SMOOTH",
"185 465 OFFCURVE",
"103 412 OFFCURVE",
"78 377 CURVE"
);
}
);
width = 522;
}
);
unicode = 0064;
},
{
glyphname = e;
lastChange = "2015-10-19 22:48:52 +0000";
layers = (
{
background = {
paths = (
{
closed = 1;
nodes = (
"-1049 513 OFFCURVE",
"-1153 405 OFFCURVE",
"-1153 243 CURVE SMOOTH",
"-1153 78 OFFCURVE",
"-1046 -15 OFFCURVE",
"-898 -15 CURVE SMOOTH",
"-837 -15 OFFCURVE",
"-781 1 OFFCURVE",
"-753 13 CURVE",
"-721 183 LINE",
"-753 193 LINE",
"-771 130 LINE",
"-787 125 OFFCURVE",
"-815 121 OFFCURVE",
"-838 121 CURVE SMOOTH",
"-924 121 OFFCURVE",
"-990 188 OFFCURVE",
"-990 328 CURVE SMOOTH",
"-990 423 OFFCURVE",
"-960 465 OFFCURVE",
"-937 465 CURVE SMOOTH",
"-898 465 OFFCURVE",
"-881 336 OFFCURVE",
"-881 291 CURVE",
"-1011 271 LINE",
"-1012 230 LINE",
"-710 275 LINE",
"-710 416 OFFCURVE",
"-782 513 OFFCURVE",
"-912 513 CURVE SMOOTH"
);
},
{
closed = 1;
nodes = (
"853 513 OFFCURVE",
"741 509 OFFCURVE",
"703 474 CURVE",
"664 428 OFFCURVE",
"627 356 OFFCURVE",
"627 247 CURVE SMOOTH",
"627 71 OFFCURVE",
"724 -15 OFFCURVE",
"865 -15 CURVE SMOOTH",
"996 -15 OFFCURVE",
"1063 62 OFFCURVE",
"1090 109 CURVE",
"1065 129 LINE",
"1041 98 OFFCURVE",
"998 53 OFFCURVE",
"937 53 CURVE SMOOTH",
"848 53 OFFCURVE",
"800 140 OFFCURVE",
"800 258 CURVE SMOOTH",
"800 373 OFFCURVE",
"845 452 OFFCURVE",
"863 465 CURVE",
"893 465 OFFCURVE",
"910 424 OFFCURVE",
"910 342 CURVE SMOOTH",
"910 307 OFFCURVE",
"906 269 OFFCURVE",
"903 254 CURVE",
"790 248 LINE",
"786 211 LINE",
"1060 224 LINE",
"1069 251 OFFCURVE",
"1074 293 OFFCURVE",
"1074 330 CURVE SMOOTH",
"1074 435 OFFCURVE",
"1033 513 OFFCURVE",
"886 513 CURVE SMOOTH"
);
},
{
closed = 1;
nodes = (
"1568 -15 OFFCURVE",
"1657 42 OFFCURVE",
"1699 125 CURVE",
"1672 143 LINE",
"1635 86 OFFCURVE",
"1583 53 OFFCURVE",
"1534 53 CURVE SMOOTH",
"1451 53 OFFCURVE",
"1400 134 OFFCURVE",
"1400 265 CURVE SMOOTH",
"1400 319 OFFCURVE",
"1407 368 OFFCURVE",
"1426 397 CURVE",
"1430 400 OFFCURVE",
"1438 402 OFFCURVE",
"1446 402 CURVE SMOOTH",
"1482 402 OFFCURVE",
"1507 352 OFFCURVE",
"1506 301 CURVE SMOOTH",
"1506 292 OFFCURVE",
"1505 283 OFFCURVE",
"1503 274 CURVE",
"1390 268 LINE",
"1386 231 LINE",
"1660 244 LINE",
"1669 269 OFFCURVE",
"1674 305 OFFCURVE",
"1674 337 CURVE SMOOTH",
"1674 445 OFFCURVE",
"1608 513 OFFCURVE",
"1505 513 CURVE SMOOTH",
"1426 513 OFFCURVE",
"1327 466 OFFCURVE",
"1264 408 CURVE",
"1237 355 OFFCURVE",
"1227 312 OFFCURVE",
"1227 250 CURVE SMOOTH",
"1227 83 OFFCURVE",
"1316 -15 OFFCURVE",
"1460 -15 CURVE SMOOTH"
);
},
{
closed = 1;
nodes = (
"-1324 -15 OFFCURVE",
"-1229 81 OFFCURVE",
"-1199 178 CURVE",
"-1227 193 LINE",
"-1267 134 OFFCURVE",
"-1309 116 OFFCURVE",
"-1368 116 CURVE SMOOTH",
"-1451 116 OFFCURVE",
"-1509 174 OFFCURVE",
"-1509 284 CURVE SMOOTH",
"-1509 319 OFFCURVE",
"-1504 408 OFFCURVE",
"-1496 437 CURVE",
"-1455 437 OFFCURVE",
"-1421 345 OFFCURVE",
"-1421 300 CURVE",
"-1515 283 LINE",
"-1514 246 LINE",
"-1248 279 LINE",
"-1243 427 OFFCURVE",
"-1325 512 OFFCURVE",
"-1433 510 CURVE SMOOTH",
"-1509 509 OFFCURVE",
"-1597 475 OFFCURVE",
"-1644 414 CURVE",
"-1660 372 OFFCURVE",
"-1673 310 OFFCURVE",
"-1673 234 CURVE SMOOTH",
"-1673 83 OFFCURVE",
"-1587 -15 OFFCURVE",
"-1449 -15 CURVE SMOOTH"
);
},
{
closed = 1;
nodes = (
"2146 -15 OFFCURVE",
"2256 81 OFFCURVE",
"2301 178 CURVE",
"2273 193 LINE",
"2243 149 OFFCURVE",
"2183 116 OFFCURVE",
"2142 116 CURVE SMOOTH",
"2069 116 OFFCURVE",
"2001 170 OFFCURVE",
"2001 271 CURVE SMOOTH",
"2001 353 OFFCURVE",
"2020 409 OFFCURVE",
"2044 437 CURVE",
"2077 408 OFFCURVE",
"2099 355 OFFCURVE",
"2112 302 CURVE",
"1971 279 LINE",
"1972 242 LINE",
"2272 279 LINE",
"2272 407 OFFCURVE",
"2195 512 OFFCURVE",
"2087 510 CURVE SMOOTH",
"2034 509 OFFCURVE",
"1941 477 OFFCURVE",
"1896 437 CURVE",
"1867 388 OFFCURVE",
"1837 316 OFFCURVE",
"1837 221 CURVE SMOOTH",
"1837 78 OFFCURVE",
"1933 -15 OFFCURVE",
"2051 -15 CURVE SMOOTH"
);
},
{
closed = 1;
nodes = (
"-1952 -15 OFFCURVE",
"-1866 59 OFFCURVE",
"-1823 128 CURVE",
"-1847 148 LINE",
"-1888 126 OFFCURVE",
"-1920 116 OFFCURVE",
"-1959 116 CURVE SMOOTH",
"-2047 116 OFFCURVE",
"-2109 170 OFFCURVE",
"-2109 294 CURVE SMOOTH",
"-2109 367 OFFCURVE",
"-2084 435 OFFCURVE",
"-2058 468 CURVE",
"-2026 458 OFFCURVE",
"-1983 379 OFFCURVE",
"-1983 301 CURVE",
"-2139 294 LINE",
"-2138 259 LINE",
"-1819 261 LINE",
"-1823 398 OFFCURVE",
"-1891 510 OFFCURVE",
"-2022 510 CURVE SMOOTH",
"-2161 510 OFFCURVE",
"-2273 412 OFFCURVE",
"-2273 234 CURVE SMOOTH",
"-2273 77 OFFCURVE",
"-2172 -15 OFFCURVE",
"-2052 -15 CURVE SMOOTH"
);
},
{
closed = 1;
nodes = (
"-235 -615 OFFCURVE",
"-149 -539 OFFCURVE",
"-108 -463 CURVE",
"-129 -446 LINE",
"-162 -470 OFFCURVE",
"-211 -484 OFFCURVE",
"-258 -484 CURVE SMOOTH",
"-347 -484 OFFCURVE",
"-409 -434 OFFCURVE",
"-409 -301 CURVE SMOOTH",
"-409 -235 OFFCURVE",
"-394 -155 OFFCURVE",
"-378 -132 CURVE",
"-394 -135 LINE",
"-341 -135 OFFCURVE",
"-300 -211 OFFCURVE",
"-300 -309 CURVE",
"-439 -326 LINE",
"-438 -361 LINE",
"-122 -339 LINE",
"-126 -205 OFFCURVE",
"-194 -90 OFFCURVE",
"-333 -90 CURVE SMOOTH",
"-465 -90 OFFCURVE",
"-573 -195 OFFCURVE",
"-573 -369 CURVE SMOOTH",
"-573 -531 OFFCURVE",
"-472 -615 OFFCURVE",
"-349 -615 CURVE SMOOTH"
);
},
{
closed = 1;
nodes = (
"-366 105 OFFCURVE",
"-423 154 OFFCURVE",
"-423 265 CURVE SMOOTH",
"-423 335 OFFCURVE",
"-408 396 OFFCURVE",
"-387 427 CURVE",
"-358 407 OFFCURVE",
"-314 338 OFFCURVE",
"-287 276 CURVE",
"-172 347 LINE",
"-203 411 OFFCURVE",
"-272 465 OFFCURVE",
"-346 465 CURVE SMOOTH",
"-405 465 OFFCURVE",
"-456 451 OFFCURVE",
"-496 430 CURVE",
"-544 374 OFFCURVE",
"-568 299 OFFCURVE",
"-568 210 CURVE SMOOTH",
"-568 71 OFFCURVE",
"-485 -15 OFFCURVE",
"-380 -15 CURVE SMOOTH",
"-273 -15 OFFCURVE",
"-191 55 OFFCURVE",
"-153 124 CURVE",
"-172 140 LINE",
"-204 118 OFFCURVE",
"-251 105 OFFCURVE",
"-297 105 CURVE SMOOTH"
);
},
{
closed = 1;
nodes = (
"235 105 OFFCURVE",
"170 154 OFFCURVE",
"170 265 CURVE SMOOTH",
"170 335 OFFCURVE",
"192 396 OFFCURVE",
"223 427 CURVE",
"252 407 OFFCURVE",
"296 338 OFFCURVE",
"323 276 CURVE",
"438 347 LINE",
"407 411 OFFCURVE",
"338 465 OFFCURVE",
"264 465 CURVE SMOOTH",
"205 465 OFFCURVE",
"154 451 OFFCURVE",
"102 425 CURVE",
"55 374 OFFCURVE",
"25 299 OFFCURVE",
"25 210 CURVE SMOOTH",
"25 71 OFFCURVE",
"116 -15 OFFCURVE",
"230 -15 CURVE SMOOTH",
"337 -15 OFFCURVE",
"419 55 OFFCURVE",
"457 124 CURVE",
"438 140 LINE",
"406 118 OFFCURVE",
"359 105 OFFCURVE",
"313 105 CURVE SMOOTH"
);
}
);
};
layerId = "FABFC9D4-E17A-4CB6-8F8E-4923CD579275";
name = Regular;
paths = (
{
closed = 1;
nodes = (
"25 71 OFFCURVE",
"116 -15 OFFCURVE",
"230 -15 CURVE SMOOTH",
"337 -15 OFFCURVE",
"419 55 OFFCURVE",
"457 124 CURVE",
"438 140 LINE",
"406 118 OFFCURVE",
"359 105 OFFCURVE",
"313 105 CURVE SMOOTH",
"235 105 OFFCURVE",
"170 154 OFFCURVE",
"170 265 CURVE SMOOTH",
"170 335 OFFCURVE",
"189 396 OFFCURVE",
"215 427 CURVE",
"195 424 LINE",
"243 424 OFFCURVE",
"281 354 OFFCURVE",
"286 265 CURVE",
"154 249 LINE",
"155 217 LINE",
"444 237 LINE",
"440 360 OFFCURVE",
"378 465 OFFCURVE",
"251 465 CURVE SMOOTH",
"206 465 OFFCURVE",
"140 450 OFFCURVE",
"105 430 CURVE",
"53 374 OFFCURVE",
"25 299 OFFCURVE",
"25 210 CURVE SMOOTH"
);
}
);
width = 465;
}
);
unicode = 0065;
},
{
glyphname = f;
lastChange = "2015-09-17 15:12:58 +0000";
layers = (
{
background = {
paths = (
{
closed = 1;
nodes = (
"-761 460 LINE",
"-674 460 LINE",
"-674 498 LINE",
"-769 498 LINE",
"-801 524 OFFCURVE",
"-824 579 OFFCURVE",
"-824 611 CURVE SMOOTH",
"-824 643 OFFCURVE",
"-804 659 OFFCURVE",
"-774 659 CURVE SMOOTH",
"-759 659 OFFCURVE",
"-740 653 OFFCURVE",
"-732 648 CURVE",
"-749 600 LINE",
"-717 591 LINE",
"-630 750 LINE",
"-664 776 OFFCURVE",
"-723 801 OFFCURVE",
"-794 801 CURVE SMOOTH",
"-889 801 OFFCURVE",
"-980 752 OFFCURVE",
"-980 641 CURVE SMOOTH",
"-980 575 OFFCURVE",
"-925 514 OFFCURVE",
"-863 498 CURVE",
"-984 498 LINE",
"-984 460 LINE",
"-923 460 LINE",
"-923 39 LINE",
"-988 32 LINE",
"-988 0 LINE",
"-696 0 LINE",
"-696 32 LINE",
"-761 39 LINE"
);
},
{
closed = 1;
nodes = (
"-261 460 LINE",
"-174 460 LINE",
"-174 498 LINE",
"-269 498 LINE",
"-301 524 OFFCURVE",
"-324 579 OFFCURVE",
"-324 611 CURVE SMOOTH",
"-324 636 OFFCURVE",
"-307 648 OFFCURVE",
"-277 648 CURVE SMOOTH",
"-253 648 OFFCURVE",
"-220 639 OFFCURVE",
"-212 634 CURVE",
"-226 597 LINE",
"-194 588 LINE",
"-106 750 LINE",
"-140 774 OFFCURVE",
"-213 801 OFFCURVE",
"-294 801 CURVE SMOOTH",
"-389 801 OFFCURVE",
"-480 752 OFFCURVE",
"-480 641 CURVE SMOOTH",
"-480 575 OFFCURVE",
"-449 524 OFFCURVE",
"-423 498 CURVE",
"-484 498 LINE",
"-484 460 LINE",
"-423 460 LINE",
"-423 39 LINE",
"-488 32 LINE",
"-488 0 LINE",
"-196 0 LINE",
"-196 32 LINE",
"-261 39 LINE"
);
},
{
closed = 1;
nodes = (
"88 32 LINE",
"51 29 LINE",
"51 0 LINE",
"284 0 LINE",
"284 29 LINE",
"227 32 LINE",
"227 416 LINE",
"316 416 LINE",
"316 450 LINE",
"229 450 LINE",
"203 486 OFFCURVE",
"163 596 OFFCURVE",
"163 669 CURVE",
"129 664 LINE",
"172 645 OFFCURVE",
"256 582 OFFCURVE",
"295 537 CURVE",
"378 656 LINE",
"345 678 OFFCURVE",
"276 702 OFFCURVE",
"202 702 CURVE SMOOTH",
"156 702 OFFCURVE",
"105 692 OFFCURVE",
"75 672 CURVE",
"67 647 OFFCURVE",
"60 605 OFFCURVE",
"60 560 CURVE SMOOTH",
"60 518 OFFCURVE",
"71 478 OFFCURVE",
"88 450 CURVE",
"32 450 LINE",
"32 416 LINE",
"88 416 LINE"
);
}
);
};
backgroundImage = {
crop = "{{0, 0}, {1080, 720}}";
imagePath = "../../Pictures/Photo Booth Library/Pictures/Photo on 17-09-2015 at 16.11.jpg";
transform = "{-2.670, -0, 0, 2.670, 955, -553}";
};
layerId = "FABFC9D4-E17A-4CB6-8F8E-4923CD579275";
name = Regular;
paths = (
{
closed = 1;
nodes = (
"88 32 LINE",
"51 29 LINE",
"51 0 LINE",
"284 0 LINE",
"284 29 LINE",
"227 32 LINE",
"227 416 LINE",
"316 416 LINE",
"316 450 LINE",
"229 450 LINE",
"203 486 OFFCURVE",
"163 596 OFFCURVE",
"163 669 CURVE",
"129 664 LINE",
"172 645 OFFCURVE",
"256 582 OFFCURVE",
"295 537 CURVE",
"378 656 LINE",
"349 678 OFFCURVE",
"288 702 OFFCURVE",
"225 702 CURVE SMOOTH",
"136 702 OFFCURVE",
"80 662 OFFCURVE",
"62 608 CURVE",
"61 599 OFFCURVE",
"61 590 OFFCURVE",
"61 580 CURVE SMOOTH",
"61 538 OFFCURVE",
"71 486 OFFCURVE",
"88 450 CURVE",
"32 450 LINE",
"32 416 LINE",
"88 416 LINE"
);
}
);
width = 313;
}
);
unicode = 0066;
},
{
glyphname = g;
lastChange = "2015-10-21 15:36:49 +0000";
layers = (
{
background = {
paths = (
{
closed = 1;
nodes = (
"-877 244 OFFCURVE",
"-891 198 OFFCURVE",
"-920 160 CURVE",
"-951 133 OFFCURVE",
"-1025 94 OFFCURVE",
"-1068 94 CURVE SMOOTH",
"-1163 94 OFFCURVE",
"-1228 156 OFFCURVE",
"-1228 259 CURVE SMOOTH",
"-1228 316 OFFCURVE",
"-1214 361 OFFCURVE",
"-1185 400 CURVE",
"-1154 426 OFFCURVE",
"-1080 465 OFFCURVE",
"-1037 465 CURVE SMOOTH",
"-942 465 OFFCURVE",
"-877 402 OFFCURVE",
"-877 300 CURVE SMOOTH"
);
},
{
closed = 1;
nodes = (
"-1118 219 OFFCURVE",
"-1076 165 OFFCURVE",
"-1019 165 CURVE SMOOTH",
"-980 165 LINE",
"-1000 147 LINE",
"-990 184 OFFCURVE",
"-987 227 OFFCURVE",
"-987 264 CURVE SMOOTH",
"-987 341 OFFCURVE",
"-1029 394 OFFCURVE",
"-1086 394 CURVE SMOOTH",
"-1125 394 LINE",
"-1105 412 LINE",
"-1115 375 OFFCURVE",
"-1118 333 OFFCURVE",
"-1118 295 CURVE SMOOTH"
);
},
{
closed = 1;
nodes = (
"-1115 142 LINE",
"-1147 56 LINE",
"-1140 56 OFFCURVE",
"-1127 56 OFFCURVE",
"-1121 56 CURVE SMOOTH",
"-960 56 OFFCURVE",
"-871 2 OFFCURVE",
"-871 -89 CURVE",
"-889 -138 OFFCURVE",
"-957 -222 OFFCURVE",
"-1011 -255 CURVE",
"-1036 -257 OFFCURVE",
"-1059 -260 OFFCURVE",
"-1084 -260 CURVE SMOOTH",
"-1192 -260 OFFCURVE",
"-1274 -223 OFFCURVE",
"-1288 -185 CURVE",
"-1180 -19 LINE",
"-1153 -29 LINE",
"-1198 -111 LINE",
"-1170 -141 OFFCURVE",
"-1121 -171 OFFCURVE",
"-1081 -171 CURVE SMOOTH",
"-979 -171 OFFCURVE",
"-947 -160 OFFCURVE",
"-947 -136 CURVE SMOOTH",
"-947 -112 OFFCURVE",
"-1099 -61 OFFCURVE",
"-1175 -61 CURVE SMOOTH",
"-1203 -61 OFFCURVE",
"-1232 -62 OFFCURVE",
"-1261 -61 CURVE",
"-1140 151 LINE"
);
},
{
closed = 1;
nodes = (
"-263 251 OFFCURVE",
"-282 207 OFFCURVE",
"-320 170 CURVE",
"-351 143 OFFCURVE",
"-425 104 OFFCURVE",
"-468 104 CURVE SMOOTH",
"-571 104 OFFCURVE",
"-642 164 OFFCURVE",
"-642 264 CURVE SMOOTH",
"-642 321 OFFCURVE",
"-623 362 OFFCURVE",
"-585 400 CURVE",
"-554 426 OFFCURVE",
"-480 465 OFFCURVE",
"-437 465 CURVE SMOOTH",
"-334 465 OFFCURVE",
"-263 407 OFFCURVE",
"-263 305 CURVE SMOOTH"
);
},
{
closed = 1;
nodes = (
"-516 223 OFFCURVE",
"-475 169 OFFCURVE",
"-419 169 CURVE SMOOTH",
"-380 169 LINE",
"-414 157 LINE",
"-394 192 OFFCURVE",
"-387 234 OFFCURVE",
"-387 269 CURVE SMOOTH",
"-387 350 OFFCURVE",
"-429 400 OFFCURVE",
"-486 400 CURVE SMOOTH",
"-525 400 LINE",
"-489 412 LINE",
"-509 382 OFFCURVE",
"-516 338 OFFCURVE",
"-516 300 CURVE SMOOTH"
);
},
{
closed = 1;
nodes = (
"-535 131 LINE",
"-570 89 LINE",
"-559 74 OFFCURVE",
"-533 66 OFFCURVE",
"-501 62 CURVE SMOOTH",
"-470 57 OFFCURVE",
"-433 55 OFFCURVE",
"-398 53 CURVE SMOOTH",
"-325 48 OFFCURVE",
"-268 44 OFFCURVE",
"-231 -13 CURVE",
"-268 -111 OFFCURVE",
"-357 -250 OFFCURVE",
"-504 -250 CURVE SMOOTH",
"-585 -250 OFFCURVE",
"-653 -194 OFFCURVE",
"-624 -83 CURVE",
"-580 11 LINE",
"-553 1 LINE",
"-575 -56 LINE",
"-568 -105 OFFCURVE",
"-520 -145 OFFCURVE",
"-441 -145 CURVE SMOOTH",
"-389 -145 OFFCURVE",
"-337 -120 OFFCURVE",
"-327 -103 CURVE",
"-327 -95 OFFCURVE",
"-361 -73 OFFCURVE",
"-418 -70 CURVE SMOOTH",
"-454 -68 OFFCURVE",
"-500 -65 OFFCURVE",
"-539 -62 CURVE SMOOTH",
"-608 -56 OFFCURVE",
"-643 -50 OFFCURVE",
"-675 16 CURVE",
"-555 151 LINE"
);
},
{
closed = 1;
nodes = (
"-296 547 LINE",
"-260 552 OFFCURVE",
"-211 544 OFFCURVE",
"-175 524 CURVE",
"-236 438 LINE",
"-265 452 OFFCURVE",
"-296 458 OFFCURVE",
"-322 456 CURVE",
"-373 407 LINE",
"-395 419 LINE"
);
},
{
closed = 1;
nodes = (
"437 251 OFFCURVE",
"418 207 OFFCURVE",
"380 170 CURVE",
"349 143 OFFCURVE",
"275 104 OFFCURVE",
"232 104 CURVE SMOOTH",
"129 104 OFFCURVE",
"58 164 OFFCURVE",
"58 264 CURVE SMOOTH",
"58 321 OFFCURVE",
"77 362 OFFCURVE",
"115 400 CURVE",
"146 426 OFFCURVE",
"220 465 OFFCURVE",
"263 465 CURVE SMOOTH",
"366 465 OFFCURVE",
"437 407 OFFCURVE",
"437 305 CURVE SMOOTH"
);
},
{
closed = 1;
nodes = (
"184 223 OFFCURVE",
"225 169 OFFCURVE",
"281 169 CURVE SMOOTH",
"320 169 LINE",
"286 157 LINE",
"306 192 OFFCURVE",
"313 234 OFFCURVE",
"313 269 CURVE SMOOTH",
"313 350 OFFCURVE",
"271 400 OFFCURVE",
"214 400 CURVE SMOOTH",
"175 400 LINE",
"211 412 LINE",
"191 382 OFFCURVE",
"184 338 OFFCURVE",
"184 300 CURVE SMOOTH"
);
},
{
closed = 1;
nodes = (
"165 131 LINE",
"130 89 LINE",
"141 74 OFFCURVE",
"166 65 OFFCURVE",
"199 62 CURVE SMOOTH",
"322 52 LINE SMOOTH",
"396 46 OFFCURVE",
"441 24 OFFCURVE",
"469 -13 CURVE",
"432 -111 OFFCURVE",
"343 -250 OFFCURVE",
"196 -250 CURVE SMOOTH",
"129 -250 OFFCURVE",
"71 -212 OFFCURVE",
"69 -136 CURVE SMOOTH",
"69 -120 OFFCURVE",
"71 -102 OFFCURVE",
"76 -83 CURVE",
"120 11 LINE",
"147 1 LINE",
"125 -56 LINE",
"132 -105 OFFCURVE",
"180 -145 OFFCURVE",
"259 -145 CURVE SMOOTH",
"300 -145 OFFCURVE",
"344 -134 OFFCURVE",
"363 -120 CURVE",
"370 -108 LINE",
"370 -100 OFFCURVE",
"336 -74 OFFCURVE",
"282 -70 CURVE SMOOTH",
"161 -62 LINE SMOOTH",
"82 -56 OFFCURVE",
"54 -38 OFFCURVE",
"25 16 CURVE",
"145 151 LINE"
);
},
{
closed = 1;
nodes = (
"392 566 LINE",
"427 574 OFFCURVE",
"476 570 OFFCURVE",
"514 553 CURVE",
"461 462 LINE",
"431 474 OFFCURVE",
"399 477 OFFCURVE",
"374 473 CURVE",
"327 420 LINE",
"304 430 LINE"
);
}
);
};
backgroundImage = {
crop = "{{0, 0}, {1080, 720}}";
imagePath = "../../Pictures/Photo Booth Library/Pictures/Photo on 17-09-2015 at 16.45.jpg";
locked = "1";
transform = "{-1.506, -0, 0, 1.506, 1154, -445}";
};
guideLines = (
{
angle = 270;
position = "{71, 100}";
},
{
angle = 270;
position = "{423, 126}";
}
);
layerId = "FABFC9D4-E17A-4CB6-8F8E-4923CD579275";
name = Regular;
paths = (
{
closed = 1;
nodes = (
"160 131 LINE",
"125 89 LINE",
"135 75 OFFCURVE",
"162 65 OFFCURVE",
"199 62 CURVE SMOOTH",
"322 52 LINE SMOOTH",
"398 46 OFFCURVE",
"446 20 OFFCURVE",
"474 -17 CURVE",
"438 -125 OFFCURVE",
"342 -250 OFFCURVE",
"201 -250 CURVE SMOOTH",
"118 -250 OFFCURVE",
"64 -206 OFFCURVE",
"64 -135 CURVE SMOOTH",
"64 -121 OFFCURVE",
"66 -102 OFFCURVE",
"71 -83 CURVE",
"115 11 LINE",
"142 1 LINE",
"120 -56 LINE",
"127 -105 OFFCURVE",
"177 -145 OFFCURVE",
"258 -145 CURVE SMOOTH",
"319 -145 OFFCURVE",
"369 -126 OFFCURVE",
"375 -112 CURVE",
"375 -104 OFFCURVE",
"339 -71 OFFCURVE",
"262 -67 CURVE SMOOTH",
"161 -62 LINE SMOOTH",
"86 -58 OFFCURVE",
"49 -38 OFFCURVE",
"20 16 CURVE",
"140 151 LINE"
);
},
{
closed = 1;
nodes = (
"392 566 LINE",
"427 574 OFFCURVE",
"476 570 OFFCURVE",
"514 553 CURVE",
"461 462 LINE",
"431 474 OFFCURVE",
"399 477 OFFCURVE",
"374 473 CURVE",
"327 420 LINE",
"304 430 LINE"
);
},
{
closed = 1;
nodes = (
"193 419 LINE",
"181 389 OFFCURVE",
"169 345 OFFCURVE",
"169 302 CURVE SMOOTH",
"169 206 OFFCURVE",
"233 164 OFFCURVE",
"338 164 CURVE",
"292 149 LINE",
"308 183 OFFCURVE",
"316 228 OFFCURVE",
"316 264 CURVE SMOOTH",
"316 362 OFFCURVE",
"252 404 OFFCURVE",
"150 404 CURVE"
);
},
{
closed = 1;
nodes = (
"361 465 OFFCURVE",
"437 402 OFFCURVE",
"437 297 CURVE SMOOTH",
"437 248 OFFCURVE",
"411 187 OFFCURVE",
"380 154 CURVE",
"348 125 OFFCURVE",
"288 103 OFFCURVE",
"230 103 CURVE SMOOTH",
"125 103 OFFCURVE",
"48 165 OFFCURVE",
"48 270 CURVE SMOOTH",
"48 320 OFFCURVE",
"75 381 OFFCURVE",
"105 414 CURVE",
"136 440 OFFCURVE",
"194 465 OFFCURVE",
"256 465 CURVE SMOOTH"
);
}
);
width = 490;
}
);
unicode = 0067;
},
{
glyphname = h;
lastChange = "2015-09-16 15:22:53 +0000";
layers = (
{
background = {
paths = (
{
closed = 1;
nodes = (
"-380 595 LINE SMOOTH",
"-380 685 OFFCURVE",
"-384 751 OFFCURVE",
"-393 800 CURVE",
"-603 694 LINE",
"-593 662 LINE",
"-549 677 LINE",
"-541 649 OFFCURVE",
"-536 593 OFFCURVE",
"-536 527 CURVE SMOOTH",
"-536 38 LINE",
"-590 32 LINE",
"-590 0 LINE",
"-326 0 LINE",
"-326 32 LINE",
"-380 38 LINE"
);
},
{
closed = 1;
nodes = (
"-246 38 LINE",
"-300 32 LINE",
"-300 0 LINE",
"-36 0 LINE",
"-36 32 LINE",
"-90 38 LINE",
"-90 300 LINE SMOOTH",
"-90 436 OFFCURVE",
"-135 491 OFFCURVE",
"-229 525 CURVE",
"-399 333 LINE",
"-387 301 LINE",
"-309 371 LINE",
"-275 362 OFFCURVE",
"-246 318 OFFCURVE",
"-246 249 CURVE SMOOTH"
);
},
{
closed = 1;
nodes = (
"214 286 LINE",
"214 307 LINE",
"214 790 LINE",
"0 709 LINE",
"10 677 LINE",
"62 687 LINE",
"62 38 LINE",
"8 32 LINE",
"8 0 LINE",
"268 0 LINE",
"268 32 LINE",
"214 38 LINE"
);
},
{
closed = 1;
nodes = (
"348 38 LINE",
"294 32 LINE",
"294 0 LINE",
"554 0 LINE",
"554 32 LINE",
"500 38 LINE",
"500 300 LINE SMOOTH",
"500 436 OFFCURVE",
"441 525 OFFCURVE",
"313 525 CURVE",
"189 267 LINE",
"202 250 LINE",
"277 354 LINE",
"319 354 OFFCURVE",
"348 318 OFFCURVE",
"348 236 CURVE SMOOTH"
);
}
);
};
components = (
{
name = _part.shoulder;
transform = "{1, 0, 0, 1, -47, 0}";
},
{
name = _part.tallstem;
transform = "{1, 0, 0, 1, -12, 0}";
}
);
layerId = "FABFC9D4-E17A-4CB6-8F8E-4923CD579275";
name = Regular;
width = 522;
}
);
unicode = 0068;
},
{
glyphname = i;
lastChange = "2015-09-17 17:33:10 +0000";
layers = (
{
background = {
paths = (
{
closed = 1;
nodes = (
"-365 125 LINE SMOOTH",
"-373 58 OFFCURVE",
"-357 13 OFFCURVE",
"-318 -16 CURVE",
"-161 58 LINE",
"-170 91 LINE",
"-204 78 LINE",
"-217 97 OFFCURVE",
"-223 117 OFFCURVE",
"-216 173 CURVE SMOOTH",
"-201 300 LINE SMOOTH",
"-191 387 OFFCURVE",
"-207 453 OFFCURVE",
"-238 505 CURVE",
"-423 399 LINE",
"-413 367 LINE",
"-369 382 LINE",
"-353 356 OFFCURVE",
"-345 302 OFFCURVE",
"-353 232 CURVE SMOOTH"
);
},
{
closed = 1;
nodes = (
"-365 713 OFFCURVE",
"-365 706 OFFCURVE",
"-365 695 CURVE SMOOTH",
"-365 626 OFFCURVE",
"-331 575 OFFCURVE",
"-268 575 CURVE SMOOTH",
"-237 574 OFFCURVE",
"-205 587 OFFCURVE",
"-180 605 CURVE",
"-180 613 OFFCURVE",
"-180 622 OFFCURVE",
"-180 630 CURVE SMOOTH",
"-180 701 OFFCURVE",
"-215 750 OFFCURVE",
"-279 750 CURVE SMOOTH",
"-309 750 OFFCURVE",
"-341 738 OFFCURVE",
"-365 720 CURVE"
);
},
{
closed = 1;
nodes = (
"6 459 LINE",
"9 421 LINE",
"60 428 LINE",
"60 38 LINE",
"6 32 LINE",
"6 0 LINE",
"266 0 LINE",
"266 32 LINE",
"212 38 LINE",
"212 515 LINE"
);
},
{
closed = 1;
nodes = (
"75 601 LINE",
"120 624 OFFCURVE",
"164 643 OFFCURVE",
"208 654 CURVE",
"156 785 LINE",
"111 772 OFFCURVE",
"66 754 OFFCURVE",
"23 729 CURVE"
);
}
);
};
components = (
{
name = _part.tallstem;
transform = "{1, 0, 0, 1, -12, 0}";
piece = {
XHeight = 100;
};
}
);
layerId = "FABFC9D4-E17A-4CB6-8F8E-4923CD579275";
name = Regular;
paths = (
{
closed = 1;
nodes = (
"141 676 OFFCURVE",
"100 672 OFFCURVE",
"59 665 CURVE",
"70 540 LINE",
"110 550 OFFCURVE",
"151 552 OFFCURVE",
"195 553 CURVE",
"185 673 LINE"
);
}
);
width = 264;
}
);
unicode = 0069;
},
{
glyphname = j;
lastChange = "2015-10-20 13:12:45 +0000";
layers = (
{
background = {
paths = (
{
closed = 1;
nodes = (
"67 109 OFFCURVE",
"65 295 OFFCURVE",
"61 390 CURVE",
"23 381 LINE",
"13 411 LINE",
"200 471 LINE",
"200 114 LINE SMOOTH",
"200 -99 OFFCURVE",
"135 -217 OFFCURVE",
"71 -250 CURVE",
"8 -250 OFFCURVE",
"-68 -221 OFFCURVE",
"-120 -181 CURVE",
"-45 -57 LINE",
"-6 -103 OFFCURVE",
"43 -158 OFFCURVE",
"100 -200 CURVE",
"65 -201 LINE",
"68 -129 OFFCURVE",
"69 -58 OFFCURVE",
"68 14 CURVE SMOOTH"
);
}
);
};
backgroundImage = {
crop = "{{0, 0}, {1080, 720}}";
imagePath = "../../Pictures/Photo Booth Library/Pictures/Photo on 17-09-2015 at 16.11.jpg";
locked = "1";
transform = "{-2.670, -0, 0, 2.670, 1562, -1122}";
};
layerId = "FABFC9D4-E17A-4CB6-8F8E-4923CD579275";
name = Regular;
paths = (
{
closed = 1;
nodes = (
"67 89 OFFCURVE",
"65 285 OFFCURVE",
"61 380 CURVE",
"23 371 LINE",
"13 401 LINE",
"200 461 LINE",
"200 94 LINE SMOOTH",
"200 2 OFFCURVE",
"195 -110 OFFCURVE",
"185 -166 CURVE",
"165 -201 OFFCURVE",
"104 -250 OFFCURVE",
"38 -250 CURVE SMOOTH",
"-21 -250 OFFCURVE",
"-71 -236 OFFCURVE",
"-120 -206 CURVE",
"-45 -77 LINE",
"-6 -123 OFFCURVE",
"43 -178 OFFCURVE",
"100 -220 CURVE",
"65 -221 LINE",
"68 -149 OFFCURVE",
"69 -78 OFFCURVE",
"68 -6 CURVE SMOOTH"
);
},
{
closed = 1;
nodes = (
"141 676 OFFCURVE",
"100 672 OFFCURVE",
"59 665 CURVE",
"70 540 LINE",
"110 550 OFFCURVE",
"151 552 OFFCURVE",
"195 553 CURVE",
"185 673 LINE"
);
}
);
width = 245;
}
);
unicode = 006A;
},
{
glyphname = k;
lastChange = "2015-09-17 16:52:21 +0000";
layers = (
{
background = {
paths = (
{
closed = 1;
nodes = (
"-503 790 LINE",
"-717 709 LINE",
"-707 677 LINE",
"-655 687 LINE",
"-655 38 LINE",
"-709 32 LINE",
"-709 0 LINE",
"-449 0 LINE",
"-449 32 LINE",
"-503 38 LINE"
);
},
{
closed = 1;
nodes = (
"-358 38 LINE",
"-412 32 LINE",
"-412 0 LINE",
"-133 0 LINE",
"-133 32 LINE",
"-187 38 LINE",
"-317 280 LINE",
"-439 219 LINE"
);
},
{
closed = 1;
nodes = (
"-207 426 OFFCURVE",
"-254 494 OFFCURVE",
"-356 522 CURVE",
"-522 318 LINE",
"-508 287 LINE",
"-420 366 LINE",
"-386 359 OFFCURVE",
"-361 317 OFFCURVE",
"-361 291 CURVE",
"-521 212 LINE",
"-519 173 LINE",
"-207 310 LINE"
);
},
{
closed = 1;
nodes = (
"197 790 LINE",
"-7 724 LINE",
"3 692 LINE",
"45 701 LINE",
"45 35 LINE",
"8 32 LINE",
"8 0 LINE",
"234 0 LINE",
"234 32 LINE",
"197 35 LINE"
);
},
{
closed = 1;
nodes = (
"412 256 OFFCURVE",
"478 321 OFFCURVE",
"478 352 CURVE SMOOTH",
"478 415 OFFCURVE",
"435 488 OFFCURVE",
"344 513 CURVE",
"178 309 LINE",
"192 278 LINE",
"278 359 LINE",
"314 349 OFFCURVE",
"339 301 OFFCURVE",
"339 272 CURVE",
"179 193 LINE",
"181 154 LINE",
"373 239 LINE SMOOTH"
);
},
{
closed = 1;
nodes = (
"324 53 OFFCURVE",
"357 9 OFFCURVE",
"386 -15 CURVE",
"543 75 LINE",
"531 107 LINE",
"498 91 LINE",
"479 107 OFFCURVE",
"451 140 OFFCURVE",
"405 232 CURVE SMOOTH",
"383 280 LINE",
"261 219 LINE",
"284 158 LINE SMOOTH"
);
}
);
};
layerId = "FABFC9D4-E17A-4CB6-8F8E-4923CD579275";
name = Regular;
paths = (
{
closed = 1;
nodes = (
"203 721 LINE",
"17 661 LINE",
"26 631 LINE",
"64 640 LINE",
"64 31 LINE",
"30 28 LINE",
"30 -1 LINE",
"237 -1 LINE",
"237 28 LINE",
"203 31 LINE"
);
},
{
closed = 1;
nodes = (
"474 375 OFFCURVE",
"431 441 OFFCURVE",
"337 468 CURVE",
"186 281 LINE",
"199 253 LINE",
"277 327 LINE",
"310 318 OFFCURVE",
"333 274 OFFCURVE",
"333 247 CURVE",
"187 175 LINE",
"188 140 LINE",
"474 265 LINE"
);
},
{
closed = 1;
nodes = (
"319 47 OFFCURVE",
"349 7 OFFCURVE",
"376 -15 CURVE",
"519 67 LINE",
"508 97 LINE",
"478 82 LINE",
"461 97 OFFCURVE",
"435 127 OFFCURVE",
"393 211 CURVE SMOOTH",
"373 255 LINE",
"262 199 LINE",
"283 143 LINE SMOOTH"
);
}
);
width = 546;
}
);
unicode = 006B;
},
{
glyphname = l;
lastChange = "2015-09-02 11:34:34 +0000";
layers = (
{
background = {
paths = (
{
closed = 1;
nodes = (
"225 790 LINE",
"11 709 LINE",
"21 677 LINE",
"73 687 LINE",
"73 38 LINE",
"19 32 LINE",
"19 0 LINE",
"279 0 LINE",
"279 32 LINE",
"225 38 LINE"
);
}
);
};
components = (
{
name = _part.tallstem;
transform = "{1, 0, 0, 1, -1, 0}";
}
);
layerId = "FABFC9D4-E17A-4CB6-8F8E-4923CD579275";
name = Regular;
width = 287;
}
);
unicode = 006C;
},
{
glyphname = m;
lastChange = "2015-10-20 13:37:19 +0000";
layers = (
{
background = {
components = (
{
name = _part.shortstem;
transform = "{1, 0, 0, 1, -1029, 0}";
},
{
name = _part.shoulder;
transform = "{1, 0, 0, 1, -1029, 0}";
piece = {
shoulderWidth = 20.2407;
};
},
{
name = _part.shoulder;
transform = "{1, 0, 0, 1, -756, 0}";
piece = {
shoulderWidth = 20.2407;
};
}
);
paths = (
{
closed = 1;
nodes = (
"1114 286 LINE",
"1114 307 LINE",
"1114 515 LINE",
"900 434 LINE",
"910 402 LINE",
"962 412 LINE",
"962 38 LINE",
"908 32 LINE",
"908 0 LINE",
"1168 0 LINE",
"1168 32 LINE",
"1114 38 LINE"
);
},
{
closed = 1;
nodes = (
"1236 38 LINE",
"1182 32 LINE",
"1182 0 LINE",
"1442 0 LINE",
"1442 32 LINE",
"1388 38 LINE",
"1388 300 LINE SMOOTH",
"1388 436 OFFCURVE",
"1333 525 OFFCURVE",
"1213 525 CURVE",
"1089 267 LINE",
"1102 250 LINE",
"1177 354 LINE",
"1212 354 OFFCURVE",
"1236 318 OFFCURVE",
"1236 236 CURVE SMOOTH"
);
},
{
closed = 1;
nodes = (
"1507 38 LINE",
"1453 32 LINE",
"1453 0 LINE",
"1713 0 LINE",
"1713 32 LINE",
"1659 38 LINE",
"1659 300 LINE SMOOTH",
"1659 436 OFFCURVE",
"1604 525 OFFCURVE",
"1484 525 CURVE",
"1360 267 LINE",
"1373 250 LINE",
"1448 354 LINE",
"1483 354 OFFCURVE",
"1507 318 OFFCURVE",
"1507 236 CURVE SMOOTH"
);
},
{
closed = 1;
nodes = (
"214 274 LINE",
"214 295 LINE",
"214 503 LINE",
"0 432 LINE",
"10 400 LINE",
"62 410 LINE",
"62 38 LINE",
"8 32 LINE",
"8 0 LINE",
"263 0 LINE",
"263 32 LINE",
"214 38 LINE"
);
},
{
closed = 1;
nodes = (
"336 38 LINE",
"287 32 LINE",
"287 0 LINE",
"537 0 LINE",
"537 32 LINE",
"488 38 LINE",
"488 288 LINE SMOOTH",
"488 439 OFFCURVE",
"442 513 OFFCURVE",
"313 513 CURVE",
"272 429 OFFCURVE",
"230 344 OFFCURVE",
"189 260 CURVE",
"202 238 LINE",
"271 342 LINE",
"320 342 OFFCURVE",
"336 311 OFFCURVE",
"336 224 CURVE SMOOTH"
);
},
{
closed = 1;
nodes = (
"606 38 LINE",
"557 32 LINE",
"557 0 LINE",
"812 0 LINE",
"812 32 LINE",
"758 38 LINE",
"758 288 LINE SMOOTH",
"758 439 OFFCURVE",
"712 513 OFFCURVE",
"583 513 CURVE",
"459 260 LINE",
"472 238 LINE",
"541 342 LINE",
"590 342 OFFCURVE",
"606 311 OFFCURVE",
"606 224 CURVE SMOOTH"
);
}
);
};
components = (
{
name = _part.shoulder;
transform = "{1, 0, 0, 1, -47, 0}";
piece = {
shoulderWidth = 75.1284;
};
},
{
name = _part.shoulder;
transform = "{1, 0, 0, 1, 216, 0}";
piece = {
shoulderWidth = 74.8316;
};
},
{
name = _part.shortstem;
transform = "{1, 0, 0, 1, -29, 0}";
}
);
guideLines = (
{
position = "{550, 469}";
}
);
layerId = "FABFC9D4-E17A-4CB6-8F8E-4923CD579275";
name = Regular;
width = 789;
}
);
unicode = 006D;
},
{
glyphname = n;
lastChange = "2015-09-17 15:21:33 +0000";
layers = (
{
background = {
components = (
{
name = _part.shoulder;
transform = "{1, 0, 0, 1, 1172, 0}";
},
{
name = _part.shortstem;
transform = "{1, 0, 0, 1, 1172, 0}";
},
{
name = _part.shoulder;
transform = "{1, 0, 0, 1, -1227, 0}";
}
);
paths = (
{
closed = 1;
nodes = (
"830 127 OFFCURVE",
"830 216 OFFCURVE",
"830 305 CURVE SMOOTH",
"830 395 OFFCURVE",
"809 461 OFFCURVE",
"779 510 CURVE",
"594 404 LINE",
"605 370 LINE",
"649 385 LINE",
"664 359 OFFCURVE",
"676 303 OFFCURVE",
"676 237 CURVE SMOOTH",
"676 171 OFFCURVE",
"674 104 OFFCURVE",
"671 38 CURVE",
"617 32 LINE",
"617 0 LINE",
"881 0 LINE",
"881 32 LINE",
"827 38 LINE"
);
},
{
closed = 1;
nodes = (
"967 182 OFFCURVE",
"964 110 OFFCURVE",
"961 38 CURVE",
"907 32 LINE",
"907 0 LINE",
"1171 0 LINE",
"1171 32 LINE",
"1117 38 LINE",
"1119 137 OFFCURVE",
"1121 236 OFFCURVE",
"1121 335 CURVE SMOOTH",
"1121 441 OFFCURVE",
"1072 499 OFFCURVE",
"1009 522 CURVE",
"812 370 LINE",
"818 336 LINE",
"899 381 LINE",
"933 372 OFFCURVE",
"967 323 OFFCURVE",
"967 254 CURVE SMOOTH"
);
},
{
closed = 1;
nodes = (
"-385 300 LINE SMOOTH",
"-385 390 OFFCURVE",
"-402 456 OFFCURVE",
"-431 505 CURVE",
"-616 399 LINE",
"-606 367 LINE",
"-562 382 LINE",
"-545 354 OFFCURVE",
"-537 298 OFFCURVE",
"-537 232 CURVE SMOOTH",
"-537 38 LINE",
"-591 32 LINE",
"-591 0 LINE",
"-331 0 LINE",
"-331 32 LINE",
"-385 38 LINE"
);
},
{
closed = 1;
nodes = (
"-247 38 LINE",
"-301 32 LINE",
"-301 0 LINE",
"-41 0 LINE",
"-41 32 LINE",
"-95 38 LINE",
"-95 300 LINE SMOOTH",
"-95 436 OFFCURVE",
"-139 491 OFFCURVE",
"-232 525 CURVE",
"-402 333 LINE",
"-390 301 LINE",
"-312 371 LINE",
"-277 362 OFFCURVE",
"-247 318 OFFCURVE",
"-247 249 CURVE SMOOTH"
);
},
{
closed = 1;
nodes = (
"215 274 LINE",
"215 295 LINE",
"215 503 LINE",
"1 432 LINE",
"11 400 LINE",
"63 410 LINE",
"63 38 LINE",
"9 32 LINE",
"9 0 LINE",
"269 0 LINE",
"269 32 LINE",
"215 38 LINE"
);
},
{
closed = 1;
nodes = (
"349 38 LINE",
"295 32 LINE",
"295 0 LINE",
"555 0 LINE",
"555 32 LINE",
"501 38 LINE",
"501 288 LINE SMOOTH",
"501 439 OFFCURVE",
"452 513 OFFCURVE",
"314 513 CURVE",
"190 260 LINE",
"203 238 LINE",
"272 342 LINE",
"330 342 OFFCURVE",
"349 311 OFFCURVE",
"349 224 CURVE SMOOTH"
);
},
{
closed = 1;
nodes = (
"-985 274 LINE",
"-985 295 LINE",
"-985 503 LINE",
"-1199 432 LINE",
"-1189 400 LINE",
"-1137 410 LINE",
"-1137 38 LINE",
"-1191 32 LINE",
"-1191 0 LINE",
"-931 0 LINE",
"-931 32 LINE",
"-985 38 LINE"
);
}
);
};
backgroundImage = {
crop = "{{0, 0}, {1080, 720}}";
imagePath = "../../Pictures/Photo Booth Library/Pictures/Photo on 18-08-2015 at 19.24.jpg";
locked = "1";
transform = "{-1.462, -0, 0, 1.462, 1411, -273}";
};
components = (
{
name = _part.shortstem;
transform = "{1, 0, 0, 1, -29, 0}";
},
{
name = _part.shoulder;
transform = "{1, 0, 0, 1, -47, 0}";
}
);
layerId = "FABFC9D4-E17A-4CB6-8F8E-4923CD579275";
name = Regular;
width = 522;
}
);
unicode = 006E;
},
{
glyphname = o;
lastChange = "2015-10-20 13:17:10 +0000";
layers = (
{
background = {
paths = (
{
closed = 1;
nodes = (
"-883 39 OFFCURVE",
"-899 35 OFFCURVE",
"-909 35 CURVE SMOOTH",
"-949 35 OFFCURVE",
"-1002 104 OFFCURVE",
"-1002 261 CURVE SMOOTH",
"-1002 342 OFFCURVE",
"-994 411 OFFCURVE",
"-985 454 CURVE",
"-972 461 OFFCURVE",
"-956 465 OFFCURVE",
"-946 465 CURVE SMOOTH",
"-906 465 OFFCURVE",
"-853 396 OFFCURVE",
"-853 239 CURVE SMOOTH",
"-853 158 OFFCURVE",
"-861 89 OFFCURVE",
"-870 46 CURVE"
);
},
{
closed = 1;
nodes = (
"-963 515 OFFCURVE",
"-1061 470 OFFCURVE",
"-1105 432 CURVE",
"-1145 378 OFFCURVE",
"-1166 306 OFFCURVE",
"-1166 221 CURVE SMOOTH",
"-1166 68 OFFCURVE",
"-1078 -15 OFFCURVE",
"-950 -15 CURVE SMOOTH",
"-892 -15 OFFCURVE",
"-794 30 OFFCURVE",
"-750 68 CURVE",
"-710 122 OFFCURVE",
"-689 194 OFFCURVE",
"-689 279 CURVE SMOOTH",
"-689 432 OFFCURVE",
"-777 515 OFFCURVE",
"-905 515 CURVE"
);
},
{
closed = 1;
nodes = (
"-576 302 OFFCURVE",
"-555 368 OFFCURVE",
"-515 422 CURVE",
"-471 460 OFFCURVE",
"-366 515 OFFCURVE",
"-305 515 CURVE SMOOTH",
"-171 515 OFFCURVE",
"-79 426 OFFCURVE",
"-79 279 CURVE SMOOTH",
"-79 194 OFFCURVE",
"-100 129 OFFCURVE",
"-140 78 CURVE",
"-184 40 OFFCURVE",
"-289 -15 OFFCURVE",
"-350 -15 CURVE SMOOTH",
"-484 -15 OFFCURVE",
"-576 68 OFFCURVE",
"-576 221 CURVE SMOOTH"
);
},
{
closed = 1;
nodes = (
"-243 337 OFFCURVE",
"-287 414 OFFCURVE",
"-375 414 CURVE SMOOTH",
"-430 414 LINE",
"-396 439 LINE",
"-406 388 OFFCURVE",
"-412 337 OFFCURVE",
"-412 271 CURVE SMOOTH",
"-412 144 OFFCURVE",
"-357 84 OFFCURVE",
"-276 83 CURVE SMOOTH",
"-274 83 LINE",
"-253 131 OFFCURVE",
"-243 171 OFFCURVE",
"-243 239 CURVE SMOOTH"
);
},
{
closed = 1;
nodes = (
"500 179 OFFCURVE",
"481 119 OFFCURVE",
"444 70 CURVE",
"404 35 OFFCURVE",
"308 -15 OFFCURVE",
"252 -15 CURVE SMOOTH",
"129 -15 OFFCURVE",
"45 65 OFFCURVE",
"45 199 CURVE SMOOTH",
"45 272 OFFCURVE",
"64 331 OFFCURVE",
"101 381 CURVE",
"141 415 OFFCURVE",
"237 465 OFFCURVE",
"293 465 CURVE SMOOTH",
"416 465 OFFCURVE",
"500 384 OFFCURVE",
"500 252 CURVE SMOOTH"
);
},
{
closed = 1;
nodes = (
"188 147 OFFCURVE",
"242 77 OFFCURVE",
"316 77 CURVE SMOOTH",
"366 77 LINE",
"340 54 LINE",
"353 102 OFFCURVE",
"357 157 OFFCURVE",
"357 205 CURVE SMOOTH",
"357 304 OFFCURVE",
"303 373 OFFCURVE",
"229 373 CURVE SMOOTH",
"179 373 LINE",
"205 396 LINE",
"192 349 OFFCURVE",
"188 294 OFFCURVE",
"188 245 CURVE SMOOTH"
);
}
);
};
backgroundImage = {
crop = "{{0, 0}, {3024, 4032}}";
imagePath = ../../../../var/folders/xp/9k2g5rln0g3214w24ld01r0h0000gn/T/com.apple.iChat/Messages/Transfers/IMG_0293.JPG;
locked = "1";
transform = "{0.465, 0, 0, 0.465, -208, -174}";
};
layerId = "FABFC9D4-E17A-4CB6-8F8E-4923CD579275";
name = Regular;
paths = (
{
closed = 1;
nodes = (
"285 383 OFFCURVE",
"361 334 OFFCURVE",
"361 190 CURVE SMOOTH",
"361 159 OFFCURVE",
"354 90 OFFCURVE",
"341 47 CURVE",
"385 67 LINE",
"261 67 OFFCURVE",
"184 116 OFFCURVE",
"184 260 CURVE SMOOTH",
"184 291 OFFCURVE",
"192 360 OFFCURVE",
"205 403 CURVE",
"164 383 LINE"
);
},
{
closed = 1;
nodes = (
"208 465 OFFCURVE",
"145 434 OFFCURVE",
"105 396 CURVE",
"61 343 OFFCURVE",
"39 270 OFFCURVE",
"39 212 CURVE SMOOTH",
"39 63 OFFCURVE",
"135 -15 OFFCURVE",
"269 -15 CURVE SMOOTH",
"338 -15 OFFCURVE",
"401 16 OFFCURVE",
"441 54 CURVE",
"486 107 OFFCURVE",
"506 180 OFFCURVE",
"506 238 CURVE SMOOTH",
"506 387 OFFCURVE",
"410 465 OFFCURVE",
"276 465 CURVE SMOOTH"
);
}
);
width = 540;
}
);
unicode = 006F;
},
{
glyphname = p;
lastChange = "2015-10-20 13:10:18 +0000";
layers = (
{
background = {
paths = (
{
closed = 1;
nodes = (
"77 -257 LINE",
"260 -197 LINE",
"251 -169 LINE",
"213 -177 LINE",
"213 339 LINE",
"213 400 OFFCURVE",
"197 438 OFFCURVE",
"159 460 CURVE",
"17 381 LINE",
"29 354 LINE",
"59 368 LINE",
"71 352 OFFCURVE",
"77 334 OFFCURVE",
"77 284 CURVE"
);
},
{
closed = 1;
nodes = (
"478 123 OFFCURVE",
"494 204 OFFCURVE",
"494 254 CURVE SMOOTH",
"494 392 OFFCURVE",
"434 465 OFFCURVE",
"312 465 CURVE",
"190 322 LINE",
"204 296 LINE",
"258 350 LINE",
"312 350 OFFCURVE",
"354 307 OFFCURVE",
"354 206 CURVE SMOOTH",
"354 142 OFFCURVE",
"343 87 OFFCURVE",
"326 44 CURVE",
"352 58 LINE",
"308 68 OFFCURVE",
"242 111 OFFCURVE",
"193 177 CURVE",
"140 66 LINE",
"181 16 OFFCURVE",
"254 -15 OFFCURVE",
"316 -15 CURVE SMOOTH",
"342 -15 OFFCURVE",
"432 49 OFFCURVE",
"452 83 CURVE"
);
}
);
};
layerId = "FABFC9D4-E17A-4CB6-8F8E-4923CD579275";
name = Regular;
paths = (
{
closed = 1;
nodes = (
"77 -218 LINE",
"40 -221 LINE",
"40 -250 LINE",
"293 -250 LINE",
"293 -221 LINE",
"216 -218 LINE",
"216 342 LINE",
"183 462 LINE",
"29 413 LINE",
"39 383 LINE",
"77 392 LINE"
);
},
{
closed = 1;
nodes = (
"485 115 OFFCURVE",
"510 192 OFFCURVE",
"510 260 CURVE SMOOTH",
"510 378 OFFCURVE",
"431 465 OFFCURVE",
"315 465 CURVE",
"193 322 LINE",
"207 296 LINE",
"261 350 LINE",
"317 350 OFFCURVE",
"370 296 OFFCURVE",
"370 200 CURVE SMOOTH",
"370 145 OFFCURVE",
"359 85 OFFCURVE",
"334 44 CURVE",
"360 58 LINE",
"301 65 OFFCURVE",
"212 100 OFFCURVE",
"162 136 CURVE",
"81 37 LINE",
"127 12 OFFCURVE",
"243 -15 OFFCURVE",
"301 -15 CURVE SMOOTH",
"347 -15 OFFCURVE",
"429 38 OFFCURVE",
"454 73 CURVE"
);
}
);
width = 529;
}
);
unicode = 0070;
},
{
glyphname = q;
lastChange = "2015-10-20 13:09:16 +0000";
layers = (
{
background = {
paths = (
{
closed = 1;
nodes = (
"317 -257 LINE",
"500 -197 LINE",
"491 -169 LINE",
"453 -177 LINE",
"453 450 LINE",
"428 450 LINE",
"376 361 LINE",
"317 308 LINE"
);
},
{
closed = 1;
nodes = (
"51 327 OFFCURVE",
"35 246 OFFCURVE",
"35 196 CURVE SMOOTH",
"35 58 OFFCURVE",
"95 -15 OFFCURVE",
"218 -15 CURVE",
"340 128 LINE",
"326 154 LINE",
"272 100 LINE",
"217 100 OFFCURVE",
"175 143 OFFCURVE",
"175 244 CURVE SMOOTH",
"175 308 OFFCURVE",
"187 363 OFFCURVE",
"204 406 CURVE",
"178 392 LINE",
"222 382 OFFCURVE",
"288 339 OFFCURVE",
"337 273 CURVE",
"390 384 LINE",
"349 434 OFFCURVE",
"276 465 OFFCURVE",
"214 465 CURVE SMOOTH",
"188 465 OFFCURVE",
"98 401 OFFCURVE",
"78 367 CURVE"
);
}
);
};
layerId = "FABFC9D4-E17A-4CB6-8F8E-4923CD579275";
name = Regular;
paths = (
{
closed = 1;
nodes = (
"315 -255 LINE",
"498 -195 LINE",
"489 -167 LINE",
"451 -175 LINE",
"451 415 LINE",
"315 394 LINE"
);
},
{
closed = 1;
nodes = (
"46 337 OFFCURVE",
"21 260 OFFCURVE",
"21 192 CURVE SMOOTH",
"21 74 OFFCURVE",
"100 -13 OFFCURVE",
"216 -13 CURVE",
"338 130 LINE",
"324 156 LINE",
"270 102 LINE",
"214 102 OFFCURVE",
"161 156 OFFCURVE",
"161 252 CURVE SMOOTH",
"161 307 OFFCURVE",
"172 367 OFFCURVE",
"197 408 CURVE",
"171 394 LINE",
"230 387 OFFCURVE",
"319 352 OFFCURVE",
"369 316 CURVE",
"450 415 LINE",
"404 440 OFFCURVE",
"288 467 OFFCURVE",
"230 467 CURVE SMOOTH",
"184 467 OFFCURVE",
"102 414 OFFCURVE",
"77 379 CURVE"
);
}
);
width = 517;
}
);
unicode = 0071;
},
{
glyphname = r;
lastChange = "2015-10-20 13:37:42 +0000";
layers = (
{
background = {
components = (
{
name = _part.shortstem;
transform = "{1, 0, 0, 1, -530, 0}";
}
);
paths = (
{
closed = 1;
nodes = (
"-1145 416 LINE",
"-1178 475 OFFCURVE",
"-1234 512 OFFCURVE",
"-1315 512 CURVE",
"-1408 217 LINE",
"-1391 198 LINE",
"-1328 348 LINE",
"-1306 348 OFFCURVE",
"-1275 327 OFFCURVE",
"-1261 304 CURVE"
);
},
{
closed = 1;
nodes = (
"-887 274 LINE",
"-887 295 LINE",
"-887 503 LINE",
"-1101 432 LINE",
"-1091 400 LINE",
"-1039 410 LINE",
"-1039 38 LINE",
"-1093 32 LINE",
"-1093 0 LINE",
"-768 0 LINE",
"-768 32 LINE",
"-887 38 LINE"
);
},
{
closed = 1;
nodes = (
"-633 399 LINE",
"-674 474 OFFCURVE",
"-732 506 OFFCURVE",
"-813 506 CURVE",
"-909 237 LINE",
"-899 208 LINE",
"-828 339 LINE",
"-801 339 OFFCURVE",
"-775 318 OFFCURVE",
"-753 278 CURVE"
);
},
{
closed = 1;
nodes = (
"-43 332 LINE",
"-42 445 OFFCURVE",
"-91 513 OFFCURVE",
"-198 513 CURVE",
"-299 337 LINE",
"-292 307 LINE",
"-273 321 OFFCURVE",
"-244 341 OFFCURVE",
"-218 341 CURVE SMOOTH",
"-198 341 OFFCURVE",
"-180 319 OFFCURVE",
"-176 285 CURVE"
);
},
{
closed = 1;
nodes = (
"434 300 LINE",
"431 403 OFFCURVE",
"386 465 OFFCURVE",
"296 465 CURVE",
"196 312 LINE",
"204 275 LINE",
"256 331 LINE",
"276 331 OFFCURVE",
"305 301 OFFCURVE",
"308 257 CURVE"
);
}
);
};
components = (
{
name = _part.shortstem;
transform = "{1, 0, 0, 1, -30, 0}";
piece = {
WideSerif = 73.6197;
};
}
);
layerId = "FABFC9D4-E17A-4CB6-8F8E-4923CD579275";
name = Regular;
paths = (
{
closed = 1;
nodes = (
"199 302 LINE",
"228 319 OFFCURVE",
"313 327 OFFCURVE",
"374 311 CURVE",
"392 464 LINE",
"305 464 OFFCURVE",
"228 414 OFFCURVE",
"189 322 CURVE"
);
}
);
width = 402;
}
);
unicode = 0072;
},
{
glyphname = s;
lastChange = "2015-10-20 13:54:26 +0000";
layers = (
{
background = {
paths = (
{
closed = 1;
nodes = (
"1331 161 OFFCURVE",
"1229 124 OFFCURVE",
"1176 124 CURVE",
"1152 169 LINE",
"1123 154 LINE",
"1199 -23 LINE",
"1278 -17 OFFCURVE",
"1454 36 OFFCURVE",
"1454 142 CURVE",
"1424 206 OFFCURVE",
"1252 262 OFFCURVE",
"1249 313 CURVE SMOOTH",
"1248 331 OFFCURVE",
"1350 368 OFFCURVE",
"1403 368 CURVE",
"1427 323 LINE",
"1456 338 LINE",
"1380 515 LINE",
"1301 509 OFFCURVE",
"1125 456 OFFCURVE",
"1125 350 CURVE",
"1155 286 OFFCURVE",
"1327 230 OFFCURVE",
"1330 179 CURVE SMOOTH"
);
},
{
closed = 1;
nodes = (
"659 124 OFFCURVE",
"608 108 OFFCURVE",
"579 108 CURVE",
"555 153 LINE",
"526 138 LINE",
"593 -22 LINE",
"672 -16 OFFCURVE",
"839 35 OFFCURVE",
"839 145 CURVE SMOOTH",
"839 218 OFFCURVE",
"713 294 OFFCURVE",
"713 344 CURVE SMOOTH",
"713 366 OFFCURVE",
"764 387 OFFCURVE",
"793 387 CURVE",
"817 342 LINE",
"846 357 LINE",
"779 517 LINE",
"700 511 OFFCURVE",
"525 455 OFFCURVE",
"525 345 CURVE SMOOTH",
"525 268 OFFCURVE",
"659 194 OFFCURVE",
"659 146 CURVE SMOOTH"
);
},
{
closed = 1;
nodes = (
"161 118 OFFCURVE",
"115 104 OFFCURVE",
"88 104 CURVE",
"66 145 LINE",
"40 131 LINE",
"101 -15 LINE",
"173 -10 OFFCURVE",
"326 37 OFFCURVE",
"326 138 CURVE SMOOTH",
"326 202 OFFCURVE",
"211 263 OFFCURVE",
"211 307 CURVE SMOOTH",
"211 327 OFFCURVE",
"257 346 OFFCURVE",
"284 346 CURVE",
"306 305 LINE",
"332 319 LINE",
"271 465 LINE",
"199 459 OFFCURVE",
"39 408 OFFCURVE",
"39 308 CURVE SMOOTH",
"39 240 OFFCURVE",
"161 181 OFFCURVE",
"161 139 CURVE SMOOTH"
);
}
);
};
layerId = "FABFC9D4-E17A-4CB6-8F8E-4923CD579275";
name = Regular;
paths = (
{
closed = 1;
nodes = (
"233 45 OFFCURVE",
"180 0 OFFCURVE",
"146 0 CURVE",
"210 1 LINE",
"169 44 OFFCURVE",
"136 91 OFFCURVE",
"111 143 CURVE",
"25 74 LINE",
"54 18 OFFCURVE",
"111 -15 OFFCURVE",
"192 -15 CURVE SMOOTH",
"304 -15 OFFCURVE",
"376 55 OFFCURVE",
"376 133 CURVE SMOOTH",
"376 255 OFFCURVE",
"179 286 OFFCURVE",
"179 375 CURVE SMOOTH",
"179 421 OFFCURVE",
"212 451 OFFCURVE",
"242 451 CURVE",
"175 443 LINE",
"226 404 OFFCURVE",
"273 361 OFFCURVE",
"302 317 CURVE",
"384 404 LINE",
"354 440 OFFCURVE",
"298 465 OFFCURVE",
"236 465 CURVE SMOOTH",
"119 465 OFFCURVE",
"43 390 OFFCURVE",
"43 318 CURVE SMOOTH",
"43 197 OFFCURVE",
"233 175 OFFCURVE",
"233 85 CURVE SMOOTH"
);
}
);
width = 409;
}
);
unicode = 0073;
},
{
glyphname = t;
lastChange = "2015-10-19 22:27:39 +0000";
layers = (
{
background = {
paths = (
{
closed = 1;
nodes = (
"-16 460 LINE",
"67 460 LINE",
"67 159 LINE SMOOTH",
"67 49 OFFCURVE",
"129 -12 OFFCURVE",
"241 -12 CURVE",
"357 154 LINE",
"331 176 LINE",
"298 138 LINE",
"244 138 OFFCURVE",
"219 170 OFFCURVE",
"219 240 CURVE SMOOTH",
"219 660 LINE",
"182 660 LINE",
"129 587 OFFCURVE",
"61 527 OFFCURVE",
"-16 495 CURVE"
);
},
{
closed = 1;
nodes = (
"172 460 LINE",
"340 460 LINE",
"340 506 LINE",
"172 501 LINE"
);
}
);
};
layerId = "FABFC9D4-E17A-4CB6-8F8E-4923CD579275";
name = Regular;
paths = (
{
closed = 1;
nodes = (
"0 420 LINE",
"75 420 LINE",
"75 145 LINE SMOOTH",
"75 38 OFFCURVE",
"132 -8 OFFCURVE",
"235 -8 CURVE",
"332 137 LINE",
"309 157 LINE",
"283 126 LINE",
"243 126 OFFCURVE",
"214 157 OFFCURVE",
"214 219 CURVE SMOOTH",
"214 603 LINE",
"181 603 LINE",
"132 536 OFFCURVE",
"70 481 OFFCURVE",
"0 452 CURVE"
);
},
{
closed = 1;
nodes = (
"171 420 LINE",
"325 420 LINE",
"325 462 LINE",
"171 457 LINE"
);
}
);
width = 344;
}
);
unicode = 0074;
},
{
glyphname = u;
lastChange = "2015-10-20 01:01:00 +0000";
layers = (
{
background = {
paths = (
{
closed = 1;
nodes = (
"-377 200 LINE SMOOTH",
"-377 114 OFFCURVE",
"-362 47 OFFCURVE",
"-331 -5 CURVE",
"-146 101 LINE",
"-156 133 LINE",
"-200 118 LINE",
"-216 144 OFFCURVE",
"-225 198 OFFCURVE",
"-225 268 CURVE SMOOTH",
"-225 500 LINE",
"-431 500 LINE",
"-431 468 LINE",
"-377 462 LINE"
);
},
{
closed = 1;
nodes = (
"-510 500 LINE",
"-716 500 LINE",
"-716 468 LINE",
"-662 462 LINE",
"-662 220 LINE SMOOTH",
"-662 83 OFFCURVE",
"-615 9 OFFCURVE",
"-513 -22 CURVE",
"-357 182 LINE",
"-371 213 LINE",
"-449 134 LINE",
"-488 144 OFFCURVE",
"-510 197 OFFCURVE",
"-510 281 CURVE SMOOTH"
);
},
{
closed = 1;
nodes = (
"476 500 LINE",
"270 500 LINE",
"270 468 LINE",
"324 462 LINE",
"324 126 LINE SMOOTH",
"324 58 OFFCURVE",
"344 15 OFFCURVE",
"391 -10 CURVE",
"541 77 LINE",
"529 109 LINE",
"496 93 LINE",
"482 111 OFFCURVE",
"476 131 OFFCURVE",
"476 187 CURVE SMOOTH"
);
},
{
closed = 1;
nodes = (
"338 117 LINE",
"331 148 LINE",
"312 142 OFFCURVE",
"287 139 OFFCURVE",
"270 139 CURVE SMOOTH",
"214 139 OFFCURVE",
"189 175 OFFCURVE",
"189 245 CURVE SMOOTH",
"189 500 LINE",
"-17 500 LINE",
"-17 468 LINE",
"37 462 LINE",
"37 190 LINE SMOOTH",
"37 59 OFFCURVE",
"89 -13 OFFCURVE",
"227 -13 CURVE"
);
}
);
};
layerId = "FABFC9D4-E17A-4CB6-8F8E-4923CD579275";
name = Regular;
paths = (
{
closed = 1;
nodes = (
"49 171 LINE SMOOTH",
"49 44 OFFCURVE",
"107 -15 OFFCURVE",
"233 -15 CURVE",
"354 161 LINE",
"342 178 LINE",
"276 116 LINE",
"224 117 OFFCURVE",
"188 150 OFFCURVE",
"188 211 CURVE SMOOTH",
"188 450 LINE",
"12 450 LINE",
"12 421 LINE",
"49 418 LINE"
);
},
{
closed = 1;
nodes = (
"319 50 OFFCURVE",
"338 11 OFFCURVE",
"381 -12 CURVE",
"518 67 LINE",
"507 97 LINE",
"477 82 LINE",
"464 98 OFFCURVE",
"458 117 OFFCURVE",
"458 168 CURVE SMOOTH",
"458 450 LINE",
"283 450 LINE",
"283 421 LINE",
"319 418 LINE",
"319 112 LINE SMOOTH"
);
}
);
width = 528;
}
);
unicode = 0075;
},
{
glyphname = v;
lastChange = "2015-10-20 01:01:50 +0000";
layers = (
{
backgroundImage = {
crop = "{{0, 0}, {1080, 720}}";
imagePath = "../../Pictures/Photo Booth Library/Pictures/Photo on 17-09-2015 at 17.08.jpg";
locked = "1";
transform = "{-1.440, -0, 0, 1.463, 1059, -324}";
};
guideLines = (
{
angle = 270;
position = "{270, 430}";
}
);
layerId = "FABFC9D4-E17A-4CB6-8F8E-4923CD579275";
name = Regular;
paths = (
{
closed = 1;
nodes = (
"491 418 LINE",
"491 450 LINE",
"313 450 LINE",
"313 418 LINE",
"352 417 LINE",
"278 62 LINE",
"295 68 LINE",
"189 417 LINE",
"228 418 LINE",
"228 450 LINE",
"-18 450 LINE",
"-18 418 LINE",
"21 417 LINE",
"185 0 LINE",
"286 6 LINE",
"453 417 LINE"
);
}
);
width = 486;
}
);
unicode = 0076;
},
{
glyphname = w;
lastChange = "2015-09-17 16:18:36 +0000";
layers = (
{
layerId = "FABFC9D4-E17A-4CB6-8F8E-4923CD579275";
name = Regular;
paths = (
{
closed = 1;
nodes = (
"463 418 LINE",
"463 450 LINE",
"285 450 LINE",
"285 418 LINE",
"324 417 LINE",
"264 62 LINE",
"281 68 LINE",
"185 417 LINE",
"224 418 LINE",
"224 450 LINE",
"-15 450 LINE",
"-15 418 LINE",
"24 417 LINE",
"171 0 LINE",
"272 6 LINE",
"425 417 LINE"
);
},
{
closed = 1;
nodes = (
"763 418 LINE",
"763 450 LINE",
"585 450 LINE",
"585 418 LINE",
"624 417 LINE",
"564 62 LINE",
"581 68 LINE",
"485 417 LINE",
"524 418 LINE",
"524 450 LINE",
"285 450 LINE",
"285 418 LINE",
"324 417 LINE",
"471 0 LINE",
"572 6 LINE",
"725 417 LINE"
);
}
);
width = 758;
}
);
unicode = 0077;
},
{
glyphname = x;
lastChange = "2015-09-17 16:25:05 +0000";
layers = (
{
layerId = "FABFC9D4-E17A-4CB6-8F8E-4923CD579275";
name = Regular;
paths = (
{
closed = 1;
nodes = (
"200 417 LINE",
"239 418 LINE",
"239 450 LINE",
"0 450 LINE",
"0 418 LINE",
"39 417 LINE",
"281 33 LINE",
"242 32 LINE",
"242 0 LINE",
"481 0 LINE",
"481 32 LINE",
"442 33 LINE"
);
},
{
closed = 1;
nodes = (
"252 216 LINE",
"417 417 LINE",
"455 418 LINE",
"455 450 LINE",
"280 450 LINE",
"280 418 LINE",
"319 417 LINE",
"254 242 LINE"
);
},
{
closed = 1;
nodes = (
"218 254 LINE",
"50 33 LINE",
"12 32 LINE",
"12 0 LINE",
"190 0 LINE",
"190 32 LINE",
"151 33 LINE",
"216 228 LINE"
);
}
);
width = 476;
}
);
unicode = 0078;
},
{
glyphname = y;
lastChange = "2015-10-20 01:01:32 +0000";
layers = (
{
background = {
paths = (
{
closed = 1;
nodes = (
"-575 450 LINE",
"-575 421 LINE",
"-538 418 LINE",
"-538 171 LINE SMOOTH",
"-538 44 OFFCURVE",
"-483 -15 OFFCURVE",
"-364 -15 CURVE",
"-243 161 LINE",
"-255 178 LINE",
"-321 116 LINE",
"-367 117 OFFCURVE",
"-399 150 OFFCURVE",
"-399 211 CURVE SMOOTH",
"-399 419 LINE",
"-362 422 LINE",
"-362 450 LINE"
);
},
{
closed = 1;
nodes = (
"-314 450 LINE",
"-314 421 LINE",
"-278 418 LINE",
"-278 152 LINE SMOOTH",
"-278 -12 OFFCURVE",
"-296 -59 OFFCURVE",
"-354 -85 CURVE SMOOTH",
"-385 -96 OFFCURVE",
"-425 -101 OFFCURVE",
"-455 -101 CURVE",
"-478 -70 LINE",
"-505 -88 LINE",
"-399 -250 LINE",
"-246 -250 OFFCURVE",
"-139 -142 OFFCURVE",
"-139 58 CURVE SMOOTH",
"-139 419 LINE",
"-102 422 LINE",
"-102 450 LINE"
);
},
{
closed = 1;
nodes = (
"485 418 LINE",
"485 450 LINE",
"307 450 LINE",
"307 418 LINE",
"346 417 LINE",
"277 62 LINE",
"294 68 LINE",
"193 417 LINE",
"232 418 LINE",
"232 450 LINE",
"-7 450 LINE",
"-7 418 LINE",
"32 417 LINE",
"184 0 LINE",
"285 6 LINE",
"447 417 LINE"
);
},
{
closed = 1;
nodes = (
"93 -220 LINE",
"51 -221 LINE",
"49 -250 LINE",
"214 -250 LINE",
"301 49 LINE",
"269 41 LINE"
);
}
);
};
backgroundImage = {
crop = "{{0, 0}, {1080, 720}}";
imagePath = "../../Pictures/Photo Booth Library/Pictures/Photo on 17-09-2015 at 17.27.jpg";
locked = "1";
transform = "{-2.010, -0, 0, 2.010, 1069, -553}";
};
layerId = "FABFC9D4-E17A-4CB6-8F8E-4923CD579275";
name = Regular;
paths = (
{
closed = 1;
nodes = (
"491 418 LINE",
"492 450 LINE",
"314 450 LINE",
"313 418 LINE",
"352 417 LINE",
"265 62 LINE",
"282 68 LINE",
"185 417 LINE",
"224 418 LINE",
"225 450 LINE",
"-16 450 LINE",
"-17 418 LINE",
"22 417 LINE",
"169 0 LINE",
"271 6 LINE",
"453 417 LINE"
);
},
{
closed = 1;
nodes = (
"61 -220 LINE",
"19 -221 LINE",
"16 -250 LINE",
"191 -250 LINE",
"288 49 LINE",
"256 41 LINE"
);
}
);
width = 487;
}
);
unicode = 0079;
},
{
glyphname = z;
lastChange = "2015-10-19 22:02:46 +0000";
layers = (
{
background = {
paths = (
{
closed = 1;
nodes = (
"25 450 LINE",
"337 451 LINE",
"318 319 LINE",
"57 319 LINE",
"54 291 LINE",
"25 291 LINE"
);
},
{
closed = 1;
nodes = (
"332 -2 LINE",
"0 -3 LINE",
"89 129 LINE",
"299 129 LINE",
"303 164 LINE",
"332 164 LINE"
);
},
{
closed = 1;
nodes = (
"265 374 LINE",
"318 319 LINE",
"112 108 LINE",
"89 129 LINE"
);
}
);
};
layerId = "FABFC9D4-E17A-4CB6-8F8E-4923CD579275";
name = Regular;
paths = (
{
closed = 1;
nodes = (
"1 23 LINE",
"229 319 LINE",
"57 319 LINE",
"54 291 LINE",
"25 291 LINE",
"25 450 LINE",
"343 451 LINE",
"330 319 LINE",
"130 129 LINE",
"313 129 LINE",
"317 164 LINE",
"346 164 LINE",
"346 -2 LINE",
"9 -3 LINE"
);
}
);
width = 357;
}
);
unicode = 007A;
},
{
glyphname = "hamza-ar";
lastChange = "2015-08-17 17:49:06 +0000";
layers = (
{
background = {
paths = (
{
closed = 1;
nodes = (
"100 589 OFFCURVE",
"36 547 OFFCURVE",
"36 512 CURVE SMOOTH",
"36 482 OFFCURVE",
"58 468 OFFCURVE",
"78 462 CURVE",
"20 409 LINE",
"33 396 LINE",
"203 518 LINE",
"164 525 OFFCURVE",
"118 536 OFFCURVE",
"118 559 CURVE",
"130 565 OFFCURVE",
"146 569 OFFCURVE",
"179 576 CURVE",
"177 596 LINE"
);
}
);
};
layerId = "FABFC9D4-E17A-4CB6-8F8E-4923CD579275";
name = Regular;
paths = (
{
closed = 1;
nodes = (
"185 61 LINE",
"149 61 OFFCURVE",
"114 71 OFFCURVE",
"114 99 CURVE",
"119 109 LINE",
"107 96 LINE",
"116 98 OFFCURVE",
"144 102 OFFCURVE",
"170 100 CURVE",
"185 136 LINE",
"98 128 OFFCURVE",
"36 89 OFFCURVE",
"36 49 CURVE SMOOTH",
"36 26 OFFCURVE",
"56 8 OFFCURVE",
"78 2 CURVE",
"20 -51 LINE",
"33 -64 LINE",
"186 46 LINE"
);
}
);
width = 206;
}
);
unicode = 0621;
},
{
glyphname = "alef-ar";
lastChange = "2015-10-22 15:28:49 +0000";
layers = (
{
background = {
paths = (
{
closed = 1;
nodes = (
"35 326 OFFCURVE",
"39 95 OFFCURVE",
"43 -8 CURVE",
"134 69 LINE",
"150 180 OFFCURVE",
"156 418 OFFCURVE",
"152 592 CURVE",
"31 492 LINE"
);
},
{
closed = 1;
nodes = (
"254 399 OFFCURVE",
"276 170 OFFCURVE",
"276 35 CURVE",
"358 114 LINE",
"372 246 OFFCURVE",
"377 499 OFFCURVE",
"366 633 CURVE",
"229 529 LINE"
);
}
);
};
layerId = "FABFC9D4-E17A-4CB6-8F8E-4923CD579275";
name = Regular;
paths = (
{
closed = 1;
nodes = (
"66 532 OFFCURVE",
"117 579 OFFCURVE",
"156 599 CURVE",
"173 536 OFFCURVE",
"148 175 OFFCURVE",
"138 156 CURVE",
"73 5 LINE",
"51 13 LINE",
"52 140 OFFCURVE",
"43 346 OFFCURVE",
"30 488 CURVE"
);
}
);
width = 177;
}
);
unicode = 0627;
},
{
glyphname = "alef-ar.fina";
lastChange = "2015-08-17 17:21:15 +0000";
layers = (
{
anchors = (
{
name = entry;
position = "{221, 80}";
}
);
background = {
paths = (
{
closed = 1;
nodes = (
"116 -2 OFFCURVE",
"179 5 OFFCURVE",
"239 19 CURVE",
"282 81 OFFCURVE",
"305 169 OFFCURVE",
"314 243 CURVE",
"282 244 LINE",
"276 207 OFFCURVE",
"267 173 OFFCURVE",
"257 142 CURVE",
"281 163 LINE",
"223 148 OFFCURVE",
"167 142 OFFCURVE",
"111 142 CURVE",
"56 -1 LINE"
);
},
{
closed = 1;
nodes = (
"43 336 OFFCURVE",
"52 127 OFFCURVE",
"54 -1 CURVE",
"73 -1 LINE",
"129 142 LINE",
"137 164 OFFCURVE",
"163 402 OFFCURVE",
"161 526 CURVE SMOOTH",
"161 555 OFFCURVE",
"159 577 OFFCURVE",
"156 589 CURVE",
"117 569 OFFCURVE",
"66 522 OFFCURVE",
"30 478 CURVE"
);
}
);
};
guideLines = (
{
angle = 69.6476;
position = "{339, 62}";
},
{
angle = 6;
position = "{8, -8}";
}
);
layerId = "FABFC9D4-E17A-4CB6-8F8E-4923CD579275";
name = Regular;
paths = (
{
closed = 1;
nodes = (
"43 336 OFFCURVE",
"52 127 OFFCURVE",
"54 -1 CURVE",
"73 -1 LINE",
"129 142 LINE",
"137 164 OFFCURVE",
"163 402 OFFCURVE",
"161 526 CURVE SMOOTH",
"161 555 OFFCURVE",
"159 577 OFFCURVE",
"156 589 CURVE",
"117 569 OFFCURVE",
"66 522 OFFCURVE",
"30 478 CURVE"
);
},
{
closed = 1;
nodes = (
"71 -1 LINE",
"205 13 LINE",
"261 165 LINE",
"127 151 LINE"
);
}
);
width = 266;
}
);
unicode = FE8E;
},
{
glyphname = "dotlessbeh-ar";
lastChange = "2015-08-17 15:52:48 +0000";
layers = (
{
anchors = (
{
name = bottom;
position = "{367, 0}";
},
{
name = top;
position = "{367, 500}";
}
);
background = {
paths = (
{
closed = 1;
nodes = (
"2320 186 OFFCURVE",
"2320 236 CURVE SMOOTH",
"2320 281 OFFCURVE",
"2285 337 OFFCURVE",
"2259 357 CURVE",
"2147 255 LINE",
"2191 216 OFFCURVE",
"2231 164 OFFCURVE",
"2253 115 CURVE",
"2259 138 LINE",
"2165 107 OFFCURVE",
"2043 89 OFFCURVE",
"1929 89 CURVE SMOOTH",
"1803 89 OFFCURVE",
"1731 129 OFFCURVE",
"1706 204 CURVE",
"1739 308 LINE",
"1713 320 LINE",
"1684 251 OFFCURVE",
"1659 195 OFFCURVE",
"1625 114 CURVE",
"1625 20 OFFCURVE",
"1698 -56 OFFCURVE",
"1880 -56 CURVE SMOOTH",
"2036 -56 OFFCURVE",
"2205 0 OFFCURVE",
"2263 54 CURVE",
"2299 99 OFFCURVE"
);
},
{
closed = 1;
nodes = (
"1520 210 OFFCURVE",
"1520 243 CURVE SMOOTH",
"1520 294 OFFCURVE",
"1473 357 OFFCURVE",
"1442 381 CURVE",
"1333 264 LINE",
"1375 229 OFFCURVE",
"1427 181 OFFCURVE",
"1448 137 CURVE",
"1454 155 LINE",
"1359 111 OFFCURVE",
"1220 102 OFFCURVE",
"1145 102 CURVE SMOOTH",
"1020 102 OFFCURVE",
"943 127 OFFCURVE",
"909 201 CURVE",
"929 248 OFFCURVE",
"975 296 OFFCURVE",
"1020 347 CURVE",
"994 363 LINE",
"914 284 OFFCURVE",
"860 212 OFFCURVE",
"825 114 CURVE",
"825 25 OFFCURVE",
"897 -56 OFFCURVE",
"1082 -56 CURVE SMOOTH",
"1235 -56 OFFCURVE",
"1405 0 OFFCURVE",
"1458 56 CURVE",
"1500 115 OFFCURVE"
);
},
{
closed = 1;
nodes = (
"-80 210 OFFCURVE",
"-80 243 CURVE SMOOTH",
"-80 291 OFFCURVE",
"-122 355 OFFCURVE",
"-150 378 CURVE",
"-267 264 LINE",
"-225 229 OFFCURVE",
"-173 181 OFFCURVE",
"-152 137 CURVE",
"-146 155 LINE",
"-241 111 OFFCURVE",
"-380 102 OFFCURVE",
"-455 102 CURVE SMOOTH",
"-580 102 OFFCURVE",
"-657 127 OFFCURVE",
"-691 201 CURVE",
"-676 248 OFFCURVE",
"-653 296 OFFCURVE",
"-622 347 CURVE",
"-644 363 LINE",
"-704 276 OFFCURVE",
"-746 204 OFFCURVE",
"-775 114 CURVE",
"-775 25 OFFCURVE",
"-703 -56 OFFCURVE",
"-518 -56 CURVE SMOOTH",
"-365 -56 OFFCURVE",
"-195 0 OFFCURVE",
"-142 56 CURVE",
"-100 115 OFFCURVE"
);
},
{
closed = 1;
nodes = (
"689 100 OFFCURVE",
"720 193 OFFCURVE",
"720 243 CURVE SMOOTH",
"720 284 OFFCURVE",
"683 349 OFFCURVE",
"642 381 CURVE",
"533 264 LINE",
"592 215 OFFCURVE",
"632 171 OFFCURVE",
"648 137 CURVE",
"654 155 LINE",
"584 123 OFFCURVE",
"462 102 OFFCURVE",
"345 102 CURVE SMOOTH",
"197 102 OFFCURVE",
"126 139 OFFCURVE",
"100 225 CURVE",
"100 176 LINE",
"128 220 OFFCURVE",
"177 266 OFFCURVE",
"225 305 CURVE",
"194 363 LINE",
"106 276 OFFCURVE",
"57 204 OFFCURVE",
"25 114 CURVE",
"25 8 OFFCURVE",
"122 -56 OFFCURVE",
"282 -56 CURVE SMOOTH",
"426 -56 OFFCURVE",
"601 -4 OFFCURVE",
"658 56 CURVE"
);
}
);
};
layerId = "FABFC9D4-E17A-4CB6-8F8E-4923CD579275";
name = Regular;
paths = (
{
closed = 1;
nodes = (
"689 105 OFFCURVE",
"720 198 OFFCURVE",
"720 248 CURVE SMOOTH",
"720 289 OFFCURVE",
"683 354 OFFCURVE",
"642 386 CURVE",
"533 269 LINE",
"592 220 OFFCURVE",
"632 176 OFFCURVE",
"648 142 CURVE",
"654 160 LINE",
"584 128 OFFCURVE",
"462 102 OFFCURVE",
"345 102 CURVE SMOOTH",
"197 102 OFFCURVE",
"126 139 OFFCURVE",
"100 225 CURVE",
"100 176 LINE",
"126 206 OFFCURVE",
"173 248 OFFCURVE",
"213 277 CURVE",
"194 363 LINE",
"106 276 OFFCURVE",
"57 204 OFFCURVE",
"25 114 CURVE",
"25 12 OFFCURVE",
"122 -50 OFFCURVE",
"282 -50 CURVE SMOOTH",
"426 -50 OFFCURVE",
"601 4 OFFCURVE",
"658 61 CURVE"
);
}
);
width = 750;
}
);
unicode = 066E;
},
{
glyphname = "dotlessbeh-ar.alt";
lastChange = "2015-08-17 17:16:49 +0000";
layers = (
{
background = {
paths = (
{
closed = 1;
nodes = (
"359 125 OFFCURVE",
"584 181 OFFCURVE",
"703 230 CURVE",
"641 23 LINE",
"613 22 LINE",
"631 76 LINE",
"512 16 OFFCURVE",
"332 -42 OFFCURVE",
"197 -42 CURVE SMOOTH",
"133 -42 OFFCURVE",
"72 -27 OFFCURVE",
"25 4 CURVE",
"25 73 OFFCURVE",
"46 133 OFFCURVE",
"72 176 CURVE SMOOTH",
"107 234 OFFCURVE",
"171 295 OFFCURVE",
"231 331 CURVE",
"249 246 LINE",
"194 218 OFFCURVE",
"133 172 OFFCURVE",
"93 132 CURVE",
"87 165 LINE",
"119 139 OFFCURVE",
"167 125 OFFCURVE",
"226 125 CURVE SMOOTH"
);
}
);
};
guideLines = (
{
angle = 6;
position = "{707, 22}";
},
{
angle = 69.6476;
position = "{759, 100}";
}
);
layerId = "FABFC9D4-E17A-4CB6-8F8E-4923CD579275";
name = Regular;
paths = (
{
closed = 1;
nodes = (
"694 199 LINE",
"638 15 LINE",
"609 19 LINE",
"619 69 LINE",
"510 15 OFFCURVE",
"331 -42 OFFCURVE",
"197 -42 CURVE SMOOTH",
"133 -42 OFFCURVE",
"72 -27 OFFCURVE",
"25 4 CURVE",
"25 73 OFFCURVE",
"46 133 OFFCURVE",
"72 176 CURVE SMOOTH",
"107 234 OFFCURVE",
"171 295 OFFCURVE",
"231 331 CURVE",
"249 246 LINE",
"194 218 OFFCURVE",
"133 172 OFFCURVE",
"93 132 CURVE",
"87 165 LINE",
"119 139 OFFCURVE",
"167 125 OFFCURVE",
"226 125 CURVE SMOOTH",
"351 125 OFFCURVE",
"557 174 OFFCURVE",
"680 221 CURVE"
);
}
);
width = 799;
}
);
},
{
glyphname = "dotlessbeh-ar.fina";
lastChange = "2015-08-17 16:12:47 +0000";
layers = (
{
background = {
paths = (
{
closed = 1;
nodes = (
"-86 245 LINE",
"-97 174 OFFCURVE",
"-115 108 OFFCURVE",
"-133 60 CURVE",
"-160 72 LINE",
"-155 84 OFFCURVE",
"-151 94 OFFCURVE",
"-147 106 CURVE",
"-224 29 OFFCURVE",
"-360 -29 OFFCURVE",
"-551 -29 CURVE SMOOTH",
"-649 -29 OFFCURVE",
"-735 -3 OFFCURVE",
"-784 50 CURVE",
"-769 125 OFFCURVE",
"-691 251 OFFCURVE",
"-599 322 CURVE",
"-584 238 LINE",
"-629 209 OFFCURVE",
"-670 173 OFFCURVE",
"-706 139 CURVE",
"-698 174 LINE",
"-654 153 OFFCURVE",
"-571 140 OFFCURVE",
"-491 140 CURVE SMOOTH",
"-351 140 OFFCURVE",
"-214 167 OFFCURVE",
"-114 245 CURVE"
);
},
{
closed = 1;
nodes = (
"1615 245 LINE",
"1604 174 OFFCURVE",
"1586 108 OFFCURVE",
"1568 60 CURVE",
"1541 72 LINE",
"1546 84 OFFCURVE",
"1554 110 OFFCURVE",
"1558 129 CURVE",
"1492 45 OFFCURVE",
"1341 -49 OFFCURVE",
"1150 -49 CURVE SMOOTH",
"1050 -49 OFFCURVE",
"964 -25 OFFCURVE",
"913 17 CURVE",
"938 159 OFFCURVE",
"1024 271 OFFCURVE",
"1131 323 CURVE",
"1128 228 LINE",
"1080 212 OFFCURVE",
"1027 168 OFFCURVE",
"1000 139 CURVE",
"1003 154 LINE",
"1047 133 OFFCURVE",
"1130 120 OFFCURVE",
"1210 120 CURVE SMOOTH",
"1350 120 OFFCURVE",
"1517 167 OFFCURVE",
"1587 245 CURVE"
);
},
{
closed = 1;
nodes = (
"1741 224 LINE",
"1682 72 LINE",
"1568 60 LINE",
"1595 209 LINE"
);
},
{
closed = 1;
nodes = (
"715 295 LINE",
"702 205 OFFCURVE",
"680 121 OFFCURVE",
"658 60 CURVE",
"631 72 LINE",
"634 84 OFFCURVE",
"642 110 OFFCURVE",
"648 136 CURVE",
"582 53 OFFCURVE",
"459 -38 OFFCURVE",
"243 -38 CURVE SMOOTH",
"143 -38 OFFCURVE",
"66 -20 OFFCURVE",
"13 10 CURVE",
"28 139 OFFCURVE",
"115 274 OFFCURVE",
"223 350 CURVE",
"240 264 LINE",
"187 227 OFFCURVE",
"126 170 OFFCURVE",
"95 129 CURVE",
"89 153 LINE",
"145 129 OFFCURVE",
"222 117 OFFCURVE",
"303 117 CURVE SMOOTH",
"463 117 OFFCURVE",
"615 186 OFFCURVE",
"687 295 CURVE"
);
},
{
closed = 1;
nodes = (
"831 224 LINE",
"772 72 LINE",
"658 60 LINE",
"685 209 LINE"
);
}
);
};
backgroundImage = {
crop = "{{0, 0}, {1080, 720}}";
imagePath = "../../Pictures/Photo Booth Library/Pictures/Photo on 11-08-2015 at 17.00.jpg";
locked = "1";
transform = "{-1.543, -0, 0, 1.543, 1487, -276}";
};
guideLines = (
{
angle = 6;
position = "{707, 22}";
},
{
angle = 69.6476;
position = "{759, 100}";
}
);
layerId = "FABFC9D4-E17A-4CB6-8F8E-4923CD579275";
name = Regular;
paths = (
{
closed = 1;
nodes = (
"359 125 OFFCURVE",
"584 181 OFFCURVE",
"703 230 CURVE",
"641 23 LINE",
"613 22 LINE",
"631 76 LINE",
"512 16 OFFCURVE",
"332 -42 OFFCURVE",
"197 -42 CURVE SMOOTH",
"133 -42 OFFCURVE",
"72 -27 OFFCURVE",
"25 4 CURVE",
"25 73 OFFCURVE",
"46 133 OFFCURVE",
"72 176 CURVE SMOOTH",
"107 234 OFFCURVE",
"171 295 OFFCURVE",
"231 331 CURVE",
"249 246 LINE",
"194 218 OFFCURVE",
"133 172 OFFCURVE",
"93 132 CURVE",
"87 165 LINE",
"119 139 OFFCURVE",
"167 125 OFFCURVE",
"226 125 CURVE SMOOTH"
);
},
{
closed = 1;
nodes = (
"765 175 LINE",
"708 22 LINE",
"600 11 LINE",
"653 164 LINE"
);
}
);
width = 799;
}
);
},
{
glyphname = "dotlessbeh-ar.medi";
lastChange = "2015-08-18 20:42:02 +0000";
layers = (
{
background = {
paths = (
{
closed = 1;
nodes = (
"-345 153 LINE",
"-274 153 OFFCURVE",
"-227 159 OFFCURVE",
"-175 174 CURVE",
"-199 153 LINE",
"-186 193 OFFCURVE",
"-178 226 OFFCURVE",
"-174 255 CURVE",
"-142 254 LINE",
"-153 164 OFFCURVE",
"-180 82 OFFCURVE",
"-217 30 CURVE",
"-259 15 OFFCURVE",
"-307 10 OFFCURVE",
"-400 10 CURVE"
);
},
{
closed = 1;
nodes = (
"-27 220 LINE",
"-83 77 LINE",
"-215 77 LINE",
"-159 220 LINE"
);
},
{
closed = 1;
nodes = (
"65 151 LINE",
"120 157 OFFCURVE",
"177 164 OFFCURVE",
"226 176 CURVE",
"201 153 LINE",
"211 185 OFFCURVE",
"222 234 OFFCURVE",
"228 263 CURVE",
"260 262 LINE",
"250 165 OFFCURVE",
"224 85 OFFCURVE",
"195 29 CURVE",
"142 16 OFFCURVE",
"78 6 OFFCURVE",
"7 -1 CURVE"
);
},
{
closed = 1;
nodes = (
"383 226 LINE",
"327 74 LINE",
"183 59 LINE",
"239 211 LINE"
);
}
);
};
guideLines = (
{
angle = 69.6476;
position = "{368, 100}";
},
{
angle = 6;
position = "{48, -34}";
}
);
layerId = "FABFC9D4-E17A-4CB6-8F8E-4923CD579275";
name = Regular;
paths = (
{
closed = 1;
nodes = (
"95 182 LINE",
"153 188 OFFCURVE",
"217 198 OFFCURVE",
"258 208 CURVE",
"246 162 OFFCURVE",
"228 103 OFFCURVE",
"205 59 CURVE",
"152 46 OFFCURVE",
"103 37 OFFCURVE",
"37 30 CURVE"
);
},
{
closed = 1;
nodes = (
"396 177 LINE",
"340 25 LINE",
"183 9 LINE",
"239 161 LINE"
);
},
{
closed = 1;
nodes = (
"236 153 LINE",
"246 185 OFFCURVE",
"260 235 OFFCURVE",
"267 264 CURVE",
"299 261 LINE",
"291 222 OFFCURVE",
"282 185 OFFCURVE",
"275 151 CURVE"
);
}
);
width = 413;
}
);
},
{
glyphname = "dotlessbeh-ar.init";
lastChange = "2015-07-30 15:00:36 +0000";
layers = (
{
background = {
paths = (
{
closed = 1;
nodes = (
"217 370 LINE",
"262 314 OFFCURVE",
"288 269 OFFCURVE",
"288 192 CURVE SMOOTH",
"288 115 OFFCURVE",
"225 4 OFFCURVE",
"59 6 CURVE SMOOTH",
"39 6 LINE",
"61 138 LINE",
"97 137 OFFCURVE",
"175 139 OFFCURVE",
"218 145 CURVE",
"203 123 LINE",
"189 175 OFFCURVE",
"161 215 OFFCURVE",
"116 267 CURVE"
);
},
{
closed = 1;
nodes = (
"-245 151 LINE",
"-182 153 OFFCURVE",
"-133 159 OFFCURVE",
"-75 172 CURVE",
"-99 151 LINE",
"-89 182 OFFCURVE",
"-80 216 OFFCURVE",
"-74 253 CURVE",
"-42 252 LINE",
"-51 178 OFFCURVE",
"-74 90 OFFCURVE",
"-117 28 CURVE",
"-177 15 OFFCURVE",
"-230 10 OFFCURVE",
"-300 8 CURVE"
);
}
);
};
guideLines = (
{
position = "{144, 123}";
},
{
angle = 80.6594;
position = "{56, 107}";
},
{
angle = 6;
position = "{282, 38}";
}
);
layerId = "FABFC9D4-E17A-4CB6-8F8E-4923CD579275";
name = Regular;
paths = (
{
closed = 1;
nodes = (
"65 151 LINE",
"120 157 OFFCURVE",
"177 164 OFFCURVE",
"226 176 CURVE",
"201 153 LINE",
"211 185 OFFCURVE",
"222 234 OFFCURVE",
"228 263 CURVE",
"260 262 LINE",
"250 165 OFFCURVE",
"224 85 OFFCURVE",
"195 29 CURVE",
"142 16 OFFCURVE",
"78 6 OFFCURVE",
"7 -1 CURVE"
);
}
);
width = 288;
}
);
},
{
glyphname = "hah-ar";
lastChange = "2015-10-22 15:55:38 +0000";
layers = (
{
background = {
paths = (
{
closed = 1;
nodes = (
"3265 362 OFFCURVE",
"3220 369 OFFCURVE",
"3177 369 CURVE SMOOTH",
"3151 369 OFFCURVE",
"3125 367 OFFCURVE",
"3100 361 CURVE SMOOTH",
"3049 349 OFFCURVE",
"2954 207 OFFCURVE",
"2954 149 CURVE SMOOTH",
"2954 111 OFFCURVE",
"2970 85 OFFCURVE",
"3015 61 CURVE",
"3136 197 LINE",
"3091 197 OFFCURVE",
"3050 228 OFFCURVE",
"3050 251 CURVE SMOOTH",
"3050 263 OFFCURVE",
"3130 255 OFFCURVE",
"3168 242 CURVE",
"3292 353 LINE"
);
},
{
closed = 1;
nodes = (
"3134 264 OFFCURVE",
"2925 11 OFFCURVE",
"2925 -150 CURVE SMOOTH",
"2925 -230 OFFCURVE",
"2974 -276 OFFCURVE",
"3081 -276 CURVE SMOOTH",
"3192 -276 OFFCURVE",
"3304 -243 OFFCURVE",
"3372 -130 CURVE",
"3347 -129 OFFCURVE",
"3284 -129 OFFCURVE",
"3185 -129 CURVE SMOOTH",
"3050 -129 OFFCURVE",
"2991 -92 OFFCURVE",
"2991 -49 CURVE SMOOTH",
"2991 29 OFFCURVE",
"3125 163 OFFCURVE",
"3216 223 CURVE",
"3319 362 LINE",
"3295 379 LINE"
);
},
{
closed = 1;
nodes = (
"2731 372 OFFCURVE",
"2599 372 OFFCURVE",
"2568 360 CURVE SMOOTH",
"2518 341 OFFCURVE",
"2424 197 OFFCURVE",
"2424 142 CURVE SMOOTH",
"2424 99 OFFCURVE",
"2465 64 OFFCURVE",
"2514 64 CURVE",
"2609 191 LINE",
"2553 191 OFFCURVE",
"2511 220 OFFCURVE",
"2511 240 CURVE SMOOTH",
"2511 255 OFFCURVE",
"2628 255 OFFCURVE",
"2661 239 CURVE",
"2788 358 LINE"
);
},
{
closed = 1;
nodes = (
"2573 219 OFFCURVE",
"2394 -15 OFFCURVE",
"2394 -139 CURVE SMOOTH",
"2394 -229 OFFCURVE",
"2459 -281 OFFCURVE",
"2570 -281 CURVE SMOOTH",
"2716 -281 OFFCURVE",
"2793 -219 OFFCURVE",
"2841 -124 CURVE",
"2743 -128 OFFCURVE",
"2720 -129 OFFCURVE",
"2682 -129 CURVE SMOOTH",
"2541 -129 OFFCURVE",
"2465 -103 OFFCURVE",
"2465 -54 CURVE SMOOTH",
"2465 15 OFFCURVE",
"2606 181 OFFCURVE",
"2812 360 CURVE",
"2791 380 LINE"
);
},
{
closed = 1;
nodes = (
"2268 382 OFFCURVE",
"2115 355 OFFCURVE",
"2080 329 CURVE SMOOTH",
"2044 302 OFFCURVE",
"1991 185 OFFCURVE",
"1991 139 CURVE SMOOTH",
"1991 101 OFFCURVE",
"2017 52 OFFCURVE",
"2038 41 CURVE",
"2150 155 LINE",
"2090 225 LINE",
"2080 207 LINE",
"2213 225 LINE",
"2208 238 LINE",
"2071 150 OFFCURVE",
"1918 -47 OFFCURVE",
"1918 -152 CURVE SMOOTH",
"1918 -240 OFFCURVE",
"1990 -301 OFFCURVE",
"2113 -301 CURVE SMOOTH",
"2240 -301 OFFCURVE",
"2327 -237 OFFCURVE",
"2372 -144 CURVE",
"2274 -148 OFFCURVE",
"2249 -149 OFFCURVE",
"2223 -149 CURVE SMOOTH",
"2073 -149 OFFCURVE",
"1989 -116 OFFCURVE",
"1989 -67 CURVE SMOOTH",
"1989 -1 OFFCURVE",
"2142 168 OFFCURVE",
"2280 227 CURVE",
"2361 355 LINE",
"2345 377 LINE"
);
},
{
closed = 1;
nodes = (
"1740 366 OFFCURVE",
"1708 370 OFFCURVE",
"1656 370 CURVE SMOOTH",
"1593 370 OFFCURVE",
"1507 364 OFFCURVE",
"1470 341 CURVE SMOOTH",
"1430 316 OFFCURVE",
"1356 211 OFFCURVE",
"1356 145 CURVE SMOOTH",
"1356 103 OFFCURVE",
"1387 40 OFFCURVE",
"1420 24 CURVE",
"1534 132 LINE",
"1489 146 OFFCURVE",
"1441 203 OFFCURVE",
"1441 245 CURVE SMOOTH",
"1441 259 LINE",
"1430 205 LINE",
"1457 216 OFFCURVE",
"1491 223 OFFCURVE",
"1542 223 CURVE SMOOTH",
"1575 223 OFFCURVE",
"1622 220 OFFCURVE",
"1659 214 CURVE",
"1648 273 LINE",
"1466 158 OFFCURVE",
"1278 -63 OFFCURVE",
"1278 -208 CURVE SMOOTH",
"1278 -307 OFFCURVE",
"1365 -355 OFFCURVE",
"1477 -355 CURVE SMOOTH",
"1610 -355 OFFCURVE",
"1717 -288 OFFCURVE",
"1752 -224 CURVE",
"1737 -225 OFFCURVE",
"1720 -225 OFFCURVE",
"1704 -225 CURVE SMOOTH",
"1592 -225 OFFCURVE",
"1370 -183 OFFCURVE",
"1370 -93 CURVE SMOOTH",
"1370 -15 OFFCURVE",
"1534 148 OFFCURVE",
"1685 207 CURVE",
"1765 360 LINE"
);
},
{
closed = 1;
nodes = (
"1029 367 OFFCURVE",
"969 380 OFFCURVE",
"897 380 CURVE SMOOTH",
"848 380 OFFCURVE",
"792 361 OFFCURVE",
"770 336 CURVE SMOOTH",
"731 303 OFFCURVE",
"662 191 OFFCURVE",
"662 130 CURVE SMOOTH",
"662 89 OFFCURVE",
"697 35 OFFCURVE",
"738 24 CURVE",
"863 145 LINE",
"796 154 OFFCURVE",
"734 218 OFFCURVE",
"734 264 CURVE",
"712 205 LINE",
"747 231 OFFCURVE",
"783 246 OFFCURVE",
"842 246 CURVE SMOOTH",
"876 246 OFFCURVE",
"925 238 OFFCURVE",
"963 221 CURVE",
"1007 293 LINE",
"791 189 OFFCURVE",
"578 -50 OFFCURVE",
"578 -208 CURVE SMOOTH",
"578 -307 OFFCURVE",
"665 -355 OFFCURVE",
"777 -355 CURVE SMOOTH",
"910 -355 OFFCURVE",
"1017 -288 OFFCURVE",
"1052 -224 CURVE",
"1037 -225 OFFCURVE",
"1020 -225 OFFCURVE",
"1004 -225 CURVE SMOOTH",
"839 -225 OFFCURVE",
"663 -176 OFFCURVE",
"663 -91 CURVE SMOOTH",
"663 -22 OFFCURVE",
"898 159 OFFCURVE",
"989 196 CURVE",
"1069 348 LINE"
);
},
{
closed = 1;
nodes = (
"426 355 OFFCURVE",
"376 370 OFFCURVE",
"297 370 CURVE SMOOTH",
"248 370 OFFCURVE",
"192 355 OFFCURVE",
"170 336 CURVE SMOOTH",
"131 303 OFFCURVE",
"62 191 OFFCURVE",
"62 130 CURVE SMOOTH",
"62 89 OFFCURVE",
"97 35 OFFCURVE",
"138 24 CURVE",
"263 145 LINE",
"196 154 OFFCURVE",
"134 218 OFFCURVE",
"134 264 CURVE",
"112 205 LINE",
"147 225 OFFCURVE",
"183 236 OFFCURVE",
"242 236 CURVE SMOOTH",
"275 236 OFFCURVE",
"322 226 OFFCURVE",
"359 206 CURVE",
"403 278 LINE",
"189 177 OFFCURVE",
"-22 -55 OFFCURVE",
"-22 -208 CURVE SMOOTH",
"-22 -307 OFFCURVE",
"65 -355 OFFCURVE",
"177 -355 CURVE SMOOTH",
"310 -355 OFFCURVE",
"417 -288 OFFCURVE",
"452 -224 CURVE",
"437 -225 OFFCURVE",
"420 -225 OFFCURVE",
"404 -225 CURVE SMOOTH",
"239 -225 OFFCURVE",
"63 -176 OFFCURVE",
"63 -91 CURVE SMOOTH",
"63 -26 OFFCURVE",
"295 146 OFFCURVE",
"385 181 CURVE",
"465 333 LINE"
);
}
);
};
backgroundImage = {
crop = "{{0, 0}, {960, 1280}}";
imagePath = ../../../../var/folders/xp/9k2g5rln0g3214w24ld01r0h0000gn/T/com.apple.iChat/Messages/Transfers/IMG_0066.JPG.jpeg;
locked = "1";
transform = "{1.060, 0, 0, 1.060, -289, -445}";
};
layerId = "FABFC9D4-E17A-4CB6-8F8E-4923CD579275";
name = Regular;
paths = (
{
closed = 1;
nodes = (
"423 351 OFFCURVE",
"362 370 OFFCURVE",
"300 370 CURVE SMOOTH",
"251 370 OFFCURVE",
"198 358 OFFCURVE",
"170 336 CURVE SMOOTH",
"135 309 OFFCURVE",
"62 198 OFFCURVE",
"62 137 CURVE SMOOTH",
"62 95 OFFCURVE",
"97 41 OFFCURVE",
"138 30 CURVE",
"263 151 LINE",
"196 160 OFFCURVE",
"134 220 OFFCURVE",
"134 264 CURVE",
"112 208 LINE",
"147 227 OFFCURVE",
"183 236 OFFCURVE",
"226 236 CURVE SMOOTH",
"275 236 OFFCURVE",
"320 224 OFFCURVE",
"359 195 CURVE",
"403 264 LINE",
"193 168 OFFCURVE",
"-22 -56 OFFCURVE",
"-22 -209 CURVE SMOOTH",
"-22 -306 OFFCURVE",
"64 -355 OFFCURVE",
"177 -355 CURVE SMOOTH",
"310 -355 OFFCURVE",
"417 -288 OFFCURVE",
"452 -224 CURVE",
"437 -225 OFFCURVE",
"420 -225 OFFCURVE",
"404 -225 CURVE SMOOTH",
"231 -225 OFFCURVE",
"63 -168 OFFCURVE",
"63 -100 CURVE SMOOTH",
"63 -21 OFFCURVE",
"295 132 OFFCURVE",
"385 167 CURVE",
"465 319 LINE"
);
}
);
width = 482;
}
);
unicode = 062D;
},
{
glyphname = "hah-ar.fina";
lastChange = "2015-10-22 17:13:12 +0000";
layers = (
{
anchors = (
{
name = entry;
position = "{420, 394}";
}
);
background = {
paths = (
{
closed = 1;
nodes = (
"966 281 LINE",
"905 308 OFFCURVE",
"828 330 OFFCURVE",
"753 336 CURVE",
"757 327 LINE",
"831 340 OFFCURVE",
"914 348 OFFCURVE",
"1005 358 CURVE",
"1062 510 LINE",
"950 498 OFFCURVE",
"849 476 OFFCURVE",
"765 439 CURVE",
"724 373 OFFCURVE",
"691 289 OFFCURVE",
"668 211 CURVE",
"709 205 OFFCURVE",
"760 192 OFFCURVE",
"800 180 CURVE",
"695 67 OFFCURVE",
"620 -61 OFFCURVE",
"620 -139 CURVE SMOOTH",
"620 -229 OFFCURVE",
"685 -281 OFFCURVE",
"796 -281 CURVE SMOOTH",
"942 -281 OFFCURVE",
"1019 -219 OFFCURVE",
"1067 -124 CURVE",
"969 -128 OFFCURVE",
"946 -129 OFFCURVE",
"908 -129 CURVE SMOOTH",
"767 -129 OFFCURVE",
"691 -103 OFFCURVE",
"691 -54 CURVE SMOOTH",
"691 4 OFFCURVE",
"802 140 OFFCURVE",
"967 261 CURVE"
);
},
{
closed = 1;
nodes = (
"423 351 OFFCURVE",
"362 370 OFFCURVE",
"300 370 CURVE SMOOTH",
"251 370 OFFCURVE",
"198 358 OFFCURVE",
"170 336 CURVE SMOOTH",
"135 309 OFFCURVE",
"62 198 OFFCURVE",
"62 137 CURVE SMOOTH",
"62 95 OFFCURVE",
"97 41 OFFCURVE",
"138 30 CURVE",
"263 151 LINE",
"196 160 OFFCURVE",
"134 220 OFFCURVE",
"134 264 CURVE",
"112 208 LINE",
"147 227 OFFCURVE",
"183 236 OFFCURVE",
"226 236 CURVE SMOOTH",
"275 236 OFFCURVE",
"320 224 OFFCURVE",
"359 195 CURVE",
"403 264 LINE",
"193 168 OFFCURVE",
"-22 -56 OFFCURVE",
"-22 -209 CURVE SMOOTH",
"-22 -306 OFFCURVE",
"64 -355 OFFCURVE",
"177 -355 CURVE SMOOTH",
"310 -355 OFFCURVE",
"417 -288 OFFCURVE",
"452 -224 CURVE",
"437 -225 OFFCURVE",
"420 -225 OFFCURVE",
"404 -225 CURVE SMOOTH",
"231 -225 OFFCURVE",
"63 -168 OFFCURVE",
"63 -100 CURVE SMOOTH",
"63 -21 OFFCURVE",
"295 132 OFFCURVE",
"385 167 CURVE",
"465 319 LINE"
);
}
);
};
guideLines = (
{
angle = 6;
position = "{385, 356}";
}
);
layerId = "FABFC9D4-E17A-4CB6-8F8E-4923CD579275";
name = Regular;
paths = (
{
closed = 1;
nodes = (
"159 146 OFFCURVE",
"-22 -74 OFFCURVE",
"-22 -208 CURVE SMOOTH",
"-22 -307 OFFCURVE",
"65 -355 OFFCURVE",
"177 -355 CURVE SMOOTH",
"310 -355 OFFCURVE",
"417 -288 OFFCURVE",
"452 -224 CURVE",
"437 -225 OFFCURVE",
"420 -225 OFFCURVE",
"404 -225 CURVE SMOOTH",
"239 -225 OFFCURVE",
"63 -176 OFFCURVE",
"63 -91 CURVE SMOOTH",
"63 -34 OFFCURVE",
"220 91 OFFCURVE",
"345 140 CURVE",
"390 277 LINE",
"312 293 OFFCURVE",
"235 301 OFFCURVE",
"153 305 CURVE",
"157 296 LINE",
"231 309 OFFCURVE",
"314 317 OFFCURVE",
"405 327 CURVE",
"462 479 LINE",
"350 467 OFFCURVE",
"249 445 OFFCURVE",
"165 408 CURVE",
"124 342 OFFCURVE",
"91 258 OFFCURVE",
"68 180 CURVE",
"153 174 OFFCURVE",
"225 165 OFFCURVE",
"321 147 CURVE",
"363 247 LINE"
);
}
);
width = 477;
}
);
unicode = FEA2;
},
{
glyphname = "hah-ar.medi";
lastChange = "2015-10-22 15:56:10 +0000";
layers = (
{
anchors = (
{
name = entry;
position = "{399, 464}";
},
{
name = exit;
position = "{45, 98}";
}
);
background = {
paths = (
{
closed = 1;
nodes = (
"117 -32 OFFCURVE",
"234 7 OFFCURVE",
"278 51 CURVE",
"309 95 OFFCURVE",
"340 188 OFFCURVE",
"340 248 CURVE SMOOTH",
"340 268 OFFCURVE",
"238 331 OFFCURVE",
"184 354 CURVE",
"190 334 LINE",
"256 363 OFFCURVE",
"329 386 OFFCURVE",
"390 391 CURVE",
"447 544 LINE",
"287 527 OFFCURVE",
"133 363 OFFCURVE",
"63 229 CURVE",
"128 204 OFFCURVE",
"230 155 OFFCURVE",
"270 131 CURVE",
"274 150 LINE",
"222 126 OFFCURVE",
"142 116 OFFCURVE",
"56 109 CURVE",
"0 -43 LINE"
);
}
);
};
guideLines = (
{
angle = 69.6476;
position = "{40, 65}";
},
{
angle = 6;
position = "{111, 186}";
}
);
layerId = "FABFC9D4-E17A-4CB6-8F8E-4923CD579275";
name = Regular;
paths = (
{
closed = 1;
nodes = (
"161 42 OFFCURVE",
"262 85 OFFCURVE",
"304 119 CURVE",
"335 163 OFFCURVE",
"366 266 OFFCURVE",
"366 330 CURVE",
"344 348 OFFCURVE",
"204 378 OFFCURVE",
"114 376 CURVE",
"116 362 LINE",
"196 378 OFFCURVE",
"293 390 OFFCURVE",
"390 398 CURVE",
"447 550 LINE",
"341 540 OFFCURVE",
"234 516 OFFCURVE",
"150 479 CURVE",
"109 413 OFFCURVE",
"76 329 OFFCURVE",
"53 251 CURVE",
"132 245 OFFCURVE",
"254 228 OFFCURVE",
"296 218 CURVE",
"300 223 LINE",
"250 208 OFFCURVE",
"193 193 OFFCURVE",
"66 181 CURVE",
"10 29 LINE"
);
}
);
width = 457;
}
);
unicode = FEA4;
},
{
glyphname = "hah-ar.init";
lastChange = "2015-09-01 16:48:49 +0000";
layers = (
{
anchors = (
{
name = exit;
position = "{46, 75}";
}
);
background = {
anchors = (
{
name = exit;
position = "{-95, 66}";
}
);
paths = (
{
closed = 1;
nodes = (
"-107 -1 LINE",
"-85 131 LINE",
"447 136 LINE",
"399 7 LINE"
);
},
{
closed = 1;
nodes = (
"378 10 LINE",
"347 10 OFFCURVE",
"298 136 OFFCURVE",
"284 177 CURVE SMOOTH",
"259 246 OFFCURVE",
"235 265 OFFCURVE",
"190 265 CURVE SMOOTH",
"132 265 OFFCURVE",
"93 207 OFFCURVE",
"51 115 CURVE",
"24 107 LINE",
"81 275 OFFCURVE",
"186 352 OFFCURVE",
"263 352 CURVE SMOOTH",
"341 352 OFFCURVE",
"364 313 OFFCURVE",
"383 249 CURVE SMOOTH",
"404 178 OFFCURVE",
"419 147 OFFCURVE",
"447 136 CURVE"
);
}
);
};
guideLines = (
{
angle = 69.6476;
position = "{226, 100}";
},
{
angle = 6;
position = "{41, 9}";
}
);
layerId = "FABFC9D4-E17A-4CB6-8F8E-4923CD579275";
name = Regular;
paths = (
{
closed = 1;
nodes = (
"499 203 LINE",
"443 51 LINE",
"10 6 LINE",
"66 158 LINE"
);
},
{
closed = 1;
nodes = (
"357 192 OFFCURVE",
"365 223 OFFCURVE",
"368 247 CURVE",
"361 249 OFFCURVE",
"342 252 OFFCURVE",
"332 252 CURVE SMOOTH",
"263 252 OFFCURVE",
"200 217 OFFCURVE",
"170 141 CURVE SMOOTH",
"146 80 OFFCURVE",
"128 -17 OFFCURVE",
"115 -135 CURVE",
"86 -130 LINE",
"96 -28 OFFCURVE",
"103 42 OFFCURVE",
"121 112 CURVE SMOOTH",
"175 322 OFFCURVE",
"286 411 OFFCURVE",
"398 411 CURVE SMOOTH",
"430 411 OFFCURVE",
"460 402 OFFCURVE",
"474 391 CURVE",
"473 320 OFFCURVE",
"443 220 OFFCURVE",
"412 149 CURVE",
"344 148 LINE"
);
}
);
width = 519;
}
);
unicode = FEA3;
},
{
glyphname = "hah-ar.init.001";
lastChange = "2015-10-22 16:35:02 +0000";
layers = (
{
anchors = (
{
name = exit;
position = "{49, 76}";
}
);
background = {
paths = (
{
closed = 1;
nodes = (
"499 203 LINE",
"443 51 LINE",
"10 6 LINE",
"66 158 LINE"
);
},
{
closed = 1;
nodes = (
"357 192 OFFCURVE",
"365 223 OFFCURVE",
"368 247 CURVE",
"361 249 OFFCURVE",
"342 252 OFFCURVE",
"332 252 CURVE SMOOTH",
"263 252 OFFCURVE",
"200 217 OFFCURVE",
"170 141 CURVE SMOOTH",
"146 80 OFFCURVE",
"128 -17 OFFCURVE",
"115 -135 CURVE",
"86 -130 LINE",
"96 -28 OFFCURVE",
"103 42 OFFCURVE",
"121 112 CURVE SMOOTH",
"175 322 OFFCURVE",
"286 411 OFFCURVE",
"398 411 CURVE SMOOTH",
"430 411 OFFCURVE",
"460 402 OFFCURVE",
"474 391 CURVE",
"473 320 OFFCURVE",
"443 220 OFFCURVE",
"412 149 CURVE",
"344 148 LINE"
);
}
);
};
guideLines = (
{
angle = 69.6476;
position = "{226, 100}";
},
{
angle = 6;
position = "{41, 9}";
}
);
layerId = "FABFC9D4-E17A-4CB6-8F8E-4923CD579275";
name = Regular;
paths = (
{
closed = 1;
nodes = (
"10 6 LINE",
"66 158 LINE",
"141 166 LINE SMOOTH",
"285 180 OFFCURVE",
"397 208 OFFCURVE",
"446 243 CURVE",
"451 210 LINE",
"407 248 OFFCURVE",
"346 263 OFFCURVE",
"280 263 CURVE SMOOTH",
"245 263 OFFCURVE",
"221 254 OFFCURVE",
"186 235 CURVE",
"208 297 LINE",
"208 260 OFFCURVE",
"250 211 OFFCURVE",
"339 198 CURVE",
"222 81 LINE",
"171 92 OFFCURVE",
"146 128 OFFCURVE",
"146 188 CURVE SMOOTH",
"146 242 OFFCURVE",
"205 339 OFFCURVE",
"234 363 CURVE SMOOTH",
"264 385 OFFCURVE",
"315 397 OFFCURVE",
"364 397 CURVE SMOOTH",
"428 397 OFFCURVE",
"494 380 OFFCURVE",
"533 352 CURVE",
"511 196 OFFCURVE",
"384 45 OFFCURVE",
"205 27 CURVE SMOOTH"
);
}
);
width = 519;
}
);
},
{
glyphname = "dal-ar";
lastChange = "2015-08-17 17:05:17 +0000";
layers = (
{
layerId = "FABFC9D4-E17A-4CB6-8F8E-4923CD579275";
name = Regular;
paths = (
{
closed = 1;
nodes = (
"336 180 OFFCURVE",
"297 250 OFFCURVE",
"243 320 CURVE",
"384 417 LINE",
"425 335 OFFCURVE",
"449 256 OFFCURVE",
"442 174 CURVE SMOOTH",
"442 149 OFFCURVE",
"411 72 OFFCURVE",
"365 21 CURVE",
"281 -1 OFFCURVE",
"181 -14 OFFCURVE",
"89 -16 CURVE",
"144 137 LINE",
"224 137 OFFCURVE",
"305 140 OFFCURVE",
"385 146 CURVE",
"357 110 LINE"
);
}
);
width = 600;
}
);
unicode = 062F;
},
{
glyphname = "dal-ar.fina";
lastChange = "2015-08-29 12:34:56 +0000";
layers = (
{
anchors = (
{
name = entry;
position = "{574, 85}";
}
);
background = {
paths = (
{
closed = 1;
nodes = (
"-85 236 LINE",
"-55 232 LINE",
"-76 107 OFFCURVE",
"-186 -5 OFFCURVE",
"-275 -10 CURVE SMOOTH",
"-345 -14 OFFCURVE",
"-450 48 OFFCURVE",
"-490 111 CURVE",
"-362 124 OFFCURVE",
"-185 154 OFFCURVE",
"-106 178 CURVE"
);
},
{
closed = 1;
nodes = (
"427 218 LINE",
"389 93 OFFCURVE",
"296 -6 OFFCURVE",
"225 -10 CURVE SMOOTH",
"155 -14 OFFCURVE",
"50 48 OFFCURVE",
"10 111 CURVE",
"138 127 OFFCURVE",
"314 169 OFFCURVE",
"405 232 CURVE"
);
},
{
closed = 1;
nodes = (
"405 232 LINE",
"528 303 LINE",
"523 161 LINE",
"607 170 LINE",
"551 18 LINE",
"391 1 LINE"
);
}
);
};
guideLines = (
{
angle = 69.6476;
position = "{448, 43}";
},
{
angle = 6;
position = "{117, -28}";
}
);
layerId = "FABFC9D4-E17A-4CB6-8F8E-4923CD579275";
name = Regular;
paths = (
{
closed = 1;
nodes = (
"170 129 OFFCURVE",
"364 226 OFFCURVE",
"528 331 CURVE",
"523 161 LINE",
"607 170 LINE",
"551 18 LINE",
"391 1 LINE",
"404 255 LINE",
"416 247 LINE",
"374 104 OFFCURVE",
"299 -3 OFFCURVE",
"225 -10 CURVE SMOOTH",
"165 -16 OFFCURVE",
"54 41 OFFCURVE",
"20 77 CURVE"
);
}
);
width = 680;
}
);
unicode = FEAA;
},
{
glyphname = "reh-ar";
lastChange = "2015-10-22 19:41:37 +0000";
layers = (
{
background = {
paths = (
{
closed = 1;
nodes = (
"855 73 LINE",
"837 73 LINE SMOOTH",
"794 73 OFFCURVE",
"766 86 OFFCURVE",
"766 110 CURVE SMOOTH",
"766 153 OFFCURVE",
"848 257 OFFCURVE",
"897 257 CURVE SMOOTH",
"933 257 OFFCURVE",
"959 187 OFFCURVE",
"945 104 CURVE SMOOTH",
"924 -21 OFFCURVE",
"814 -133 OFFCURVE",
"725 -138 CURVE SMOOTH",
"655 -142 OFFCURVE",
"550 -80 OFFCURVE",
"510 -17 CURVE",
"626 -5 OFFCURVE",
"787 21 OFFCURVE",
"859 45 CURVE"
);
},
{
closed = 1;
nodes = (
"415 108 LINE",
"445 104 LINE",
"424 -21 OFFCURVE",
"314 -133 OFFCURVE",
"225 -138 CURVE SMOOTH",
"155 -142 OFFCURVE",
"50 -80 OFFCURVE",
"10 -17 CURVE",
"138 -4 OFFCURVE",
"315 26 OFFCURVE",
"394 50 CURVE"
);
}
);
};
layerId = "FABFC9D4-E17A-4CB6-8F8E-4923CD579275";
name = Regular;
paths = (
{
closed = 1;
nodes = (
"389 143 LINE",
"420 144 LINE",
"420 16 OFFCURVE",
"336 -139 OFFCURVE",
"209 -139 CURVE SMOOTH",
"147 -139 OFFCURVE",
"56 -101 OFFCURVE",
"16 -57 CURVE",
"139 -20 OFFCURVE",
"307 43 OFFCURVE",
"380 82 CURVE"
);
}
);
width = 465;
}
);
unicode = 0631;
},
{
glyphname = "reh-ar.fina";
lastChange = "2015-10-22 19:42:56 +0000";
layers = (
{
anchors = (
{
name = entry;
position = "{525, 124}";
}
);
components = (
{
name = "reh-ar";
}
);
layerId = "FABFC9D4-E17A-4CB6-8F8E-4923CD579275";
name = Regular;
paths = (
{
closed = 1;
nodes = (
"566 208 LINE",
"510 56 LINE",
"353 40 LINE",
"409 192 LINE"
);
}
);
width = 600;
}
);
unicode = FEAE;
},
{
glyphname = "seen-ar";
lastChange = "2015-09-21 14:11:44 +0000";
layers = (
{
background = {
paths = (
{
closed = 1;
nodes = (
"1054 199 LINE",
"998 15 LINE",
"969 19 LINE",
"979 69 LINE",
"870 15 OFFCURVE",
"691 -42 OFFCURVE",
"557 -42 CURVE SMOOTH",
"493 -42 OFFCURVE",
"432 -27 OFFCURVE",
"385 4 CURVE",
"385 73 OFFCURVE",
"406 133 OFFCURVE",
"432 176 CURVE SMOOTH",
"467 234 OFFCURVE",
"531 295 OFFCURVE",
"591 331 CURVE",
"609 246 LINE",
"554 218 OFFCURVE",
"493 172 OFFCURVE",
"453 132 CURVE",
"447 165 LINE",
"479 139 OFFCURVE",
"527 125 OFFCURVE",
"586 125 CURVE SMOOTH",
"711 125 OFFCURVE",
"917 174 OFFCURVE",
"1040 221 CURVE"
);
},
{
closed = 1;
nodes = (
"404 189 LINE",
"443 135 OFFCURVE",
"505 104 OFFCURVE",
"591 104 CURVE SMOOTH",
"690 104 OFFCURVE",
"772 129 OFFCURVE",
"772 149 CURVE SMOOTH",
"772 160 OFFCURVE",
"746 170 OFFCURVE",
"704 170 CURVE SMOOTH",
"650 170 OFFCURVE",
"599 154 OFFCURVE",
"571 135 CURVE",
"501 -110 LINE",
"469 -110 LINE",
"511 61 OFFCURVE",
"551 198 OFFCURVE",
"586 245 CURVE SMOOTH",
"627 299 OFFCURVE",
"685 322 OFFCURVE",
"740 322 CURVE SMOOTH",
"797 322 OFFCURVE",
"826 297 OFFCURVE",
"826 228 CURVE SMOOTH",
"826 156 OFFCURVE",
"796 59 OFFCURVE",
"752 17 CURVE SMOOTH",
"718 -16 OFFCURVE",
"655 -45 OFFCURVE",
"558 -45 CURVE SMOOTH",
"470 -45 OFFCURVE",
"396 -6 OFFCURVE",
"348 43 CURVE"
);
},
{
closed = 1;
nodes = (
"478 30 OFFCURVE",
"456 -44 OFFCURVE",
"424 -109 CURVE SMOOTH",
"395 -170 OFFCURVE",
"307 -254 OFFCURVE",
"203 -254 CURVE SMOOTH",
"108 -254 OFFCURVE",
"36 -197 OFFCURVE",
"30 -109 CURVE",
"54 -15 OFFCURVE",
"98 69 OFFCURVE",
"165 161 CURVE",
"197 84 LINE",
"160 50 OFFCURVE",
"126 10 OFFCURVE",
"90 -46 CURVE",
"97 -15 LINE",
"136 -67 OFFCURVE",
"178 -96 OFFCURVE",
"256 -96 CURVE SMOOTH",
"314 -96 OFFCURVE",
"371 -73 OFFCURVE",
"407 -27 CURVE",
"348 43 LINE",
"478 64 LINE"
);
}
);
};
guideLines = (
{
position = "{941, 222}";
}
);
layerId = "FABFC9D4-E17A-4CB6-8F8E-4923CD579275";
name = Regular;
paths = (
{
closed = 1;
nodes = (
"478 133 OFFCURVE",
"456 59 OFFCURVE",
"424 -6 CURVE SMOOTH",
"395 -67 OFFCURVE",
"307 -151 OFFCURVE",
"203 -151 CURVE SMOOTH",
"108 -151 OFFCURVE",
"36 -94 OFFCURVE",
"30 -6 CURVE",
"54 88 OFFCURVE",
"98 172 OFFCURVE",
"165 264 CURVE",
"197 187 LINE",
"160 153 OFFCURVE",
"126 113 OFFCURVE",
"90 57 CURVE",
"97 88 LINE",
"136 36 OFFCURVE",
"178 7 OFFCURVE",
"256 7 CURVE SMOOTH",
"314 7 OFFCURVE",
"371 30 OFFCURVE",
"407 76 CURVE",
"348 146 LINE",
"478 167 LINE"
);
},
{
closed = 1;
nodes = (
"429 73 OFFCURVE",
"385 98 OFFCURVE",
"348 146 CURVE",
"403 295 LINE",
"430 248 OFFCURVE",
"463 235 OFFCURVE",
"536 235 CURVE SMOOTH",
"622 235 OFFCURVE",
"723 256 OFFCURVE",
"846 313 CURVE",
"860 293 LINE",
"804 129 LINE",
"775 133 LINE",
"785 183 LINE",
"676 103 OFFCURVE",
"586 73 OFFCURVE",
"507 73 CURVE SMOOTH"
);
}
);
width = 960;
}
);
unicode = 0633;
},
{
glyphname = "seen-ar.001";
lastChange = "2015-09-21 15:18:26 +0000";
layers = (
{
background = {
paths = (
{
closed = 1;
nodes = (
"495 133 OFFCURVE",
"473 59 OFFCURVE",
"441 -6 CURVE SMOOTH",
"412 -67 OFFCURVE",
"324 -151 OFFCURVE",
"220 -151 CURVE SMOOTH",
"125 -151 OFFCURVE",
"53 -94 OFFCURVE",
"47 -6 CURVE",
"71 88 OFFCURVE",
"115 172 OFFCURVE",
"182 264 CURVE",
"214 187 LINE",
"177 153 OFFCURVE",
"143 113 OFFCURVE",
"107 57 CURVE",
"114 88 LINE",
"153 36 OFFCURVE",
"195 7 OFFCURVE",
"273 7 CURVE SMOOTH",
"331 7 OFFCURVE",
"388 30 OFFCURVE",
"424 76 CURVE",
"365 146 LINE",
"495 167 LINE"
);
},
{
closed = 1;
nodes = (
"446 73 OFFCURVE",
"402 98 OFFCURVE",
"365 146 CURVE",
"420 295 LINE",
"447 248 OFFCURVE",
"480 235 OFFCURVE",
"553 235 CURVE SMOOTH",
"639 235 OFFCURVE",
"740 256 OFFCURVE",
"863 313 CURVE",
"877 293 LINE",
"821 129 LINE",
"792 133 LINE",
"802 183 LINE",
"693 103 OFFCURVE",
"603 73 OFFCURVE",
"524 73 CURVE SMOOTH"
);
}
);
};
guideLines = (
{
position = "{958, 222}";
}
);
layerId = "FABFC9D4-E17A-4CB6-8F8E-4923CD579275";
name = Regular;
paths = (
{
closed = 1;
nodes = (
"311 -61 LINE",
"307 -63 OFFCURVE",
"296 -66 OFFCURVE",
"283 -66 CURVE SMOOTH",
"185 -66 OFFCURVE",
"210 93 OFFCURVE",
"137 93 CURVE SMOOTH",
"123 93 OFFCURVE",
"107 87 OFFCURVE",
"96 79 CURVE",
"76 35 OFFCURVE",
"60 -9 OFFCURVE",
"45 -53 CURVE",
"20 -45 LINE",
"40 38 OFFCURVE",
"64 114 OFFCURVE",
"92 194 CURVE",
"119 226 OFFCURVE",
"151 243 OFFCURVE",
"179 243 CURVE SMOOTH",
"265 243 OFFCURVE",
"252 75 OFFCURVE",
"327 75 CURVE",
"394 224 LINE",
"426 227 LINE"
);
},
{
closed = 1;
nodes = (
"426 227 LINE",
"531 238 OFFCURVE",
"646 261 OFFCURVE",
"768 300 CURVE",
"782 280 LINE",
"726 116 LINE",
"697 120 LINE",
"707 170 LINE",
"613 126 OFFCURVE",
"488 87 OFFCURVE",
"361 75 CURVE"
);
}
);
width = 812;
}
);
},
{
glyphname = "seen-ar.fina";
lastChange = "2015-09-21 15:28:10 +0000";
layers = (
{
anchors = (
{
name = entry;
position = "{918, 153}";
}
);
components = (
{
name = "seen-ar";
}
);
guideLines = (
{
angle = 6;
position = "{610, 26}";
}
);
layerId = "FABFC9D4-E17A-4CB6-8F8E-4923CD579275";
name = Regular;
paths = (
{
closed = 1;
nodes = (
"958 237 LINE",
"902 85 LINE",
"745 69 LINE",
"801 221 LINE"
);
}
);
width = 960;
}
);
unicode = FEB2;
},
{
glyphname = "seen-ar.medi";
lastChange = "2015-09-21 15:23:27 +0000";
layers = (
{
anchors = (
{
name = entry;
position = "{509, 120}";
},
{
name = exit;
position = "{145, 83}";
}
);
guideLines = (
{
angle = 6;
position = "{177, 20}";
}
);
layerId = "FABFC9D4-E17A-4CB6-8F8E-4923CD579275";
name = Regular;
paths = (
{
closed = 1;
nodes = (
"549 205 LINE",
"493 53 LINE",
"106 13 LINE",
"162 165 LINE"
);
}
);
width = 600;
}
);
unicode = FEB4;
},
{
glyphname = "seen-ar.init";
lastChange = "2015-09-21 14:16:02 +0000";
layers = (
{
anchors = (
{
name = exit;
position = "{53, 88}";
}
);
background = {
paths = (
{
closed = 1;
nodes = (
"73 170 LINE",
"183 181 OFFCURVE",
"327 204 OFFCURVE",
"449 233 CURVE",
"463 213 LINE",
"407 49 LINE",
"378 53 LINE",
"388 103 LINE",
"294 68 OFFCURVE",
"122 29 OFFCURVE",
"12 18 CURVE"
);
}
);
};
guideLines = (
{
angle = 69.6476;
position = "{-85, 116}";
},
{
angle = 6;
position = "{12, 13}";
}
);
layerId = "FABFC9D4-E17A-4CB6-8F8E-4923CD579275";
name = Regular;
paths = (
{
closed = 1;
nodes = (
"73 170 LINE",
"178 181 OFFCURVE",
"293 204 OFFCURVE",
"415 243 CURVE",
"429 223 LINE",
"373 59 LINE",
"344 63 LINE",
"354 113 LINE",
"260 69 OFFCURVE",
"135 30 OFFCURVE",
"12 18 CURVE"
);
}
);
width = 600;
}
);
unicode = FEB3;
},
{
glyphname = "sad-ar";
lastChange = "2015-08-18 20:36:18 +0000";
layers = (
{
background = {
paths = (
{
closed = 1;
nodes = (
"-395 52 OFFCURVE",
"-440 65 OFFCURVE",
"-477 85 CURVE",
"-438 230 LINE",
"-415 213 OFFCURVE",
"-380 203 OFFCURVE",
"-344 204 CURVE SMOOTH",
"-202 208 OFFCURVE",
"-123 233 OFFCURVE",
"-123 252 CURVE SMOOTH",
"-123 263 OFFCURVE",
"-147 273 OFFCURVE",
"-195 273 CURVE SMOOTH",
"-243 273 OFFCURVE",
"-296 257 OFFCURVE",
"-324 238 CURVE",
"-385 67 LINE",
"-416 75 LINE",
"-356 267 OFFCURVE",
"-333 314 OFFCURVE",
"-297 359 CURVE SMOOTH",
"-265 401 OFFCURVE",
"-212 425 OFFCURVE",
"-157 425 CURVE SMOOTH",
"-93 425 OFFCURVE",
"-69 400 OFFCURVE",
"-69 320 CURVE SMOOTH",
"-69 261 OFFCURVE",
"-101 168 OFFCURVE",
"-142 120 CURVE SMOOTH",
"-177 84 OFFCURVE",
"-241 52 OFFCURVE",
"-350 52 CURVE SMOOTH"
);
},
{
closed = 1;
nodes = (
"-508 -78 OFFCURVE",
"-603 -151 OFFCURVE",
"-707 -151 CURVE SMOOTH",
"-802 -151 OFFCURVE",
"-874 -94 OFFCURVE",
"-880 -6 CURVE",
"-856 88 OFFCURVE",
"-812 172 OFFCURVE",
"-745 264 CURVE",
"-713 187 LINE",
"-750 153 OFFCURVE",
"-784 113 OFFCURVE",
"-820 57 CURVE",
"-813 88 LINE",
"-774 36 OFFCURVE",
"-732 7 OFFCURVE",
"-654 7 CURVE SMOOTH",
"-592 7 OFFCURVE",
"-527 41 OFFCURVE",
"-488 85 CURVE",
"-495 67 LINE",
"-511 107 OFFCURVE",
"-546 151 OFFCURVE",
"-590 187 CURVE",
"-484 301 LINE",
"-452 269 OFFCURVE",
"-422 204 OFFCURVE",
"-422 167 CURVE SMOOTH",
"-422 133 OFFCURVE",
"-444 53 OFFCURVE",
"-480 -14 CURVE SMOOTH"
);
},
{
closed = 1;
nodes = (
"394 -67 OFFCURVE",
"297 -151 OFFCURVE",
"193 -151 CURVE SMOOTH",
"98 -151 OFFCURVE",
"26 -94 OFFCURVE",
"20 -6 CURVE",
"44 88 OFFCURVE",
"88 172 OFFCURVE",
"155 264 CURVE",
"187 187 LINE",
"150 153 OFFCURVE",
"116 113 OFFCURVE",
"80 57 CURVE",
"87 88 LINE",
"126 36 OFFCURVE",
"168 7 OFFCURVE",
"246 7 CURVE SMOOTH",
"308 7 OFFCURVE",
"373 34 OFFCURVE",
"412 80 CURVE",
"405 62 LINE",
"389 97 OFFCURVE",
"354 146 OFFCURVE",
"310 187 CURVE",
"416 301 LINE",
"448 269 OFFCURVE",
"478 204 OFFCURVE",
"478 167 CURVE SMOOTH",
"478 133 OFFCURVE",
"456 59 OFFCURVE",
"424 -6 CURVE SMOOTH"
);
},
{
closed = 1;
nodes = (
"452 194 LINE",
"551 205 LINE SMOOTH",
"690 219 OFFCURVE",
"772 232 OFFCURVE",
"772 252 CURVE SMOOTH",
"772 263 OFFCURVE",
"746 273 OFFCURVE",
"704 273 CURVE SMOOTH",
"650 273 OFFCURVE",
"599 257 OFFCURVE",
"571 238 CURVE",
"505 91 LINE",
"486 101 LINE",
"532 222 OFFCURVE",
"568 318 OFFCURVE",
"598 359 CURVE SMOOTH",
"630 402 OFFCURVE",
"685 425 OFFCURVE",
"740 425 CURVE SMOOTH",
"797 425 OFFCURVE",
"826 400 OFFCURVE",
"826 331 CURVE SMOOTH",
"826 259 OFFCURVE",
"796 162 OFFCURVE",
"752 120 CURVE SMOOTH",
"718 87 OFFCURVE",
"656 69 OFFCURVE",
"538 57 CURVE SMOOTH",
"396 42 LINE"
);
}
);
};
layerId = "FABFC9D4-E17A-4CB6-8F8E-4923CD579275";
name = Regular;
paths = (
{
closed = 1;
nodes = (
"404 292 LINE",
"443 238 OFFCURVE",
"505 207 OFFCURVE",
"591 207 CURVE SMOOTH",
"690 207 OFFCURVE",
"772 232 OFFCURVE",
"772 252 CURVE SMOOTH",
"772 263 OFFCURVE",
"746 273 OFFCURVE",
"704 273 CURVE SMOOTH",
"650 273 OFFCURVE",
"599 257 OFFCURVE",
"571 238 CURVE",
"501 -7 LINE",
"469 -7 LINE",
"511 164 OFFCURVE",
"551 301 OFFCURVE",
"586 348 CURVE SMOOTH",
"627 402 OFFCURVE",
"685 425 OFFCURVE",
"740 425 CURVE SMOOTH",
"797 425 OFFCURVE",
"826 400 OFFCURVE",
"826 331 CURVE SMOOTH",
"826 259 OFFCURVE",
"796 162 OFFCURVE",
"752 120 CURVE SMOOTH",
"718 87 OFFCURVE",
"655 58 OFFCURVE",
"558 58 CURVE SMOOTH",
"470 58 OFFCURVE",
"396 97 OFFCURVE",
"348 146 CURVE"
);
},
{
closed = 1;
nodes = (
"478 133 OFFCURVE",
"456 59 OFFCURVE",
"424 -6 CURVE SMOOTH",
"395 -67 OFFCURVE",
"307 -151 OFFCURVE",
"203 -151 CURVE SMOOTH",
"108 -151 OFFCURVE",
"36 -94 OFFCURVE",
"30 -6 CURVE",
"54 88 OFFCURVE",
"98 172 OFFCURVE",
"165 264 CURVE",
"197 187 LINE",
"160 153 OFFCURVE",
"126 113 OFFCURVE",
"90 57 CURVE",
"97 88 LINE",
"136 36 OFFCURVE",
"178 7 OFFCURVE",
"256 7 CURVE SMOOTH",
"314 7 OFFCURVE",
"371 30 OFFCURVE",
"407 76 CURVE",
"348 146 LINE",
"478 167 LINE"
);
}
);
width = 861;
}
);
unicode = 0635;
},
{
glyphname = "sad-ar.fina";
lastChange = "2015-08-18 20:36:31 +0000";
layers = (
{
anchors = (
{
name = entry;
position = "{792, -11}";
}
);
background = {
paths = (
{
closed = 1;
nodes = (
"-373 159 LINE",
"-397 89 LINE",
"-370 78 OFFCURVE",
"-326 71 OFFCURVE",
"-259 71 CURVE SMOOTH",
"-215 71 OFFCURVE",
"-187 73 OFFCURVE",
"-113 80 CURVE",
"-173 -74 LINE",
"-213 -78 OFFCURVE",
"-253 -82 OFFCURVE",
"-293 -82 CURVE SMOOTH",
"-402 -82 OFFCURVE",
"-458 -41 OFFCURVE",
"-456 16 CURVE",
"-398 161 LINE"
);
},
{
closed = 1;
nodes = (
"-506 -7 OFFCURVE",
"-603 -91 OFFCURVE",
"-707 -91 CURVE SMOOTH",
"-802 -91 OFFCURVE",
"-874 -34 OFFCURVE",
"-880 54 CURVE",
"-856 148 OFFCURVE",
"-812 232 OFFCURVE",
"-745 324 CURVE",
"-713 247 LINE",
"-750 213 OFFCURVE",
"-784 173 OFFCURVE",
"-820 117 CURVE",
"-813 148 LINE",
"-774 96 OFFCURVE",
"-732 67 OFFCURVE",
"-654 67 CURVE SMOOTH",
"-592 67 OFFCURVE",
"-527 94 OFFCURVE",
"-488 140 CURVE",
"-495 122 LINE",
"-511 157 OFFCURVE",
"-546 206 OFFCURVE",
"-590 247 CURVE",
"-484 361 LINE",
"-452 329 OFFCURVE",
"-422 264 OFFCURVE",
"-422 227 CURVE SMOOTH",
"-422 193 OFFCURVE",
"-444 119 OFFCURVE",
"-476 54 CURVE SMOOTH"
);
},
{
closed = 1;
nodes = (
"-430 254 LINE",
"-331 265 LINE SMOOTH",
"-192 279 OFFCURVE",
"-110 292 OFFCURVE",
"-110 312 CURVE SMOOTH",
"-110 323 OFFCURVE",
"-136 333 OFFCURVE",
"-178 333 CURVE SMOOTH",
"-232 333 OFFCURVE",
"-283 317 OFFCURVE",
"-311 298 CURVE",
"-377 151 LINE",
"-396 161 LINE",
"-350 282 OFFCURVE",
"-314 378 OFFCURVE",
"-284 419 CURVE SMOOTH",
"-252 462 OFFCURVE",
"-197 485 OFFCURVE",
"-142 485 CURVE SMOOTH",
"-85 485 OFFCURVE",
"-56 460 OFFCURVE",
"-56 391 CURVE SMOOTH",
"-56 319 OFFCURVE",
"-86 222 OFFCURVE",
"-130 180 CURVE SMOOTH",
"-164 147 OFFCURVE",
"-226 129 OFFCURVE",
"-344 117 CURVE SMOOTH",
"-486 102 LINE"
);
},
{
closed = 1;
nodes = (
"548 159 LINE",
"535 89 LINE",
"570 78 OFFCURVE",
"614 71 OFFCURVE",
"681 71 CURVE SMOOTH",
"725 71 OFFCURVE",
"753 73 OFFCURVE",
"827 80 CURVE",
"767 -74 LINE",
"727 -78 OFFCURVE",
"687 -82 OFFCURVE",
"647 -82 CURVE SMOOTH",
"538 -82 OFFCURVE",
"482 -41 OFFCURVE",
"484 16 CURVE",
"522 161 LINE"
);
},
{
closed = 1;
nodes = (
"423 352 LINE",
"462 298 OFFCURVE",
"524 267 OFFCURVE",
"610 267 CURVE SMOOTH",
"709 267 OFFCURVE",
"791 292 OFFCURVE",
"791 312 CURVE SMOOTH",
"791 323 OFFCURVE",
"765 333 OFFCURVE",
"723 333 CURVE SMOOTH",
"669 333 OFFCURVE",
"618 317 OFFCURVE",
"590 298 CURVE",
"539 151 LINE",
"520 161 LINE",
"548 282 OFFCURVE",
"587 378 OFFCURVE",
"617 419 CURVE SMOOTH",
"649 462 OFFCURVE",
"704 485 OFFCURVE",
"759 485 CURVE SMOOTH",
"816 485 OFFCURVE",
"845 460 OFFCURVE",
"845 391 CURVE SMOOTH",
"845 319 OFFCURVE",
"815 222 OFFCURVE",
"771 180 CURVE SMOOTH",
"737 147 OFFCURVE",
"674 118 OFFCURVE",
"577 118 CURVE SMOOTH",
"489 118 OFFCURVE",
"415 157 OFFCURVE",
"367 206 CURVE"
);
},
{
closed = 1;
nodes = (
"497 193 OFFCURVE",
"475 119 OFFCURVE",
"443 54 CURVE SMOOTH",
"413 -7 OFFCURVE",
"316 -91 OFFCURVE",
"212 -91 CURVE SMOOTH",
"117 -91 OFFCURVE",
"45 -34 OFFCURVE",
"39 54 CURVE",
"63 148 OFFCURVE",
"107 232 OFFCURVE",
"174 324 CURVE",
"206 247 LINE",
"169 213 OFFCURVE",
"135 173 OFFCURVE",
"99 117 CURVE",
"106 148 LINE",
"145 96 OFFCURVE",
"187 67 OFFCURVE",
"265 67 CURVE SMOOTH",
"327 67 OFFCURVE",
"392 94 OFFCURVE",
"431 140 CURVE",
"384 190 LINE",
"497 227 LINE"
);
}
);
};
layerId = "FABFC9D4-E17A-4CB6-8F8E-4923CD579275";
name = Regular;
paths = (
{
closed = 1;
nodes = (
"548 159 LINE",
"535 89 LINE",
"570 78 OFFCURVE",
"614 71 OFFCURVE",
"681 71 CURVE SMOOTH",
"725 71 OFFCURVE",
"753 73 OFFCURVE",
"827 80 CURVE",
"767 -74 LINE",
"727 -78 OFFCURVE",
"687 -82 OFFCURVE",
"647 -82 CURVE SMOOTH",
"538 -82 OFFCURVE",
"482 -41 OFFCURVE",
"484 16 CURVE",
"522 161 LINE"
);
},
{
closed = 1;
nodes = (
"424 352 LINE",
"463 298 OFFCURVE",
"525 267 OFFCURVE",
"611 267 CURVE SMOOTH",
"710 267 OFFCURVE",
"792 292 OFFCURVE",
"792 312 CURVE SMOOTH",
"792 323 OFFCURVE",
"766 333 OFFCURVE",
"724 333 CURVE SMOOTH",
"670 333 OFFCURVE",
"619 317 OFFCURVE",
"591 298 CURVE",
"521 53 LINE",
"489 53 LINE",
"531 224 OFFCURVE",
"571 361 OFFCURVE",
"606 408 CURVE SMOOTH",
"647 462 OFFCURVE",
"705 485 OFFCURVE",
"760 485 CURVE SMOOTH",
"817 485 OFFCURVE",
"846 460 OFFCURVE",
"846 391 CURVE SMOOTH",
"846 319 OFFCURVE",
"816 222 OFFCURVE",
"772 180 CURVE SMOOTH",
"738 147 OFFCURVE",
"675 118 OFFCURVE",
"578 118 CURVE SMOOTH",
"490 118 OFFCURVE",
"416 157 OFFCURVE",
"368 206 CURVE"
);
},
{
closed = 1;
nodes = (
"498 193 OFFCURVE",
"476 119 OFFCURVE",
"444 54 CURVE SMOOTH",
"415 -7 OFFCURVE",
"327 -91 OFFCURVE",
"223 -91 CURVE SMOOTH",
"128 -91 OFFCURVE",
"56 -34 OFFCURVE",
"40 54 CURVE",
"74 148 OFFCURVE",
"118 232 OFFCURVE",
"185 324 CURVE",
"217 247 LINE",
"180 213 OFFCURVE",
"146 173 OFFCURVE",
"110 117 CURVE",
"117 148 LINE",
"156 96 OFFCURVE",
"198 67 OFFCURVE",
"276 67 CURVE SMOOTH",
"338 67 OFFCURVE",
"390 90 OFFCURVE",
"427 136 CURVE",
"368 206 LINE",
"498 227 LINE"
);
}
);
width = 879;
}
);
unicode = FEBA;
},
{
glyphname = "sad-ar.medi";
lastChange = "2015-08-18 20:42:33 +0000";
layers = (
{
anchors = (
{
name = entry;
position = "{427, -3}";
},
{
name = exit;
position = "{-37, 192}";
}
);
background = {
anchors = (
{
name = entry;
position = "{668, 85}";
},
{
name = exit;
position = "{47, 57}";
}
);
paths = (
{
closed = 1;
nodes = (
"444 138 OFFCURVE",
"361 136 OFFCURVE",
"298 136 CURVE SMOOTH",
"256 136 OFFCURVE",
"233 161 OFFCURVE",
"233 178 CURVE SMOOTH",
"233 188 OFFCURVE",
"234 206 OFFCURVE",
"235 225 CURVE",
"217 228 LINE",
"166 52 LINE",
"183 37 OFFCURVE",
"214 7 OFFCURVE",
"276 7 CURVE SMOOTH",
"304 7 LINE SMOOTH",
"454 7 OFFCURVE",
"572 98 OFFCURVE",
"572 200 CURVE SMOOTH",
"572 243 OFFCURVE",
"544 273 OFFCURVE",
"503 273 CURVE SMOOTH",
"445 273 OFFCURVE",
"354 232 OFFCURVE",
"282 92 CURVE",
"309 95 LINE",
"337 147 OFFCURVE",
"389 205 OFFCURVE",
"414 205 CURVE SMOOTH",
"439 205 OFFCURVE",
"459 190 OFFCURVE",
"459 161 CURVE SMOOTH",
"459 153 OFFCURVE",
"458 145 OFFCURVE",
"456 139 CURVE"
);
},
{
closed = 1;
nodes = (
"215 169 LINE",
"179 129 OFFCURVE",
"136 123 OFFCURVE",
"66 123 CURVE SMOOTH",
"58 123 LINE",
"36 -9 LINE",
"47 -9 LINE SMOOTH",
"129 -9 OFFCURVE",
"172 1 OFFCURVE",
"182 44 CURVE"
);
},
{
closed = 1;
nodes = (
"660 152 LINE SMOOTH",
"598 153 OFFCURVE",
"578 171 OFFCURVE",
"571 188 CURVE",
"496 73 LINE",
"515 54 OFFCURVE",
"548 20 OFFCURVE",
"638 20 CURVE SMOOTH",
"657 20 LINE",
"679 152 LINE"
);
}
);
};
guideLines = (
{
angle = 6;
position = "{229, 117}";
}
);
layerId = "FABFC9D4-E17A-4CB6-8F8E-4923CD579275";
name = Regular;
paths = (
{
closed = 1;
nodes = (
"202 159 LINE",
"178 89 LINE",
"205 78 OFFCURVE",
"249 71 OFFCURVE",
"316 71 CURVE SMOOTH",
"360 71 OFFCURVE",
"388 73 OFFCURVE",
"462 80 CURVE",
"402 -72 LINE",
"362 -76 OFFCURVE",
"322 -80 OFFCURVE",
"282 -80 CURVE SMOOTH",
"173 -80 OFFCURVE",
"117 -41 OFFCURVE",
"119 16 CURVE",
"177 161 LINE"
);
},
{
closed = 1;
nodes = (
"127 253 LINE",
"245 265 LINE SMOOTH",
"384 279 OFFCURVE",
"466 292 OFFCURVE",
"466 312 CURVE SMOOTH",
"466 323 OFFCURVE",
"440 333 OFFCURVE",
"398 333 CURVE SMOOTH",
"344 333 OFFCURVE",
"293 317 OFFCURVE",
"265 298 CURVE",
"199 151 LINE",
"180 161 LINE",
"226 282 OFFCURVE",
"262 378 OFFCURVE",
"292 419 CURVE SMOOTH",
"324 462 OFFCURVE",
"379 485 OFFCURVE",
"434 485 CURVE SMOOTH",
"491 485 OFFCURVE",
"520 460 OFFCURVE",
"520 391 CURVE SMOOTH",
"520 319 OFFCURVE",
"490 222 OFFCURVE",
"446 180 CURVE SMOOTH",
"412 147 OFFCURVE",
"350 129 OFFCURVE",
"232 117 CURVE SMOOTH",
"71 101 LINE"
);
},
{
closed = 1;
nodes = (
"-6 277 LINE",
"47 283 OFFCURVE",
"106 292 OFFCURVE",
"144 302 CURVE",
"132 256 OFFCURVE",
"114 197 OFFCURVE",
"91 153 CURVE",
"42 141 OFFCURVE",
"-3 132 OFFCURVE",
"-64 125 CURVE"
);
},
{
closed = 1;
nodes = (
"122 247 LINE",
"132 279 OFFCURVE",
"146 329 OFFCURVE",
"153 358 CURVE",
"185 355 LINE",
"177 316 OFFCURVE",
"168 279 OFFCURVE",
"161 245 CURVE"
);
}
);
width = 600;
}
);
unicode = FEBC;
},
{
glyphname = "sad-ar.init";
lastChange = "2015-08-12 16:50:06 +0000";
layers = (
{
anchors = (
{
name = exit;
position = "{43, 134}";
}
);
background = {
paths = (
{
closed = 1;
nodes = (
"971 70 OFFCURVE",
"1034 241 OFFCURVE",
"1067 284 CURVE SMOOTH",
"1100 325 OFFCURVE",
"1151 345 OFFCURVE",
"1195 345 CURVE SMOOTH",
"1239 345 OFFCURVE",
"1275 326 OFFCURVE",
"1275 273 CURVE SMOOTH",
"1275 203 OFFCURVE",
"1249 113 OFFCURVE",
"1206 73 CURVE SMOOTH",
"1176 45 OFFCURVE",
"1118 21 OFFCURVE",
"1047 21 CURVE SMOOTH",
"983 21 OFFCURVE",
"947 29 OFFCURVE",
"914 62 CURVE",
"879 -1 OFFCURVE",
"820 -32 OFFCURVE",
"766 -33 CURVE",
"777 111 LINE",
"810 111 OFFCURVE",
"874 129 OFFCURVE",
"908 173 CURVE",
"908 214 LINE",
"938 214 LINE",
"938 198 OFFCURVE",
"949 178 OFFCURVE",
"961 170 CURVE SMOOTH",
"973 162 OFFCURVE",
"994 150 OFFCURVE",
"1069 150 CURVE SMOOTH",
"1130 150 OFFCURVE",
"1221 175 OFFCURVE",
"1221 191 CURVE SMOOTH",
"1221 203 OFFCURVE",
"1205 210 OFFCURVE",
"1167 210 CURVE SMOOTH",
"1126 210 OFFCURVE",
"1078 198 OFFCURVE",
"1050 178 CURVE",
"951 -47 LINE",
"923 -37 LINE"
);
},
{
closed = 1;
nodes = (
"-492 214 LINE",
"-462 214 LINE",
"-462 182 OFFCURVE",
"-405 150 OFFCURVE",
"-331 150 CURVE SMOOTH",
"-270 150 OFFCURVE",
"-179 175 OFFCURVE",
"-179 191 CURVE SMOOTH",
"-179 203 OFFCURVE",
"-195 210 OFFCURVE",
"-233 210 CURVE SMOOTH",
"-274 210 OFFCURVE",
"-322 198 OFFCURVE",
"-350 178 CURVE",
"-449 -47 LINE",
"-477 -37 LINE",
"-429 70 OFFCURVE",
"-366 241 OFFCURVE",
"-333 284 CURVE SMOOTH",
"-300 325 OFFCURVE",
"-249 345 OFFCURVE",
"-205 345 CURVE SMOOTH",
"-161 345 OFFCURVE",
"-125 326 OFFCURVE",
"-125 273 CURVE SMOOTH",
"-125 203 OFFCURVE",
"-151 113 OFFCURVE",
"-194 73 CURVE SMOOTH",
"-224 45 OFFCURVE",
"-282 18 OFFCURVE",
"-357 18 CURVE SMOOTH",
"-427 18 OFFCURVE",
"-468 31 OFFCURVE",
"-506 72 CURVE",
"-492 173 LINE"
);
},
{
closed = 1;
nodes = (
"-656 153 LINE",
"-600 153 OFFCURVE",
"-544 159 OFFCURVE",
"-486 174 CURVE",
"-510 153 LINE",
"-500 184 OFFCURVE",
"-491 218 OFFCURVE",
"-485 255 CURVE",
"-453 254 LINE",
"-462 180 OFFCURVE",
"-485 92 OFFCURVE",
"-528 30 CURVE",
"-588 16 OFFCURVE",
"-651 9 OFFCURVE",
"-711 10 CURVE"
);
},
{
closed = 1;
nodes = (
"1467 17 OFFCURVE",
"1414 65 OFFCURVE",
"1376 122 CURVE SMOOTH",
"1372 128 OFFCURVE",
"1369 133 OFFCURVE",
"1367 139 CURVE",
"1463 135 OFFCURVE",
"1565 133 OFFCURVE",
"1615 134 CURVE SMOOTH",
"1757 137 OFFCURVE",
"1836 163 OFFCURVE",
"1836 182 CURVE SMOOTH",
"1836 193 OFFCURVE",
"1812 203 OFFCURVE",
"1764 203 CURVE SMOOTH",
"1716 203 OFFCURVE",
"1663 187 OFFCURVE",
"1635 168 CURVE",
"1569 21 LINE",
"1550 31 LINE",
"1596 152 OFFCURVE",
"1632 248 OFFCURVE",
"1662 289 CURVE SMOOTH",
"1694 331 OFFCURVE",
"1747 355 OFFCURVE",
"1802 355 CURVE SMOOTH",
"1866 355 OFFCURVE",
"1890 330 OFFCURVE",
"1890 250 CURVE SMOOTH",
"1890 191 OFFCURVE",
"1858 98 OFFCURVE",
"1817 50 CURVE SMOOTH",
"1782 14 OFFCURVE",
"1718 -18 OFFCURVE",
"1599 -18 CURVE SMOOTH",
"1582 -18 OFFCURVE",
"1551 -17 OFFCURVE",
"1533 -14 CURVE"
);
},
{
closed = 1;
nodes = (
"1354 151 LINE",
"1409 157 OFFCURVE",
"1466 164 OFFCURVE",
"1515 176 CURVE",
"1490 153 LINE",
"1500 185 OFFCURVE",
"1511 234 OFFCURVE",
"1517 263 CURVE",
"1549 262 LINE",
"1539 165 OFFCURVE",
"1513 85 OFFCURVE",
"1484 29 CURVE",
"1431 16 OFFCURVE",
"1367 6 OFFCURVE",
"1296 -1 CURVE"
);
},
{
closed = 1;
nodes = (
"264 52 OFFCURVE",
"219 65 OFFCURVE",
"182 85 CURVE",
"221 230 LINE",
"244 213 OFFCURVE",
"279 203 OFFCURVE",
"315 204 CURVE SMOOTH",
"457 208 OFFCURVE",
"536 233 OFFCURVE",
"536 252 CURVE SMOOTH",
"536 263 OFFCURVE",
"512 273 OFFCURVE",
"464 273 CURVE SMOOTH",
"416 273 OFFCURVE",
"363 257 OFFCURVE",
"335 238 CURVE",
"251 -20 LINE",
"220 -12 LINE",
"292 238 OFFCURVE",
"319 300 OFFCURVE",
"362 359 CURVE SMOOTH",
"394 401 OFFCURVE",
"447 425 OFFCURVE",
"502 425 CURVE SMOOTH",
"566 425 OFFCURVE",
"590 400 OFFCURVE",
"590 320 CURVE SMOOTH",
"590 261 OFFCURVE",
"558 168 OFFCURVE",
"517 120 CURVE SMOOTH",
"482 84 OFFCURVE",
"418 52 OFFCURVE",
"309 52 CURVE SMOOTH"
);
},
{
closed = 1;
nodes = (
"120 158 LINE",
"159 163 OFFCURVE",
"186 168 OFFCURVE",
"215 176 CURVE",
"190 153 LINE",
"200 185 OFFCURVE",
"211 234 OFFCURVE",
"217 263 CURVE",
"249 262 LINE",
"239 165 OFFCURVE",
"213 85 OFFCURVE",
"184 29 CURVE",
"150 19 OFFCURVE",
"115 13 OFFCURVE",
"63 7 CURVE"
);
}
);
};
guideLines = (
{
angle = 6;
position = "{237, 196}";
},
{
angle = 6;
position = "{217, 48}";
}
);
layerId = "FABFC9D4-E17A-4CB6-8F8E-4923CD579275";
name = Regular;
paths = (
{
closed = 1;
nodes = (
"197 192 LINE",
"315 204 LINE SMOOTH",
"454 218 OFFCURVE",
"536 231 OFFCURVE",
"536 251 CURVE SMOOTH",
"536 262 OFFCURVE",
"510 272 OFFCURVE",
"468 272 CURVE SMOOTH",
"414 272 OFFCURVE",
"363 256 OFFCURVE",
"335 237 CURVE",
"244 -18 LINE",
"216 -8 LINE",
"272 172 OFFCURVE",
"308 280 OFFCURVE",
"362 358 CURVE SMOOTH",
"393 403 OFFCURVE",
"449 424 OFFCURVE",
"504 424 CURVE SMOOTH",
"561 424 OFFCURVE",
"590 399 OFFCURVE",
"590 330 CURVE SMOOTH",
"590 258 OFFCURVE",
"560 161 OFFCURVE",
"516 119 CURVE SMOOTH",
"482 86 OFFCURVE",
"420 69 OFFCURVE",
"302 57 CURVE SMOOTH",
"141 40 LINE"
);
},
{
closed = 1;
nodes = (
"64 216 LINE",
"117 222 OFFCURVE",
"176 231 OFFCURVE",
"214 241 CURVE",
"202 195 OFFCURVE",
"184 136 OFFCURVE",
"161 92 CURVE",
"112 80 OFFCURVE",
"67 71 OFFCURVE",
"6 64 CURVE"
);
},
{
closed = 1;
nodes = (
"192 186 LINE",
"202 218 OFFCURVE",
"216 268 OFFCURVE",
"223 297 CURVE",
"255 294 LINE",
"247 255 OFFCURVE",
"238 218 OFFCURVE",
"231 184 CURVE"
);
}
);
width = 622;
}
);
unicode = FEBB;
},
{
glyphname = "tah-ar";
lastChange = "2015-08-17 16:12:10 +0000";
layers = (
{
background = {
paths = (
{
closed = 1;
nodes = (
"934 633 LINE",
"931 499 OFFCURVE",
"915 385 OFFCURVE",
"905 346 CURVE",
"840 199 LINE",
"821 202 LINE",
"819 330 OFFCURVE",
"812 410 OFFCURVE",
"799 532 CURVE"
);
},
{
closed = 1;
nodes = (
"705 58 OFFCURVE",
"671 99 OFFCURVE",
"638 139 CURVE",
"907 139 LINE SMOOTH",
"968 139 OFFCURVE",
"1059 164 OFFCURVE",
"1059 180 CURVE SMOOTH",
"1059 192 OFFCURVE",
"1043 199 OFFCURVE",
"1005 199 CURVE SMOOTH",
"964 199 OFFCURVE",
"916 187 OFFCURVE",
"888 173 CURVE",
"822 21 LINE",
"794 31 LINE",
"811 59 OFFCURVE",
"871 231 OFFCURVE",
"908 276 CURVE SMOOTH",
"939 314 OFFCURVE",
"989 334 OFFCURVE",
"1033 334 CURVE SMOOTH",
"1077 334 OFFCURVE",
"1113 315 OFFCURVE",
"1113 262 CURVE SMOOTH",
"1113 192 OFFCURVE",
"1087 102 OFFCURVE",
"1044 62 CURVE SMOOTH",
"1014 34 OFFCURVE",
"956 10 OFFCURVE",
"885 10 CURVE SMOOTH",
"811 10 OFFCURVE",
"770 13 OFFCURVE",
"738 18 CURVE"
);
},
{
closed = 1;
nodes = (
"243 562 OFFCURVE",
"294 613 OFFCURVE",
"334 635 CURVE",
"347 594 OFFCURVE",
"321 375 OFFCURVE",
"311 356 CURVE",
"246 209 LINE",
"224 216 LINE",
"225 351 OFFCURVE",
"220 427 OFFCURVE",
"207 518 CURVE"
);
},
{
closed = 1;
nodes = (
"135 23 OFFCURVE",
"58 74 OFFCURVE",
"27 122 CURVE SMOOTH",
"23 128 OFFCURVE",
"20 133 OFFCURVE",
"18 139 CURVE",
"114 135 OFFCURVE",
"212 133 OFFCURVE",
"263 134 CURVE SMOOTH",
"389 137 OFFCURVE",
"459 163 OFFCURVE",
"459 182 CURVE SMOOTH",
"459 191 OFFCURVE",
"443 203 OFFCURVE",
"406 203 CURVE SMOOTH",
"364 203 OFFCURVE",
"311 187 OFFCURVE",
"283 168 CURVE",
"217 21 LINE",
"198 31 LINE",
"211 65 OFFCURVE",
"265 218 OFFCURVE",
"294 255 CURVE SMOOTH",
"335 307 OFFCURVE",
"388 334 OFFCURVE",
"436 334 CURVE SMOOTH",
"482 334 OFFCURVE",
"513 315 OFFCURVE",
"513 252 CURVE SMOOTH",
"513 195 OFFCURVE",
"487 103 OFFCURVE",
"444 62 CURVE SMOOTH",
"414 34 OFFCURVE",
"358 10 OFFCURVE",
"251 10 CURVE SMOOTH",
"229 10 OFFCURVE",
"199 11 OFFCURVE",
"181 14 CURVE"
);
},
{
closed = 1;
nodes = (
"-349 572 OFFCURVE",
"-300 617 OFFCURVE",
"-266 635 CURVE",
"-264 626 OFFCURVE",
"-262 603 OFFCURVE",
"-262 584 CURVE SMOOTH",
"-262 525 OFFCURVE",
"-280 376 OFFCURVE",
"-289 356 CURVE",
"-354 209 LINE",
"-376 216 LINE",
"-375 348 OFFCURVE",
"-379 425 OFFCURVE",
"-393 518 CURVE"
);
},
{
closed = 1;
nodes = (
"-452 27 OFFCURVE",
"-553 90 OFFCURVE",
"-583 121 CURVE",
"-582 144 LINE",
"-508 140 OFFCURVE",
"-399 136 OFFCURVE",
"-337 137 CURVE SMOOTH",
"-234 139 OFFCURVE",
"-141 159 OFFCURVE",
"-141 182 CURVE SMOOTH",
"-141 194 OFFCURVE",
"-164 203 OFFCURVE",
"-194 203 CURVE SMOOTH",
"-235 203 OFFCURVE",
"-288 188 OFFCURVE",
"-317 168 CURVE",
"-383 21 LINE",
"-402 31 LINE",
"-348 175 OFFCURVE",
"-326 227 OFFCURVE",
"-306 255 CURVE SMOOTH",
"-272 303 OFFCURVE",
"-214 334 OFFCURVE",
"-160 334 CURVE SMOOTH",
"-111 334 OFFCURVE",
"-87 306 OFFCURVE",
"-87 251 CURVE SMOOTH",
"-87 184 OFFCURVE",
"-116 98 OFFCURVE",
"-156 62 CURVE SMOOTH",
"-192 30 OFFCURVE",
"-247 10 OFFCURVE",
"-392 8 CURVE"
);
}
);
};
layerId = "FABFC9D4-E17A-4CB6-8F8E-4923CD579275";
name = Regular;
paths = (
{
closed = 1;
nodes = (
"234 562 OFFCURVE",
"285 613 OFFCURVE",
"325 635 CURVE",
"327 627 OFFCURVE",
"329 614 OFFCURVE",
"329 591 CURVE SMOOTH",
"329 522 OFFCURVE",
"310 370 OFFCURVE",
"302 356 CURVE",
"237 209 LINE",
"215 216 LINE",
"216 351 OFFCURVE",
"211 427 OFFCURVE",
"198 518 CURVE"
);
},
{
closed = 1;
nodes = (
"115 17 OFFCURVE",
"62 65 OFFCURVE",
"24 122 CURVE SMOOTH",
"20 128 OFFCURVE",
"17 133 OFFCURVE",
"15 139 CURVE",
"111 135 OFFCURVE",
"213 133 OFFCURVE",
"263 134 CURVE SMOOTH",
"405 137 OFFCURVE",
"484 163 OFFCURVE",
"484 182 CURVE SMOOTH",
"484 193 OFFCURVE",
"460 203 OFFCURVE",
"412 203 CURVE SMOOTH",
"364 203 OFFCURVE",
"311 187 OFFCURVE",
"283 168 CURVE",
"217 21 LINE",
"198 31 LINE",
"244 152 OFFCURVE",
"280 248 OFFCURVE",
"310 289 CURVE SMOOTH",
"342 331 OFFCURVE",
"395 355 OFFCURVE",
"450 355 CURVE SMOOTH",
"514 355 OFFCURVE",
"538 330 OFFCURVE",
"538 250 CURVE SMOOTH",
"538 191 OFFCURVE",
"506 98 OFFCURVE",
"465 50 CURVE SMOOTH",
"430 14 OFFCURVE",
"366 -18 OFFCURVE",
"247 -18 CURVE SMOOTH",
"230 -18 OFFCURVE",
"199 -17 OFFCURVE",
"181 -14 CURVE"
);
}
);
width = 583;
}
);
unicode = 0637;
},
{
glyphname = "tah-ar.fina";
lastChange = "2015-08-17 16:12:06 +0000";
layers = (
{
anchors = (
{
name = entry;
position = "{437, -5}";
}
);
background = {
anchors = (
{
name = entry;
position = "{497, 43}";
}
);
paths = (
{
closed = 1;
nodes = (
"916 509 OFFCURVE",
"920 405 OFFCURVE",
"924 302 CURVE",
"1015 379 LINE",
"1031 490 OFFCURVE",
"1037 601 OFFCURVE",
"1033 712 CURVE",
"912 612 LINE"
);
},
{
closed = 1;
nodes = (
"950 214 OFFCURVE",
"1017 315 OFFCURVE",
"1066 315 CURVE SMOOTH",
"1085 315 OFFCURVE",
"1107 300 OFFCURVE",
"1107 270 CURVE SMOOTH",
"1107 263 OFFCURVE",
"1106 255 OFFCURVE",
"1104 249 CURVE",
"1051 244 OFFCURVE",
"900 238 OFFCURVE",
"798 238 CURVE",
"885 130 LINE",
"920 126 OFFCURVE",
"946 125 OFFCURVE",
"1020 128 CURVE SMOOTH",
"1120 132 OFFCURVE",
"1220 213 OFFCURVE",
"1220 307 CURVE SMOOTH",
"1220 353 OFFCURVE",
"1196 383 OFFCURVE",
"1147 383 CURVE SMOOTH",
"1033 383 OFFCURVE",
"905 216 OFFCURVE",
"900 105 CURVE SMOOTH",
"895 6 OFFCURVE",
"990 -14 OFFCURVE",
"1082 -20 CURVE SMOOTH",
"1112 -22 OFFCURVE",
"1137 -22 OFFCURVE",
"1169 -22 CURVE SMOOTH",
"1186 -22 LINE",
"1208 110 LINE",
"1062 109 LINE SMOOTH",
"1012 109 OFFCURVE",
"950 121 OFFCURVE",
"950 167 CURVE SMOOTH"
);
},
{
closed = 1;
nodes = (
"253 662 OFFCURVE",
"304 713 OFFCURVE",
"344 735 CURVE",
"346 727 OFFCURVE",
"348 713 OFFCURVE",
"348 695 CURVE SMOOTH",
"348 619 OFFCURVE",
"329 471 OFFCURVE",
"321 456 CURVE",
"256 309 LINE",
"234 316 LINE",
"235 451 OFFCURVE",
"230 527 OFFCURVE",
"217 618 CURVE"
);
},
{
closed = 1;
nodes = (
"145 123 OFFCURVE",
"68 174 OFFCURVE",
"37 222 CURVE SMOOTH",
"33 228 OFFCURVE",
"30 233 OFFCURVE",
"28 239 CURVE",
"124 235 OFFCURVE",
"222 233 OFFCURVE",
"273 234 CURVE SMOOTH",
"399 237 OFFCURVE",
"469 263 OFFCURVE",
"469 282 CURVE SMOOTH",
"469 291 OFFCURVE",
"453 303 OFFCURVE",
"416 303 CURVE SMOOTH",
"374 303 OFFCURVE",
"321 287 OFFCURVE",
"293 268 CURVE",
"227 121 LINE",
"208 131 LINE",
"221 165 OFFCURVE",
"275 318 OFFCURVE",
"304 355 CURVE SMOOTH",
"345 407 OFFCURVE",
"398 434 OFFCURVE",
"446 434 CURVE SMOOTH",
"492 434 OFFCURVE",
"523 415 OFFCURVE",
"523 352 CURVE SMOOTH",
"523 295 OFFCURVE",
"497 203 OFFCURVE",
"454 162 CURVE SMOOTH",
"424 134 OFFCURVE",
"368 110 OFFCURVE",
"261 110 CURVE SMOOTH",
"239 110 OFFCURVE",
"209 111 OFFCURVE",
"191 114 CURVE"
);
},
{
closed = 1;
nodes = (
"250 167 LINE",
"232 99 LINE",
"261 72 OFFCURVE",
"327 55 OFFCURVE",
"412 55 CURVE SMOOTH",
"493 55 LINE",
"442 -88 LINE",
"374 -88 LINE SMOOTH",
"248 -88 OFFCURVE",
"169 -44 OFFCURVE",
"173 26 CURVE",
"219 161 LINE"
);
}
);
};
guideLines = (
{
angle = 6;
position = "{409, 142}";
}
);
layerId = "FABFC9D4-E17A-4CB6-8F8E-4923CD579275";
name = Regular;
paths = (
{
closed = 1;
nodes = (
"220 159 LINE",
"196 89 LINE",
"223 78 OFFCURVE",
"289 71 OFFCURVE",
"340 70 CURVE SMOOTH",
"382 70 OFFCURVE",
"406 72 OFFCURVE",
"480 80 CURVE",
"420 -72 LINE",
"380 -76 OFFCURVE",
"354 -78 OFFCURVE",
"311 -78 CURVE SMOOTH",
"202 -78 OFFCURVE",
"134 -44 OFFCURVE",
"137 16 CURVE",
"195 161 LINE"
);
},
{
closed = 1;
nodes = (
"234 692 OFFCURVE",
"285 743 OFFCURVE",
"325 765 CURVE",
"327 757 OFFCURVE",
"329 744 OFFCURVE",
"329 721 CURVE SMOOTH",
"329 652 OFFCURVE",
"310 500 OFFCURVE",
"302 486 CURVE",
"237 339 LINE",
"215 346 LINE",
"216 481 OFFCURVE",
"211 557 OFFCURVE",
"198 648 CURVE"
);
},
{
closed = 1;
nodes = (
"115 147 OFFCURVE",
"61 196 OFFCURVE",
"24 252 CURVE SMOOTH",
"20 258 OFFCURVE",
"17 263 OFFCURVE",
"15 269 CURVE",
"111 265 OFFCURVE",
"210 263 OFFCURVE",
"263 264 CURVE SMOOTH",
"405 267 OFFCURVE",
"484 293 OFFCURVE",
"484 312 CURVE SMOOTH",
"484 323 OFFCURVE",
"458 333 OFFCURVE",
"416 333 CURVE SMOOTH",
"362 333 OFFCURVE",
"311 317 OFFCURVE",
"283 298 CURVE",
"217 151 LINE",
"198 161 LINE",
"244 282 OFFCURVE",
"280 378 OFFCURVE",
"310 419 CURVE SMOOTH",
"342 462 OFFCURVE",
"397 485 OFFCURVE",
"452 485 CURVE SMOOTH",
"509 485 OFFCURVE",
"538 460 OFFCURVE",
"538 390 CURVE SMOOTH",
"538 317 OFFCURVE",
"506 225 OFFCURVE",
"464 180 CURVE SMOOTH",
"430 144 OFFCURVE",
"366 112 OFFCURVE",
"250 112 CURVE SMOOTH",
"229 112 OFFCURVE",
"199 113 OFFCURVE",
"181 116 CURVE"
);
}
);
width = 573;
}
);
unicode = FEC2;
},
{
glyphname = "tah-ar.medi";
lastChange = "2015-08-01 19:20:51 +0000";
layers = (
{
anchors = (
{
name = entry;
position = "{419, -5}";
},
{
name = exit;
position = "{114, 181}";
}
);
background = {
paths = (
{
closed = 1;
nodes = (
"1035 662 OFFCURVE",
"1086 713 OFFCURVE",
"1126 735 CURVE",
"1128 727 OFFCURVE",
"1130 713 OFFCURVE",
"1130 695 CURVE SMOOTH",
"1130 619 OFFCURVE",
"1111 471 OFFCURVE",
"1103 456 CURVE",
"1038 309 LINE",
"1016 316 LINE",
"1017 451 OFFCURVE",
"1012 527 OFFCURVE",
"999 618 CURVE"
);
},
{
closed = 1;
nodes = (
"927 123 OFFCURVE",
"850 174 OFFCURVE",
"819 222 CURVE SMOOTH",
"815 228 OFFCURVE",
"812 233 OFFCURVE",
"810 239 CURVE",
"906 235 OFFCURVE",
"1004 233 OFFCURVE",
"1055 234 CURVE SMOOTH",
"1181 237 OFFCURVE",
"1251 263 OFFCURVE",
"1251 282 CURVE SMOOTH",
"1251 291 OFFCURVE",
"1235 303 OFFCURVE",
"1198 303 CURVE SMOOTH",
"1156 303 OFFCURVE",
"1103 287 OFFCURVE",
"1075 268 CURVE",
"1009 121 LINE",
"990 131 LINE",
"1003 165 OFFCURVE",
"1057 318 OFFCURVE",
"1086 355 CURVE SMOOTH",
"1127 407 OFFCURVE",
"1180 434 OFFCURVE",
"1228 434 CURVE SMOOTH",
"1274 434 OFFCURVE",
"1305 415 OFFCURVE",
"1305 352 CURVE SMOOTH",
"1305 295 OFFCURVE",
"1279 203 OFFCURVE",
"1236 162 CURVE SMOOTH",
"1206 134 OFFCURVE",
"1150 110 OFFCURVE",
"1043 110 CURVE SMOOTH",
"1021 110 OFFCURVE",
"991 111 OFFCURVE",
"973 114 CURVE"
);
},
{
closed = 1;
nodes = (
"1032 167 LINE",
"1014 99 LINE",
"1043 72 OFFCURVE",
"1109 55 OFFCURVE",
"1194 55 CURVE SMOOTH",
"1275 55 LINE",
"1224 -88 LINE",
"1156 -88 LINE SMOOTH",
"1030 -88 OFFCURVE",
"951 -44 OFFCURVE",
"955 26 CURVE",
"1001 161 LINE"
);
},
{
closed = 1;
nodes = (
"202 159 LINE",
"178 89 LINE",
"205 78 OFFCURVE",
"249 71 OFFCURVE",
"316 71 CURVE SMOOTH",
"360 71 OFFCURVE",
"388 73 OFFCURVE",
"462 80 CURVE",
"402 -74 LINE",
"362 -78 OFFCURVE",
"322 -82 OFFCURVE",
"282 -82 CURVE SMOOTH",
"173 -82 OFFCURVE",
"117 -41 OFFCURVE",
"119 16 CURVE",
"177 161 LINE"
);
},
{
closed = 1;
nodes = (
"216 692 OFFCURVE",
"267 743 OFFCURVE",
"307 765 CURVE",
"309 757 OFFCURVE",
"311 744 OFFCURVE",
"311 721 CURVE SMOOTH",
"311 652 OFFCURVE",
"292 500 OFFCURVE",
"284 486 CURVE",
"219 339 LINE",
"197 346 LINE",
"198 481 OFFCURVE",
"193 557 OFFCURVE",
"180 648 CURVE"
);
},
{
closed = 1;
nodes = (
"63 248 LINE",
"245 266 LINE SMOOTH",
"384 280 OFFCURVE",
"466 292 OFFCURVE",
"466 312 CURVE SMOOTH",
"466 323 OFFCURVE",
"440 333 OFFCURVE",
"398 333 CURVE SMOOTH",
"344 333 OFFCURVE",
"293 317 OFFCURVE",
"265 298 CURVE",
"199 151 LINE",
"180 161 LINE",
"226 282 OFFCURVE",
"262 378 OFFCURVE",
"292 419 CURVE SMOOTH",
"324 462 OFFCURVE",
"379 485 OFFCURVE",
"434 485 CURVE SMOOTH",
"491 485 OFFCURVE",
"520 460 OFFCURVE",
"520 391 CURVE SMOOTH",
"520 319 OFFCURVE",
"490 222 OFFCURVE",
"446 180 CURVE SMOOTH",
"412 147 OFFCURVE",
"350 124 OFFCURVE",
"232 114 CURVE SMOOTH",
"25 96 LINE"
);
}
);
};
guideLines = (
{
angle = 6;
position = "{379, -76}";
},
{
angle = 6;
position = "{229, 117}";
},
{
angle = 6;
position = "{208, 261}";
}
);
layerId = "FABFC9D4-E17A-4CB6-8F8E-4923CD579275";
name = Regular;
paths = (
{
closed = 1;
nodes = (
"202 159 LINE",
"178 89 LINE",
"205 78 OFFCURVE",
"249 71 OFFCURVE",
"316 71 CURVE SMOOTH",
"360 71 OFFCURVE",
"388 73 OFFCURVE",
"462 80 CURVE",
"402 -74 LINE",
"362 -78 OFFCURVE",
"322 -82 OFFCURVE",
"282 -82 CURVE SMOOTH",
"173 -82 OFFCURVE",
"117 -41 OFFCURVE",
"119 16 CURVE",
"177 161 LINE"
);
},
{
closed = 1;
nodes = (
"216 692 OFFCURVE",
"267 743 OFFCURVE",
"307 765 CURVE",
"309 757 OFFCURVE",
"311 744 OFFCURVE",
"311 721 CURVE SMOOTH",
"311 652 OFFCURVE",
"292 500 OFFCURVE",
"284 486 CURVE",
"219 339 LINE",
"197 346 LINE",
"198 481 OFFCURVE",
"193 557 OFFCURVE",
"180 648 CURVE"
);
},
{
closed = 1;
nodes = (
"141 254 LINE",
"245 265 LINE SMOOTH",
"384 279 OFFCURVE",
"466 292 OFFCURVE",
"466 312 CURVE SMOOTH",
"466 323 OFFCURVE",
"440 333 OFFCURVE",
"398 333 CURVE SMOOTH",
"344 333 OFFCURVE",
"293 317 OFFCURVE",
"265 298 CURVE",
"199 151 LINE",
"180 161 LINE",
"226 282 OFFCURVE",
"262 378 OFFCURVE",
"292 419 CURVE SMOOTH",
"324 462 OFFCURVE",
"379 485 OFFCURVE",
"434 485 CURVE SMOOTH",
"491 485 OFFCURVE",
"520 460 OFFCURVE",
"520 391 CURVE SMOOTH",
"520 319 OFFCURVE",
"490 222 OFFCURVE",
"446 180 CURVE SMOOTH",
"412 147 OFFCURVE",
"350 129 OFFCURVE",
"232 117 CURVE SMOOTH",
"85 102 LINE"
);
}
);
width = 600;
}
);
unicode = FEC4;
},
{
glyphname = "tah-ar.init";
lastChange = "2015-09-15 11:20:06 +0000";
layers = (
{
anchors = (
{
name = exit;
position = "{49, 173}";
}
);
background = {
anchors = (
{
name = exit;
position = "{-30, 66}";
}
);
paths = (
{
closed = 1;
nodes = (
"-42 1 LINE",
"-28 1 LINE SMOOTH",
"211 -7 OFFCURVE",
"392 70 OFFCURVE",
"392 205 CURVE SMOOTH",
"392 248 OFFCURVE",
"364 278 OFFCURVE",
"323 278 CURVE SMOOTH",
"265 278 OFFCURVE",
"174 237 OFFCURVE",
"102 97 CURVE",
"129 100 LINE",
"157 152 OFFCURVE",
"209 210 OFFCURVE",
"234 210 CURVE SMOOTH",
"259 210 OFFCURVE",
"279 195 OFFCURVE",
"279 166 CURVE SMOOTH",
"279 158 OFFCURVE",
"278 150 OFFCURVE",
"276 144 CURVE",
"229 139 OFFCURVE",
"92 134 OFFCURVE",
"-3 133 CURVE SMOOTH",
"-20 133 LINE"
);
},
{
closed = 1;
nodes = (
"88 404 OFFCURVE",
"92 300 OFFCURVE",
"96 197 CURVE",
"187 274 LINE",
"203 385 OFFCURVE",
"209 496 OFFCURVE",
"205 607 CURVE",
"84 507 LINE"
);
}
);
};
guideLines = (
{
angle = 6;
position = "{159, 117}";
},
{
angle = 6;
position = "{138, 261}";
}
);
layerId = "FABFC9D4-E17A-4CB6-8F8E-4923CD579275";
name = Regular;
paths = (
{
closed = 1;
nodes = (
"146 692 OFFCURVE",
"197 743 OFFCURVE",
"237 765 CURVE",
"239 757 OFFCURVE",
"241 744 OFFCURVE",
"241 721 CURVE SMOOTH",
"241 652 OFFCURVE",
"222 500 OFFCURVE",
"214 486 CURVE",
"149 339 LINE",
"127 346 LINE",
"128 481 OFFCURVE",
"123 557 OFFCURVE",
"110 648 CURVE"
);
},
{
closed = 1;
nodes = (
"71 254 LINE",
"175 265 LINE SMOOTH",
"314 279 OFFCURVE",
"396 292 OFFCURVE",
"396 312 CURVE SMOOTH",
"396 323 OFFCURVE",
"370 333 OFFCURVE",
"328 333 CURVE SMOOTH",
"274 333 OFFCURVE",
"223 317 OFFCURVE",
"195 298 CURVE",
"129 151 LINE",
"110 161 LINE",
"156 282 OFFCURVE",
"192 378 OFFCURVE",
"222 419 CURVE SMOOTH",
"254 462 OFFCURVE",
"309 485 OFFCURVE",
"364 485 CURVE SMOOTH",
"421 485 OFFCURVE",
"450 460 OFFCURVE",
"450 391 CURVE SMOOTH",
"450 319 OFFCURVE",
"420 222 OFFCURVE",
"376 180 CURVE SMOOTH",
"342 147 OFFCURVE",
"280 129 OFFCURVE",
"162 117 CURVE SMOOTH",
"15 102 LINE"
);
}
);
width = 485;
}
);
unicode = FEC3;
},
{
glyphname = "ain-ar";
lastChange = "2015-10-22 15:54:44 +0000";
layers = (
{
background = {
paths = (
{
closed = 1;
nodes = (
"178 156 OFFCURVE",
"-22 -68 OFFCURVE",
"-22 -208 CURVE SMOOTH",
"-22 -307 OFFCURVE",
"65 -355 OFFCURVE",
"177 -355 CURVE SMOOTH",
"310 -355 OFFCURVE",
"417 -288 OFFCURVE",
"452 -224 CURVE",
"437 -225 OFFCURVE",
"420 -225 OFFCURVE",
"404 -225 CURVE SMOOTH",
"239 -225 OFFCURVE",
"63 -176 OFFCURVE",
"63 -91 CURVE SMOOTH",
"63 -40 OFFCURVE",
"267 99 OFFCURVE",
"351 138 CURVE",
"388 236 LINE"
);
},
{
closed = 1;
nodes = (
"321 389 OFFCURVE",
"224 363 OFFCURVE",
"190 338 CURVE SMOOTH",
"151 305 OFFCURVE",
"82 193 OFFCURVE",
"82 132 CURVE SMOOTH",
"82 91 OFFCURVE",
"117 37 OFFCURVE",
"158 26 CURVE",
"283 147 LINE",
"216 156 OFFCURVE",
"154 220 OFFCURVE",
"154 266 CURVE",
"132 207 LINE",
"186 231 OFFCURVE",
"268 246 OFFCURVE",
"327 251 CURVE",
"370 393 LINE"
);
}
);
};
layerId = "FABFC9D4-E17A-4CB6-8F8E-4923CD579275";
name = Regular;
paths = (
{
closed = 1;
nodes = (
"178 156 OFFCURVE",
"-22 -68 OFFCURVE",
"-22 -208 CURVE SMOOTH",
"-22 -307 OFFCURVE",
"65 -355 OFFCURVE",
"177 -355 CURVE SMOOTH",
"310 -355 OFFCURVE",
"417 -288 OFFCURVE",
"452 -224 CURVE",
"437 -225 OFFCURVE",
"420 -225 OFFCURVE",
"404 -225 CURVE SMOOTH",
"239 -225 OFFCURVE",
"63 -176 OFFCURVE",
"63 -91 CURVE SMOOTH",
"63 -40 OFFCURVE",
"267 99 OFFCURVE",
"351 138 CURVE",
"388 236 LINE"
);
},
{
closed = 1;
nodes = (
"301 387 OFFCURVE",
"204 361 OFFCURVE",
"170 336 CURVE SMOOTH",
"131 303 OFFCURVE",
"62 191 OFFCURVE",
"62 130 CURVE SMOOTH",
"62 89 OFFCURVE",
"97 35 OFFCURVE",
"138 24 CURVE",
"263 145 LINE",
"196 154 OFFCURVE",
"134 218 OFFCURVE",
"134 264 CURVE",
"112 205 LINE",
"166 229 OFFCURVE",
"248 244 OFFCURVE",
"307 249 CURVE",
"350 391 LINE"
);
}
);
width = 462;
}
);
unicode = 0639;
},
{
glyphname = "ain-ar.fina";
lastChange = "2015-10-22 16:53:23 +0000";
layers = (
{
anchors = (
{
name = entry;
position = "{534, 139}";
}
);
background = {
paths = (
{
closed = 1;
nodes = (
"208 156 OFFCURVE",
"8 -68 OFFCURVE",
"8 -208 CURVE SMOOTH",
"8 -307 OFFCURVE",
"95 -355 OFFCURVE",
"207 -355 CURVE SMOOTH",
"340 -355 OFFCURVE",
"447 -288 OFFCURVE",
"482 -224 CURVE",
"467 -225 OFFCURVE",
"450 -225 OFFCURVE",
"434 -225 CURVE SMOOTH",
"269 -225 OFFCURVE",
"93 -176 OFFCURVE",
"93 -91 CURVE SMOOTH",
"93 -40 OFFCURVE",
"297 99 OFFCURVE",
"381 138 CURVE",
"418 236 LINE"
);
},
{
closed = 1;
nodes = (
"331 387 OFFCURVE",
"234 361 OFFCURVE",
"200 336 CURVE SMOOTH",
"161 303 OFFCURVE",
"92 191 OFFCURVE",
"92 130 CURVE SMOOTH",
"92 89 OFFCURVE",
"127 35 OFFCURVE",
"168 24 CURVE",
"293 145 LINE",
"226 154 OFFCURVE",
"164 218 OFFCURVE",
"164 264 CURVE",
"142 205 LINE",
"196 229 OFFCURVE",
"278 244 OFFCURVE",
"337 249 CURVE",
"380 391 LINE"
);
},
{
closed = 1;
nodes = (
"89 23 LINE SMOOTH",
"308 48 OFFCURVE",
"436 164 OFFCURVE",
"457 359 CURVE",
"420 375 OFFCURVE",
"376 384 OFFCURVE",
"339 384 CURVE SMOOTH",
"288 384 OFFCURVE",
"240 370 OFFCURVE",
"218 349 CURVE SMOOTH",
"197 328 OFFCURVE",
"169 265 OFFCURVE",
"169 237 CURVE SMOOTH",
"169 153 OFFCURVE",
"331 52 OFFCURVE",
"521 72 CURVE",
"578 224 LINE",
"396 205 OFFCURVE",
"322 246 OFFCURVE",
"322 309 CURVE",
"313 212 LINE",
"276 197 OFFCURVE",
"212 183 OFFCURVE",
"118 172 CURVE SMOOTH",
"76 167 LINE",
"20 15 LINE"
);
}
);
};
layerId = "FABFC9D4-E17A-4CB6-8F8E-4923CD579275";
name = Regular;
paths = (
{
closed = 1;
nodes = (
"197 135 OFFCURVE",
"8 -79 OFFCURVE",
"8 -208 CURVE SMOOTH",
"8 -307 OFFCURVE",
"95 -355 OFFCURVE",
"207 -355 CURVE SMOOTH",
"340 -355 OFFCURVE",
"447 -288 OFFCURVE",
"482 -224 CURVE",
"467 -225 OFFCURVE",
"450 -225 OFFCURVE",
"434 -225 CURVE SMOOTH",
"269 -225 OFFCURVE",
"93 -176 OFFCURVE",
"93 -91 CURVE SMOOTH",
"93 -37 OFFCURVE",
"294 79 OFFCURVE",
"364 147 CURVE SMOOTH",
"414 196 OFFCURVE",
"447 274 OFFCURVE",
"457 359 CURVE",
"420 376 OFFCURVE",
"376 384 OFFCURVE",
"339 384 CURVE SMOOTH",
"288 384 OFFCURVE",
"240 370 OFFCURVE",
"218 349 CURVE SMOOTH",
"197 328 OFFCURVE",
"169 265 OFFCURVE",
"169 237 CURVE SMOOTH",
"169 153 OFFCURVE",
"331 52 OFFCURVE",
"521 72 CURVE",
"578 224 LINE",
"376 205 OFFCURVE",
"322 246 OFFCURVE",
"322 309 CURVE",
"283 160 LINE",
"322 221 LINE"
);
}
);
width = 600;
}
);
unicode = FECA;
},
{
glyphname = "ain-ar.medi";
lastChange = "2015-10-22 16:41:45 +0000";
layers = (
{
anchors = (
{
name = entry;
position = "{534, 139}";
},
{
name = exit;
position = "{42, 83}";
}
);
background = {
paths = (
{
closed = 1;
nodes = (
"3 13 LINE",
"59 165 LINE",
"134 173 LINE SMOOTH",
"269 188 OFFCURVE",
"353 216 OFFCURVE",
"406 247 CURVE",
"430 197 LINE",
"386 235 OFFCURVE",
"333 250 OFFCURVE",
"273 250 CURVE SMOOTH",
"253 250 OFFCURVE",
"240 250 OFFCURVE",
"220 250 CURVE",
"273 336 LINE",
"273 284 OFFCURVE",
"461 207 OFFCURVE",
"628 225 CURVE",
"571 73 LINE",
"370 51 OFFCURVE",
"179 161 OFFCURVE",
"179 245 CURVE SMOOTH",
"179 261 OFFCURVE",
"218 351 OFFCURVE",
"237 370 CURVE SMOOTH",
"267 392 OFFCURVE",
"312 404 OFFCURVE",
"357 404 CURVE SMOOTH",
"404 404 OFFCURVE",
"443 387 OFFCURVE",
"482 359 CURVE",
"460 173 OFFCURVE",
"350 53 OFFCURVE",
"105 24 CURVE SMOOTH"
);
}
);
};
guideLines = (
{
angle = 6;
position = "{521, 72}";
},
{
angle = 69.6476;
position = "{540, 122}";
}
);
layerId = "FABFC9D4-E17A-4CB6-8F8E-4923CD579275";
name = Regular;
paths = (
{
closed = 1;
nodes = (
"89 23 LINE SMOOTH",
"308 48 OFFCURVE",
"436 164 OFFCURVE",
"457 359 CURVE",
"420 375 OFFCURVE",
"376 384 OFFCURVE",
"339 384 CURVE SMOOTH",
"288 384 OFFCURVE",
"240 370 OFFCURVE",
"218 349 CURVE SMOOTH",
"197 328 OFFCURVE",
"169 265 OFFCURVE",
"169 237 CURVE SMOOTH",
"169 153 OFFCURVE",
"331 52 OFFCURVE",
"521 72 CURVE",
"578 224 LINE",
"396 205 OFFCURVE",
"322 246 OFFCURVE",
"322 309 CURVE",
"313 212 LINE",
"276 197 OFFCURVE",
"212 183 OFFCURVE",
"118 172 CURVE SMOOTH",
"76 167 LINE",
"20 15 LINE"
);
}
);
width = 598;
}
);
unicode = FECC;
},
{
glyphname = "ain-ar.init";
lastChange = "2015-10-22 16:03:39 +0000";
layers = (
{
anchors = (
{
name = exit;
position = "{84, 79}";
}
);
background = {
paths = (
{
closed = 1;
nodes = (
"499 203 LINE",
"443 51 LINE",
"10 6 LINE",
"66 158 LINE"
);
},
{
closed = 1;
nodes = (
"357 192 OFFCURVE",
"365 223 OFFCURVE",
"368 247 CURVE",
"361 249 OFFCURVE",
"342 252 OFFCURVE",
"332 252 CURVE SMOOTH",
"263 252 OFFCURVE",
"200 217 OFFCURVE",
"170 141 CURVE SMOOTH",
"146 80 OFFCURVE",
"128 -17 OFFCURVE",
"115 -135 CURVE",
"86 -130 LINE",
"96 -28 OFFCURVE",
"103 42 OFFCURVE",
"121 112 CURVE SMOOTH",
"175 322 OFFCURVE",
"286 411 OFFCURVE",
"398 411 CURVE SMOOTH",
"430 411 OFFCURVE",
"460 402 OFFCURVE",
"474 391 CURVE",
"473 320 OFFCURVE",
"443 220 OFFCURVE",
"412 149 CURVE",
"344 148 LINE"
);
}
);
};
layerId = "FABFC9D4-E17A-4CB6-8F8E-4923CD579275";
name = Regular;
paths = (
{
closed = 1;
nodes = (
"499 203 LINE",
"443 51 LINE",
"48 9 LINE",
"104 161 LINE"
);
},
{
closed = 1;
nodes = (
"427 295 LINE",
"368 290 OFFCURVE",
"286 275 OFFCURVE",
"232 251 CURVE",
"254 310 LINE",
"254 264 OFFCURVE",
"316 200 OFFCURVE",
"383 191 CURVE",
"258 75 LINE",
"217 86 OFFCURVE",
"182 140 OFFCURVE",
"182 181 CURVE SMOOTH",
"182 242 OFFCURVE",
"251 350 OFFCURVE",
"290 382 CURVE SMOOTH",
"324 407 OFFCURVE",
"421 433 OFFCURVE",
"470 437 CURVE"
);
}
);
width = 600;
}
);
unicode = FECB;
},
{
glyphname = "feh-ar";
lastChange = "2015-10-22 17:03:28 +0000";
layers = (
{
background = {
paths = (
{
closed = 1;
nodes = (
"628 73 LINE",
"610 73 LINE SMOOTH",
"567 73 OFFCURVE",
"539 86 OFFCURVE",
"539 110 CURVE SMOOTH",
"539 153 OFFCURVE",
"621 257 OFFCURVE",
"670 257 CURVE SMOOTH",
"706 257 OFFCURVE",
"732 187 OFFCURVE",
"718 104 CURVE SMOOTH",
"697 -21 OFFCURVE",
"587 -133 OFFCURVE",
"498 -138 CURVE SMOOTH",
"428 -142 OFFCURVE",
"323 -80 OFFCURVE",
"283 -17 CURVE",
"399 -5 OFFCURVE",
"560 21 OFFCURVE",
"632 45 CURVE"
);
}
);
};
components = (
{
name = "dotabove-ar";
transform = "{1, 0, 0, 1, 356, 10}";
}
);
layerId = "FABFC9D4-E17A-4CB6-8F8E-4923CD579275";
name = Regular;
paths = (
{
closed = 1;
nodes = (
"723 223 OFFCURVE",
"699 275 OFFCURVE",
"665 275 CURVE SMOOTH",
"611 275 OFFCURVE",
"521 160 OFFCURVE",
"521 113 CURVE SMOOTH",
"521 86 OFFCURVE",
"552 72 OFFCURVE",
"599 72 CURVE SMOOTH",
"628 72 LINE",
"636 21 LINE",
"654 39 LINE",
"584 7 OFFCURVE",
"462 -19 OFFCURVE",
"345 -19 CURVE SMOOTH",
"197 -19 OFFCURVE",
"126 18 OFFCURVE",
"100 104 CURVE",
"100 55 LINE",
"126 85 OFFCURVE",
"173 127 OFFCURVE",
"213 156 CURVE",
"194 242 LINE",
"106 155 OFFCURVE",
"57 83 OFFCURVE",
"25 -7 CURVE",
"25 -109 OFFCURVE",
"122 -171 OFFCURVE",
"282 -171 CURVE SMOOTH",
"426 -171 OFFCURVE",
"601 -117 OFFCURVE",
"658 -60 CURVE",
"689 -16 OFFCURVE",
"723 83 OFFCURVE",
"723 149 CURVE SMOOTH"
);
}
);
width = 753;
}
);
unicode = 0641;
},
{
glyphname = "feh-ar.init";
lastChange = "2015-10-22 17:06:22 +0000";
layers = (
{
anchors = (
{
name = exit;
position = "{211, 30}";
}
);
background = {
paths = (
{
closed = 1;
nodes = (
"406 10 OFFCURVE",
"335 -23 OFFCURVE",
"214 -36 CURVE SMOOTH",
"175 -40 LINE",
"233 112 LINE",
"295 118 LINE SMOOTH",
"339 123 OFFCURVE",
"403 134 OFFCURVE",
"426 141 CURVE",
"408 119 LINE",
"400 172 LINE",
"371 172 LINE SMOOTH",
"324 172 OFFCURVE",
"293 186 OFFCURVE",
"293 213 CURVE SMOOTH",
"293 260 OFFCURVE",
"383 375 OFFCURVE",
"437 375 CURVE SMOOTH",
"471 375 OFFCURVE",
"495 323 OFFCURVE",
"495 249 CURVE SMOOTH",
"495 188 OFFCURVE",
"464 87 OFFCURVE",
"430 40 CURVE SMOOTH"
);
}
);
};
components = (
{
name = "dotabove-ar";
transform = "{1, 0, 0, 1, 128, 110}";
},
{
name = "dotlessfeh-ar.init";
}
);
guideLines = (
{
angle = 69.6476;
position = "{378, 70}";
},
{
angle = 6;
position = "{175, -40}";
}
);
layerId = "FABFC9D4-E17A-4CB6-8F8E-4923CD579275";
name = Regular;
width = 600;
}
);
unicode = FED3;
},
{
glyphname = "dotlessfeh-ar.init";
lastChange = "2015-10-22 17:06:04 +0000";
layers = (
{
layerId = "FABFC9D4-E17A-4CB6-8F8E-4923CD579275";
name = Regular;
paths = (
{
closed = 1;
nodes = (
"406 10 OFFCURVE",
"335 -23 OFFCURVE",
"214 -36 CURVE SMOOTH",
"175 -40 LINE",
"233 112 LINE",
"295 118 LINE SMOOTH",
"339 123 OFFCURVE",
"403 134 OFFCURVE",
"426 141 CURVE",
"408 119 LINE",
"400 172 LINE",
"371 172 LINE SMOOTH",
"324 172 OFFCURVE",
"293 186 OFFCURVE",
"293 213 CURVE SMOOTH",
"293 260 OFFCURVE",
"383 375 OFFCURVE",
"437 375 CURVE SMOOTH",
"471 375 OFFCURVE",
"495 323 OFFCURVE",
"495 249 CURVE SMOOTH",
"495 188 OFFCURVE",
"464 87 OFFCURVE",
"430 40 CURVE SMOOTH"
);
}
);
width = 600;
}
);
},
{
glyphname = "qaf-ar";
lastChange = "2015-09-21 15:58:26 +0000";
layers = (
{
components = (
{
name = _part.secondarybowl;
transform = "{1, 0, 0, 1, 60, -16}";
piece = {
bowlWidth = 95.9806;
};
}
);
layerId = "FABFC9D4-E17A-4CB6-8F8E-4923CD579275";
name = Regular;
paths = (
{
closed = 1;
nodes = (
"451 21 LINE",
"443 72 LINE",
"414 72 LINE SMOOTH",
"367 72 OFFCURVE",
"336 86 OFFCURVE",
"336 113 CURVE SMOOTH",
"336 160 OFFCURVE",
"426 275 OFFCURVE",
"480 275 CURVE SMOOTH",
"514 275 OFFCURVE",
"538 223 OFFCURVE",
"538 149 CURVE"
);
}
);
width = 568;
}
);
rightMetricsKey = "@k\U00DCW\U02C7177";
unicode = 0642;
},
{
glyphname = "qaf-ar.001";
lastChange = "2015-10-20 13:03:48 +0000";
layers = (
{
background = {
paths = (
{
closed = 1;
nodes = (
"610 112 OFFCURVE",
"578 18 OFFCURVE",
"556 -22 CURVE SMOOTH",
"517 -87 OFFCURVE",
"403 -167 OFFCURVE",
"284 -167 CURVE SMOOTH",
"187 -167 OFFCURVE",
"100 -113 OFFCURVE",
"94 -22 CURVE",
"118 72 OFFCURVE",
"162 156 OFFCURVE",
"229 248 CURVE",
"261 171 LINE",
"224 137 OFFCURVE",
"190 97 OFFCURVE",
"154 41 CURVE",
"161 72 LINE",
"200 19 OFFCURVE",
"261 -9 OFFCURVE",
"336 -9 CURVE SMOOTH",
"420 -9 OFFCURVE",
"518 27 OFFCURVE",
"566 75 CURVE",
"568 26 LINE",
"480 130 LINE",
"610 151 LINE"
);
}
);
};
layerId = "FABFC9D4-E17A-4CB6-8F8E-4923CD579275";
name = Regular;
paths = (
{
closed = 0;
nodes = (
"522 21 LINE"
);
},
{
closed = 1;
nodes = (
"259 219 LINE",
"220 161 OFFCURVE",
"186 100 OFFCURVE",
"160 38 CURVE",
"163 72 LINE",
"202 19 OFFCURVE",
"262 -9 OFFCURVE",
"337 -9 CURVE SMOOTH",
"421 -9 OFFCURVE",
"517 27 OFFCURVE",
"565 75 CURVE",
"567 26 LINE",
"522 21 LINE",
"514 72 LINE",
"485 72 LINE SMOOTH",
"438 72 OFFCURVE",
"407 86 OFFCURVE",
"407 113 CURVE SMOOTH",
"407 160 OFFCURVE",
"498 275 OFFCURVE",
"550 275 CURVE SMOOTH",
"591 275 OFFCURVE",
"609 205 OFFCURVE",
"609 161 CURVE SMOOTH",
"609 101 OFFCURVE",
"576 11 OFFCURVE",
"558 -22 CURVE SMOOTH",
"523 -85 OFFCURVE",
"403 -167 OFFCURVE",
"285 -167 CURVE SMOOTH",
"188 -167 OFFCURVE",
"102 -113 OFFCURVE",
"96 -22 CURVE",
"110 23 OFFCURVE",
"133 79 OFFCURVE",
"168 139 CURVE",
"169 107 LINE",
"100 109 OFFCURVE",
"71 99 OFFCURVE",
"37 64 CURVE",
"22 71 LINE",
"63 174 OFFCURVE",
"143 229 OFFCURVE",
"234 236 CURVE"
);
}
);
width = 639;
}
);
rightMetricsKey = "@k\U221A\U00FAW\U00C0\U00E1177";
},
{
glyphname = "kaf-ar";
lastChange = "2015-10-22 19:38:03 +0000";
layers = (
{
background = {
paths = (
{
closed = 1;
nodes = (
"196 392 OFFCURVE",
"40 162 OFFCURVE",
"40 75 CURVE",
"56 21 OFFCURVE",
"163 -20 OFFCURVE",
"264 -20 CURVE SMOOTH",
"372 -20 OFFCURVE",
"475 26 OFFCURVE",
"525 75 CURVE",
"563 122 OFFCURVE",
"583 242 OFFCURVE",
"583 277 CURVE SMOOTH",
"583 407 OFFCURVE",
"568 574 OFFCURVE",
"554 614 CURVE",
"517 585 OFFCURVE",
"470 528 OFFCURVE",
"438 472 CURVE",
"464 394 OFFCURVE",
"502 246 OFFCURVE",
"507 162 CURVE",
"522 186 LINE",
"483 157 OFFCURVE",
"411 132 OFFCURVE",
"311 132 CURVE SMOOTH",
"209 132 OFFCURVE",
"133 160 OFFCURVE",
"127 199 CURVE",
"128 176 LINE",
"162 225 OFFCURVE",
"252 306 OFFCURVE",
"325 351 CURVE",
"365 268 LINE",
"374 298 LINE",
"362 292 OFFCURVE",
"340 290 OFFCURVE",
"319 290 CURVE SMOOTH",
"309 290 OFFCURVE",
"300 290 OFFCURVE",
"292 290 CURVE",
"252 192 LINE",
"270 185 OFFCURVE",
"287 185 OFFCURVE",
"305 185 CURVE SMOOTH",
"342 185 OFFCURVE",
"384 193 OFFCURVE",
"411 206 CURVE",
"427 240 OFFCURVE",
"435 274 OFFCURVE",
"437 308 CURVE",
"412 364 OFFCURVE",
"386 419 OFFCURVE",
"361 475 CURVE"
);
}
);
};
layerId = "FABFC9D4-E17A-4CB6-8F8E-4923CD579275";
name = Regular;
paths = (
{
closed = 1;
nodes = (
"181 392 OFFCURVE",
"20 162 OFFCURVE",
"20 75 CURVE",
"36 21 OFFCURVE",
"148 -20 OFFCURVE",
"254 -20 CURVE SMOOTH",
"362 -20 OFFCURVE",
"473 26 OFFCURVE",
"525 75 CURVE",
"563 122 OFFCURVE",
"583 242 OFFCURVE",
"583 277 CURVE SMOOTH",
"583 407 OFFCURVE",
"568 574 OFFCURVE",
"554 614 CURVE",
"517 585 OFFCURVE",
"470 528 OFFCURVE",
"438 472 CURVE",
"464 394 OFFCURVE",
"502 246 OFFCURVE",
"507 162 CURVE",
"522 186 LINE",
"481 157 OFFCURVE",
"401 132 OFFCURVE",
"301 132 CURVE SMOOTH",
"193 132 OFFCURVE",
"113 160 OFFCURVE",
"107 199 CURVE",
"108 176 LINE",
"142 225 OFFCURVE",
"238 306 OFFCURVE",
"315 351 CURVE",
"355 268 LINE",
"364 298 LINE",
"352 292 OFFCURVE",
"330 290 OFFCURVE",
"309 290 CURVE SMOOTH",
"299 290 OFFCURVE",
"290 290 OFFCURVE",
"282 290 CURVE",
"242 192 LINE",
"260 185 OFFCURVE",
"277 185 OFFCURVE",
"295 185 CURVE SMOOTH",
"332 185 OFFCURVE",
"374 193 OFFCURVE",
"401 206 CURVE",
"417 240 OFFCURVE",
"425 274 OFFCURVE",
"427 308 CURVE",
"402 364 OFFCURVE",
"376 419 OFFCURVE",
"351 475 CURVE"
);
}
);
width = 603;
}
);
unicode = 0643;
},
{
glyphname = "kaf-ar.init";
lastChange = "2015-09-15 11:36:37 +0000";
layers = (
{
anchors = (
{
name = exit;
position = "{45, 48}";
}
);
background = {
paths = (
{
closed = 1;
nodes = (
"191 532 OFFCURVE",
"242 579 OFFCURVE",
"281 599 CURVE",
"298 536 OFFCURVE",
"273 175 OFFCURVE",
"263 156 CURVE",
"198 5 LINE",
"176 13 LINE",
"177 140 OFFCURVE",
"168 346 OFFCURVE",
"155 488 CURVE"
);
},
{
closed = 1;
nodes = (
"68 127 LINE",
"123 133 OFFCURVE",
"180 140 OFFCURVE",
"229 152 CURVE",
"204 129 LINE",
"214 161 OFFCURVE",
"225 210 OFFCURVE",
"231 239 CURVE",
"263 238 LINE",
"253 141 OFFCURVE",
"219 60 OFFCURVE",
"198 5 CURVE",
"145 -8 OFFCURVE",
"81 -18 OFFCURVE",
"10 -25 CURVE"
);
},
{
closed = 1;
nodes = (
"305 654 OFFCURVE",
"332 697 OFFCURVE",
"367 738 CURVE",
"483 752 OFFCURVE",
"593 781 OFFCURVE",
"699 827 CURVE",
"674 784 OFFCURVE",
"642 742 OFFCURVE",
"601 699 CURVE",
"500 653 OFFCURVE",
"395 623 OFFCURVE",
"284 609 CURVE"
);
}
);
};
layerId = "FABFC9D4-E17A-4CB6-8F8E-4923CD579275";
name = Regular;
paths = (
{
closed = 1;
nodes = (
"191 532 OFFCURVE",
"242 579 OFFCURVE",
"281 599 CURVE",
"298 536 OFFCURVE",
"273 175 OFFCURVE",
"263 156 CURVE",
"198 5 LINE",
"176 13 LINE",
"177 140 OFFCURVE",
"168 346 OFFCURVE",
"155 488 CURVE"
);
},
{
closed = 1;
nodes = (
"68 127 LINE",
"123 133 OFFCURVE",
"180 140 OFFCURVE",
"229 152 CURVE",
"204 129 LINE",
"214 161 OFFCURVE",
"225 210 OFFCURVE",
"231 239 CURVE",
"263 238 LINE",
"253 141 OFFCURVE",
"219 60 OFFCURVE",
"198 5 CURVE",
"145 -8 OFFCURVE",
"81 -18 OFFCURVE",
"10 -25 CURVE"
);
},
{
closed = 1;
nodes = (
"299 633 LINE",
"322 668 OFFCURVE",
"349 702 OFFCURVE",
"382 737 CURVE",
"483 793 OFFCURVE",
"588 830 OFFCURVE",
"699 847 CURVE",
"678 802 OFFCURVE",
"651 759 OFFCURVE",
"616 718 CURVE",
"509 699 OFFCURVE",
"408 670 OFFCURVE",
"310 620 CURVE"
);
}
);
width = 319;
}
);
unicode = FEDB;
},
{
glyphname = "lam-ar";
lastChange = "2015-08-17 16:16:59 +0000";
layers = (
{
background = {
paths = (
{
closed = 1;
nodes = (
"-167 269 OFFCURVE",
"-193 443 OFFCURVE",
"-227 542 CURVE",
"-92 643 LINE",
"-75 540 OFFCURVE",
"-65 363 OFFCURVE",
"-65 271 CURVE SMOOTH",
"-65 240 OFFCURVE",
"-133 101 OFFCURVE",
"-172 68 CURVE SMOOTH",
"-248 3 OFFCURVE",
"-330 -23 OFFCURVE",
"-388 -23 CURVE SMOOTH",
"-485 -23 OFFCURVE",
"-552 20 OFFCURVE",
"-571 82 CURVE",
"-560 153 OFFCURVE",
"-506 266 OFFCURVE",
"-449 368 CURVE",
"-424 357 LINE",
"-452 304 OFFCURVE",
"-474 251 OFFCURVE",
"-487 194 CURVE",
"-464 153 OFFCURVE",
"-406 140 OFFCURVE",
"-360 140 CURVE SMOOTH",
"-294 140 OFFCURVE",
"-228 154 OFFCURVE",
"-162 179 CURVE"
);
},
{
closed = 1;
nodes = (
"1110 273 OFFCURVE",
"1077 401 OFFCURVE",
"1053 472 CURVE",
"1085 528 OFFCURVE",
"1132 585 OFFCURVE",
"1169 614 CURVE",
"1183 574 OFFCURVE",
"1198 407 OFFCURVE",
"1198 277 CURVE SMOOTH",
"1198 242 OFFCURVE",
"1178 116 OFFCURVE",
"1145 66 CURVE",
"1094 15 OFFCURVE",
"1003 -24 OFFCURVE",
"909 -24 CURVE SMOOTH",
"830 -24 OFFCURVE",
"758 10 OFFCURVE",
"744 63 CURVE",
"752 137 OFFCURVE",
"817 282 OFFCURVE",
"906 357 CURVE",
"925 337 LINE",
"882 297 OFFCURVE",
"842 233 OFFCURVE",
"828 177 CURVE",
"847 150 OFFCURVE",
"893 137 OFFCURVE",
"943 137 CURVE SMOOTH",
"1026 137 OFFCURVE",
"1082 160 OFFCURVE",
"1120 187 CURVE"
);
},
{
closed = 1;
nodes = (
"417 246 OFFCURVE",
"379 394 OFFCURVE",
"353 472 CURVE",
"385 528 OFFCURVE",
"432 585 OFFCURVE",
"469 614 CURVE",
"483 574 OFFCURVE",
"498 407 OFFCURVE",
"498 277 CURVE SMOOTH",
"498 242 OFFCURVE",
"478 122 OFFCURVE",
"440 75 CURVE",
"394 26 OFFCURVE",
"303 -15 OFFCURVE",
"209 -15 CURVE SMOOTH",
"130 -15 OFFCURVE",
"58 15 OFFCURVE",
"44 63 CURVE",
"52 137 OFFCURVE",
"117 282 OFFCURVE",
"206 357 CURVE",
"229 280 LINE",
"177 248 OFFCURVE",
"130 193 OFFCURVE",
"123 151 CURVE",
"119 199 LINE",
"125 157 OFFCURVE",
"181 137 OFFCURVE",
"243 137 CURVE SMOOTH",
"339 137 OFFCURVE",
"399 168 OFFCURVE",
"437 200 CURVE",
"422 162 LINE"
);
}
);
};
layerId = "FABFC9D4-E17A-4CB6-8F8E-4923CD579275";
name = Regular;
paths = (
{
closed = 1;
nodes = (
"417 246 OFFCURVE",
"379 394 OFFCURVE",
"353 472 CURVE",
"385 528 OFFCURVE",
"432 585 OFFCURVE",
"469 614 CURVE",
"483 574 OFFCURVE",
"498 407 OFFCURVE",
"498 277 CURVE SMOOTH",
"498 242 OFFCURVE",
"478 122 OFFCURVE",
"440 75 CURVE",
"394 26 OFFCURVE",
"302 -15 OFFCURVE",
"211 -15 CURVE SMOOTH",
"121 -15 OFFCURVE",
"41 21 OFFCURVE",
"25 75 CURVE",
"38 147 OFFCURVE",
"112 289 OFFCURVE",
"196 357 CURVE",
"211 271 LINE",
"174 242 OFFCURVE",
"125 193 OFFCURVE",
"103 164 CURVE",
"102 199 LINE",
"108 160 OFFCURVE",
"162 137 OFFCURVE",
"247 137 CURVE SMOOTH",
"335 137 OFFCURVE",
"400 157 OFFCURVE",
"437 186 CURVE",
"422 162 LINE"
);
}
);
width = 533;
}
);
unicode = 0644;
},
{
glyphname = "lam-ar.fina";
lastChange = "2015-08-17 16:17:25 +0000";
layers = (
{
anchors = (
{
name = entry;
position = "{579, 82}";
}
);
layerId = "FABFC9D4-E17A-4CB6-8F8E-4923CD579275";
name = Regular;
paths = (
{
closed = 1;
nodes = (
"626 165 LINE",
"570 13 LINE",
"436 -1 LINE",
"492 151 LINE"
);
},
{
closed = 1;
nodes = (
"417 162 OFFCURVE",
"379 310 OFFCURVE",
"353 388 CURVE",
"385 444 OFFCURVE",
"432 501 OFFCURVE",
"469 530 CURVE",
"483 490 OFFCURVE",
"498 323 OFFCURVE",
"498 193 CURVE SMOOTH",
"498 158 OFFCURVE",
"478 38 OFFCURVE",
"440 -9 CURVE",
"394 -58 OFFCURVE",
"302 -99 OFFCURVE",
"211 -99 CURVE SMOOTH",
"121 -99 OFFCURVE",
"41 -63 OFFCURVE",
"25 -9 CURVE",
"38 63 OFFCURVE",
"112 205 OFFCURVE",
"196 273 CURVE",
"211 187 LINE",
"174 158 OFFCURVE",
"125 109 OFFCURVE",
"103 80 CURVE",
"102 115 LINE",
"108 76 OFFCURVE",
"162 53 OFFCURVE",
"247 53 CURVE SMOOTH",
"335 53 OFFCURVE",
"400 73 OFFCURVE",
"437 102 CURVE",
"422 78 LINE"
);
}
);
width = 661;
}
);
unicode = FEDE;
},
{
glyphname = "lam-ar.medi";
lastChange = "2015-08-17 16:47:56 +0000";
layers = (
{
anchors = (
{
name = entry;
position = "{442, 80}";
},
{
name = exit;
position = "{121, 111}";
}
);
guideLines = (
{
angle = 69.6476;
position = "{246, 100}";
},
{
angle = 6;
position = "{144, 190}";
},
{
position = "{358, 589}";
}
);
layerId = "FABFC9D4-E17A-4CB6-8F8E-4923CD579275";
name = Regular;
paths = (
{
closed = 1;
nodes = (
"287 -1 LINE",
"421 13 LINE",
"481 165 LINE",
"343 151 LINE"
);
},
{
closed = 1;
nodes = (
"144 44 OFFCURVE",
"187 53 OFFCURVE",
"233 65 CURVE",
"256 109 OFFCURVE",
"274 168 OFFCURVE",
"286 214 CURVE",
"250 205 OFFCURVE",
"194 195 OFFCURVE",
"144 190 CURVE",
"86 38 LINE"
);
},
{
closed = 1;
nodes = (
"274 90 OFFCURVE",
"273 40 OFFCURVE",
"270 -1 CURVE",
"289 -1 LINE",
"345 142 LINE",
"350 170 OFFCURVE",
"356 253 OFFCURVE",
"356 344 CURVE SMOOTH",
"356 425 OFFCURVE",
"341 557 OFFCURVE",
"327 589 CURVE",
"290 560 OFFCURVE",
"243 503 OFFCURVE",
"211 447 CURVE",
"243 369 OFFCURVE",
"274 241 OFFCURVE",
"274 125 CURVE SMOOTH"
);
}
);
width = 600;
}
);
unicode = FEE0;
},
{
glyphname = "lam-ar.init";
lastChange = "2015-08-17 17:08:46 +0000";
layers = (
{
anchors = (
{
name = exit;
position = "{28, 56}";
}
);
background = {
paths = (
{
closed = 1;
nodes = (
"915 246 OFFCURVE",
"877 394 OFFCURVE",
"851 472 CURVE",
"883 528 OFFCURVE",
"930 585 OFFCURVE",
"967 614 CURVE",
"981 574 OFFCURVE",
"996 407 OFFCURVE",
"996 277 CURVE SMOOTH",
"996 242 OFFCURVE",
"976 122 OFFCURVE",
"938 75 CURVE",
"892 26 OFFCURVE",
"800 -15 OFFCURVE",
"709 -15 CURVE SMOOTH",
"624 -15 OFFCURVE",
"549 21 OFFCURVE",
"533 75 CURVE",
"546 147 OFFCURVE",
"620 289 OFFCURVE",
"704 357 CURVE",
"727 280 LINE",
"688 247 OFFCURVE",
"640 197 OFFCURVE",
"618 164 CURVE",
"617 199 LINE",
"623 160 OFFCURVE",
"670 137 OFFCURVE",
"745 137 CURVE SMOOTH",
"833 137 OFFCURVE",
"898 168 OFFCURVE",
"935 200 CURVE",
"920 162 LINE"
);
},
{
closed = 1;
nodes = (
"215 237 OFFCURVE",
"176 388 OFFCURVE",
"150 468 CURVE",
"182 524 OFFCURVE",
"229 581 OFFCURVE",
"266 610 CURVE",
"280 570 OFFCURVE",
"296 387 OFFCURVE",
"296 293 CURVE SMOOTH",
"296 170 OFFCURVE",
"269 97 OFFCURVE",
"239 61 CURVE",
"191 21 OFFCURVE",
"116 0 OFFCURVE",
"10 -11 CURVE",
"67 141 LINE",
"145 149 OFFCURVE",
"207 159 OFFCURVE",
"235 169 CURVE",
"220 151 LINE"
);
}
);
};
guideLines = (
{
angle = 69.6476;
position = "{556, 18}";
},
{
angle = 6;
position = "{59, 140}";
},
{
angle = 6;
position = "{37, -8}";
}
);
layerId = "FABFC9D4-E17A-4CB6-8F8E-4923CD579275";
name = Regular;
paths = (
{
closed = 1;
nodes = (
"95 -2 OFFCURVE",
"190 30 OFFCURVE",
"238 80 CURVE",
"276 127 OFFCURVE",
"296 247 OFFCURVE",
"296 282 CURVE SMOOTH",
"296 412 OFFCURVE",
"281 579 OFFCURVE",
"267 619 CURVE",
"230 590 OFFCURVE",
"183 533 OFFCURVE",
"151 477 CURVE",
"177 399 OFFCURVE",
"215 251 OFFCURVE",
"220 167 CURVE",
"236 199 LINE",
"196 169 OFFCURVE",
"111 145 OFFCURVE",
"36 138 CURVE",
"-1 -12 LINE"
);
}
);
width = 331;
}
);
unicode = FEDF;
},
{
glyphname = "noon-ar";
lastChange = "2015-08-17 16:17:44 +0000";
layers = (
{
background = {
paths = (
{
closed = 1;
nodes = (
"1099 25 OFFCURVE",
"1127 111 OFFCURVE",
"1127 144 CURVE SMOOTH",
"1127 192 OFFCURVE",
"1093 260 OFFCURVE",
"1066 282 CURVE",
"951 174 LINE",
"986 139 OFFCURVE",
"1036 91 OFFCURVE",
"1053 47 CURVE",
"1057 65 LINE",
"998 9 OFFCURVE",
"911 -3 OFFCURVE",
"864 -3 CURVE SMOOTH",
"782 -3 OFFCURVE",
"743 28 OFFCURVE",
"720 81 CURVE",
"731 128 OFFCURVE",
"753 179 OFFCURVE",
"782 226 CURVE",
"763 244 LINE",
"709 165 OFFCURVE",
"667 84 OFFCURVE",
"647 -6 CURVE",
"648 -105 OFFCURVE",
"711 -161 OFFCURVE",
"823 -161 CURVE SMOOTH",
"924 -161 OFFCURVE",
"1036 -98 OFFCURVE",
"1071 -34 CURVE"
);
},
{
closed = 1;
nodes = (
"486 25 OFFCURVE",
"513 111 OFFCURVE",
"513 144 CURVE SMOOTH",
"513 192 OFFCURVE",
"481 260 OFFCURVE",
"455 291 CURVE",
"419 269 OFFCURVE",
"370 210 OFFCURVE",
"347 174 CURVE",
"380 139 OFFCURVE",
"427 91 OFFCURVE",
"444 47 CURVE",
"447 65 LINE",
"392 9 OFFCURVE",
"310 -3 OFFCURVE",
"266 -3 CURVE SMOOTH",
"188 -3 OFFCURVE",
"154 26 OFFCURVE",
"127 74 CURVE",
"143 126 OFFCURVE",
"161 179 OFFCURVE",
"188 226 CURVE",
"170 244 LINE",
"119 165 OFFCURVE",
"80 84 OFFCURVE",
"55 -16 CURVE",
"62 -105 OFFCURVE",
"121 -161 OFFCURVE",
"226 -161 CURVE SMOOTH",
"322 -161 OFFCURVE",
"427 -98 OFFCURVE",
"460 -34 CURVE"
);
}
);
};
components = (
{
name = "dotabove-ar";
transform = "{1, 0, 0, 1, 21, -50}";
}
);
layerId = "FABFC9D4-E17A-4CB6-8F8E-4923CD579275";
name = Regular;
paths = (
{
closed = 1;
nodes = (
"493 36 OFFCURVE",
"513 114 OFFCURVE",
"513 147 CURVE SMOOTH",
"513 184 OFFCURVE",
"483 249 OFFCURVE",
"451 281 CURVE",
"345 167 LINE",
"389 131 OFFCURVE",
"424 87 OFFCURVE",
"440 47 CURVE",
"447 65 LINE",
"403 21 OFFCURVE",
"330 -13 OFFCURVE",
"261 -13 CURVE SMOOTH",
"178 -13 OFFCURVE",
"131 16 OFFCURVE",
"92 68 CURVE",
"85 37 LINE",
"121 93 OFFCURVE",
"155 133 OFFCURVE",
"192 167 CURVE",
"160 244 LINE",
"93 152 OFFCURVE",
"49 68 OFFCURVE",
"25 -26 CURVE",
"31 -114 OFFCURVE",
"108 -171 OFFCURVE",
"208 -171 CURVE SMOOTH",
"319 -171 OFFCURVE",
"429 -95 OFFCURVE",
"460 -29 CURVE SMOOTH"
);
}
);
width = 543;
}
);
unicode = 0646;
},
{
glyphname = "noon-ar.fina";
lastChange = "2015-09-21 14:20:30 +0000";
layers = (
{
anchors = (
{
name = entry;
position = "{598, 130}";
}
);
background = {
components = (
{
name = "noon-ar";
transform = "{1, 0, 0, 1, 700, 0}";
}
);
paths = (
{
closed = 1;
nodes = (
"1153 49 LINE",
"1281 62 LINE",
"1337 214 LINE",
"1209 201 LINE"
);
},
{
closed = 1;
nodes = (
"-1547 49 LINE",
"-1419 62 LINE",
"-1363 214 LINE",
"-1500 200 LINE"
);
},
{
closed = 1;
nodes = (
"-1500 200 LINE",
"-1573 37 LINE",
"-1666 37 OFFCURVE",
"-1687 222 OFFCURVE",
"-1783 222 CURVE SMOOTH",
"-1857 222 OFFCURVE",
"-1946 120 OFFCURVE",
"-1990 -75 CURVE",
"-1965 -83 LINE",
"-1911 41 OFFCURVE",
"-1881 70 OFFCURVE",
"-1820 70 CURVE SMOOTH",
"-1718 70 OFFCURVE",
"-1715 -106 OFFCURVE",
"-1617 -106 CURVE SMOOTH",
"-1604 -106 OFFCURVE",
"-1590 -101 OFFCURVE",
"-1584 -95 CURVE",
"-1469 197 LINE"
);
},
{
closed = 1;
nodes = (
"-947 49 LINE",
"-819 62 LINE",
"-763 214 LINE",
"-900 200 LINE"
);
},
{
closed = 1;
nodes = (
"-900 200 LINE",
"-978 25 LINE",
"-1031 25 OFFCURVE",
"-1022 222 OFFCURVE",
"-1108 222 CURVE SMOOTH",
"-1190 222 OFFCURVE",
"-1258 115 OFFCURVE",
"-1300 -75 CURVE",
"-1275 -83 LINE",
"-1225 32 OFFCURVE",
"-1198 70 OFFCURVE",
"-1145 70 CURVE SMOOTH",
"-1068 70 OFFCURVE",
"-1095 -116 OFFCURVE",
"-1012 -116 CURVE SMOOTH",
"-1005 -116 OFFCURVE",
"-992 -113 OFFCURVE",
"-988 -111 CURVE",
"-869 197 LINE"
);
},
{
closed = 1;
nodes = (
"-247 49 LINE",
"-119 62 LINE",
"-63 214 LINE",
"-200 200 LINE"
);
},
{
closed = 1;
nodes = (
"-200 200 LINE",
"-264 65 LINE",
"-337 65 OFFCURVE",
"-323 222 OFFCURVE",
"-408 222 CURVE SMOOTH",
"-490 222 OFFCURVE",
"-558 115 OFFCURVE",
"-600 -75 CURVE",
"-575 -83 LINE",
"-525 32 OFFCURVE",
"-498 70 OFFCURVE",
"-449 70 CURVE SMOOTH",
"-380 70 OFFCURVE",
"-401 -76 OFFCURVE",
"-298 -76 CURVE SMOOTH",
"-291 -76 OFFCURVE",
"-278 -73 OFFCURVE",
"-274 -71 CURVE",
"-169 197 LINE"
);
},
{
closed = 1;
nodes = (
"453 49 LINE",
"581 62 LINE",
"637 214 LINE",
"500 200 LINE"
);
},
{
closed = 1;
nodes = (
"500 200 LINE",
"436 65 LINE",
"363 65 OFFCURVE",
"377 222 OFFCURVE",
"292 222 CURVE SMOOTH",
"260 222 OFFCURVE",
"229 205 OFFCURVE",
"202 173 CURVE",
"120 -75 LINE",
"145 -83 LINE",
"165 -36 OFFCURVE",
"186 11 OFFCURVE",
"206 58 CURVE",
"218 66 OFFCURVE",
"232 70 OFFCURVE",
"251 70 CURVE SMOOTH",
"320 70 OFFCURVE",
"299 -76 OFFCURVE",
"402 -76 CURVE SMOOTH",
"409 -76 OFFCURVE",
"422 -73 OFFCURVE",
"426 -71 CURVE",
"531 197 LINE"
);
}
);
};
layerId = "FABFC9D4-E17A-4CB6-8F8E-4923CD579275";
name = Regular;
paths = (
{
closed = 1;
nodes = (
"453 49 LINE",
"581 62 LINE",
"637 214 LINE",
"500 200 LINE"
);
},
{
closed = 1;
nodes = (
"500 200 LINE",
"436 65 LINE",
"363 65 OFFCURVE",
"377 222 OFFCURVE",
"292 222 CURVE SMOOTH",
"260 222 OFFCURVE",
"229 205 OFFCURVE",
"202 173 CURVE",
"174 93 OFFCURVE",
"150 11 OFFCURVE",
"130 -75 CURVE",
"155 -83 LINE",
"170 -36 OFFCURVE",
"186 11 OFFCURVE",
"206 58 CURVE",
"218 66 OFFCURVE",
"232 70 OFFCURVE",
"251 70 CURVE SMOOTH",
"320 70 OFFCURVE",
"293 -76 OFFCURVE",
"396 -76 CURVE SMOOTH",
"403 -76 OFFCURVE",
"416 -73 OFFCURVE",
"420 -71 CURVE",
"531 197 LINE"
);
}
);
width = 647;
}
);
unicode = FEE6;
},
{
glyphname = "heh-ar";
lastChange = "2015-08-17 16:44:13 +0000";
layers = (
{
background = {
paths = (
{
closed = 1;
nodes = (
"-489 296 OFFCURVE",
"-471 254 OFFCURVE",
"-471 202 CURVE SMOOTH",
"-471 108 OFFCURVE",
"-512 9 OFFCURVE",
"-620 9 CURVE SMOOTH",
"-665 9 OFFCURVE",
"-716 30 OFFCURVE",
"-736 83 CURVE",
"-722 132 OFFCURVE",
"-709 164 OFFCURVE",
"-685 207 CURVE",
"-658 207 LINE",
"-671 165 LINE",
"-666 149 OFFCURVE",
"-636 122 OFFCURVE",
"-594 122 CURVE SMOOTH",
"-545 122 OFFCURVE",
"-517 153 OFFCURVE",
"-517 169 CURVE SMOOTH",
"-517 185 OFFCURVE",
"-523 188 OFFCURVE",
"-554 188 CURVE SMOOTH",
"-633 188 OFFCURVE",
"-689 190 OFFCURVE",
"-727 189 CURVE",
"-693 319 LINE",
"-522 315 LINE"
);
},
{
closed = 1;
nodes = (
"-196 317 OFFCURVE",
"-170 295 OFFCURVE",
"-170 198 CURVE SMOOTH",
"-170 111 OFFCURVE",
"-211 9 OFFCURVE",
"-317 9 CURVE SMOOTH",
"-365 9 OFFCURVE",
"-415 30 OFFCURVE",
"-435 83 CURVE",
"-421 132 OFFCURVE",
"-408 164 OFFCURVE",
"-384 207 CURVE",
"-357 207 LINE",
"-370 165 LINE",
"-365 149 OFFCURVE",
"-336 122 OFFCURVE",
"-292 122 CURVE SMOOTH",
"-248 122 OFFCURVE",
"-216 149 OFFCURVE",
"-216 173 CURVE SMOOTH",
"-216 185 OFFCURVE",
"-225 188 OFFCURVE",
"-235 188 CURVE SMOOTH",
"-367 189 OFFCURVE",
"-408 189 OFFCURVE",
"-446 189 CURVE",
"-435 232 OFFCURVE",
"-392 317 OFFCURVE",
"-379 317 CURVE",
"-260 317 LINE SMOOTH"
);
},
{
closed = 1;
nodes = (
"69 193 OFFCURVE",
"119 273 OFFCURVE",
"199 373 CURVE",
"313 361 OFFCURVE",
"378 288 OFFCURVE",
"378 205 CURVE SMOOTH",
"378 103 OFFCURVE",
"278 -11 OFFCURVE",
"191 -11 CURVE SMOOTH",
"129 -11 OFFCURVE",
"69 48 OFFCURVE",
"69 124 CURVE SMOOTH"
);
},
{
closed = 1;
nodes = (
"117 151 OFFCURVE",
"191 141 OFFCURVE",
"255 141 CURVE SMOOTH",
"309 141 OFFCURVE",
"325 148 OFFCURVE",
"325 157 CURVE SMOOTH",
"325 178 OFFCURVE",
"227 221 OFFCURVE",
"105 225 CURVE",
"162 260 LINE",
"132 221 OFFCURVE",
"117 186 OFFCURVE",
"117 172 CURVE SMOOTH"
);
}
);
};
guideLines = (
{
position = "{47, 345}";
}
);
layerId = "FABFC9D4-E17A-4CB6-8F8E-4923CD579275";
name = Regular;
paths = (
{
closed = 1;
nodes = (
"132 221 OFFCURVE",
"117 186 OFFCURVE",
"117 172 CURVE SMOOTH",
"117 151 OFFCURVE",
"191 141 OFFCURVE",
"255 141 CURVE SMOOTH",
"309 141 OFFCURVE",
"325 148 OFFCURVE",
"325 157 CURVE SMOOTH",
"325 181 OFFCURVE",
"206 231 OFFCURVE",
"35 236 CURVE",
"66 295 OFFCURVE",
"98 345 OFFCURVE",
"129 384 CURVE",
"310 371 OFFCURVE",
"378 293 OFFCURVE",
"378 225 CURVE SMOOTH",
"378 103 OFFCURVE",
"288 -11 OFFCURVE",
"191 -11 CURVE SMOOTH",
"129 -11 OFFCURVE",
"69 48 OFFCURVE",
"69 124 CURVE SMOOTH",
"69 170 OFFCURVE",
"89 222 OFFCURVE",
"134 288 CURVE",
"162 260 LINE"
);
}
);
width = 413;
}
);
unicode = 0647;
},
{
glyphname = "heh-ar.fina";
lastChange = "2015-08-29 12:43:00 +0000";
layers = (
{
anchors = (
{
name = entry;
position = "{370, 85}";
}
);
background = {
paths = (
{
closed = 1;
nodes = (
"-583 491 OFFCURVE",
"-713 357 OFFCURVE",
"-713 234 CURVE SMOOTH",
"-713 134 OFFCURVE",
"-585 102 OFFCURVE",
"-412 103 CURVE SMOOTH",
"-347 104 LINE",
"-344 242 LINE",
"-403 242 LINE SMOOTH",
"-512 242 OFFCURVE",
"-613 275 OFFCURVE",
"-613 352 CURVE SMOOTH",
"-613 383 OFFCURVE",
"-590 416 OFFCURVE",
"-551 416 CURVE SMOOTH",
"-461 416 OFFCURVE",
"-387 318 OFFCURVE",
"-395 209 CURVE SMOOTH",
"-409 1 LINE",
"-249 18 LINE",
"-193 170 LINE",
"-277 161 LINE",
"-271 234 LINE SMOOTH",
"-257 417 OFFCURVE",
"-353 491 OFFCURVE",
"-478 491 CURVE SMOOTH"
);
},
{
closed = 1;
nodes = (
"30 502 OFFCURVE",
"-93 327 OFFCURVE",
"-93 244 CURVE SMOOTH",
"-93 157 OFFCURVE",
"-4 108 OFFCURVE",
"115 107 CURVE SMOOTH",
"148 107 OFFCURVE",
"199 112 OFFCURVE",
"253 124 CURVE",
"256 262 LINE",
"219 252 OFFCURVE",
"190 248 OFFCURVE",
"170 248 CURVE SMOOTH",
"77 248 OFFCURVE",
"-3 290 OFFCURVE",
"-3 352 CURVE SMOOTH",
"-3 359 OFFCURVE",
"27 372 OFFCURVE",
"66 372 CURVE SMOOTH",
"157 372 OFFCURVE",
"209 338 OFFCURVE",
"209 238 CURVE SMOOTH",
"209 189 OFFCURVE",
"199 70 OFFCURVE",
"194 1 CURVE",
"351 18 LINE",
"407 170 LINE",
"323 161 LINE",
"325 185 OFFCURVE",
"330 264 OFFCURVE",
"330 278 CURVE SMOOTH",
"330 428 OFFCURVE",
"260 502 OFFCURVE",
"138 502 CURVE SMOOTH"
);
}
);
};
guideLines = (
{
angle = 69.6476;
position = "{368, 100}";
},
{
angle = 6;
position = "{37, 30}";
}
);
layerId = "FABFC9D4-E17A-4CB6-8F8E-4923CD579275";
name = Regular;
paths = (
{
closed = 1;
nodes = (
"50 495 OFFCURVE",
"-88 327 OFFCURVE",
"-93 244 CURVE",
"-93 157 OFFCURVE",
"-21 107 OFFCURVE",
"72 107 CURVE SMOOTH",
"118 107 OFFCURVE",
"183 113 OFFCURVE",
"253 125 CURVE",
"256 263 LINE",
"202 253 OFFCURVE",
"159 248 OFFCURVE",
"127 248 CURVE SMOOTH",
"63 248 OFFCURVE",
"7 290 OFFCURVE",
"7 352 CURVE SMOOTH",
"7 359 OFFCURVE",
"33 372 OFFCURVE",
"66 372 CURVE SMOOTH",
"157 372 OFFCURVE",
"209 338 OFFCURVE",
"209 238 CURVE SMOOTH",
"209 189 OFFCURVE",
"199 70 OFFCURVE",
"194 1 CURVE",
"351 18 LINE",
"407 170 LINE",
"323 161 LINE",
"325 185 OFFCURVE",
"330 264 OFFCURVE",
"330 278 CURVE SMOOTH",
"330 428 OFFCURVE",
"260 502 OFFCURVE",
"138 502 CURVE"
);
}
);
width = 600;
}
);
unicode = FEEA;
},
{
glyphname = "heh-ar.init";
lastChange = "2015-08-29 12:46:57 +0000";
layers = (
{
anchors = (
{
name = exit;
position = "{121, -38}";
}
);
background = {
paths = (
{
closed = 1;
nodes = (
"-174 460 OFFCURVE",
"-107 375 OFFCURVE",
"-107 230 CURVE SMOOTH",
"-107 153 OFFCURVE",
"-126 98 OFFCURVE",
"-174 19 CURVE",
"-218 -16 OFFCURVE",
"-294 -49 OFFCURVE",
"-366 -49 CURVE SMOOTH",
"-449 -49 OFFCURVE",
"-487 -4 OFFCURVE",
"-487 72 CURVE SMOOTH",
"-487 172 OFFCURVE",
"-422 286 OFFCURVE",
"-363 293 CURVE",
"-306 288 OFFCURVE",
"-265 238 OFFCURVE",
"-265 185 CURVE SMOOTH",
"-265 65 OFFCURVE",
"-479 -93 OFFCURVE",
"-637 -110 CURVE",
"-580 42 LINE",
"-557 45 OFFCURVE",
"-494 51 OFFCURVE",
"-446 57 CURVE",
"-392 55 LINE",
"-372 84 OFFCURVE",
"-366 119 OFFCURVE",
"-366 140 CURVE SMOOTH",
"-366 177 OFFCURVE",
"-385 205 OFFCURVE",
"-420 218 CURVE",
"-432 196 OFFCURVE",
"-437 172 OFFCURVE",
"-437 158 CURVE SMOOTH",
"-437 121 OFFCURVE",
"-401 103 OFFCURVE",
"-327 103 CURVE SMOOTH",
"-269 103 OFFCURVE",
"-190 114 OFFCURVE",
"-167 118 CURVE",
"-197 97 LINE",
"-192 250 OFFCURVE",
"-273 407 OFFCURVE",
"-411 405 CURVE",
"-340 445 LINE",
"-457 300 LINE",
"-521 306 LINE",
"-458 398 OFFCURVE",
"-381 460 OFFCURVE",
"-286 460 CURVE SMOOTH"
);
},
{
closed = 1;
nodes = (
"516 460 OFFCURVE",
"601 375 OFFCURVE",
"601 210 CURVE SMOOTH",
"601 159 OFFCURVE",
"584 114 OFFCURVE",
"536 35 CURVE",
"492 -16 OFFCURVE",
"410 -65 OFFCURVE",
"334 -65 CURVE SMOOTH",
"251 -65 OFFCURVE",
"213 -14 OFFCURVE",
"213 72 CURVE SMOOTH",
"213 177 OFFCURVE",
"282 297 OFFCURVE",
"344 305 CURVE",
"397 299 OFFCURVE",
"435 244 OFFCURVE",
"435 185 CURVE SMOOTH",
"435 105 OFFCURVE",
"381 12 OFFCURVE",
"289 -54 CURVE",
"235 -82 OFFCURVE",
"165 -100 OFFCURVE",
"85 -108 CURVE",
"142 44 LINE",
"165 47 OFFCURVE",
"206 51 OFFCURVE",
"254 57 CURVE",
"308 55 LINE",
"328 84 OFFCURVE",
"334 119 OFFCURVE",
"334 140 CURVE SMOOTH",
"334 177 OFFCURVE",
"315 205 OFFCURVE",
"280 218 CURVE",
"268 196 OFFCURVE",
"263 172 OFFCURVE",
"263 158 CURVE SMOOTH",
"263 110 OFFCURVE",
"299 87 OFFCURVE",
"373 87 CURVE SMOOTH",
"435 87 OFFCURVE",
"513 110 OFFCURVE",
"543 134 CURVE",
"513 113 LINE",
"517 239 OFFCURVE",
"441 367 OFFCURVE",
"340 367 CURVE SMOOTH",
"299 371 OFFCURVE",
"265 351 OFFCURVE",
"206 293 CURVE",
"189 306 LINE",
"252 398 OFFCURVE",
"369 460 OFFCURVE",
"424 460 CURVE SMOOTH"
);
}
);
};
guideLines = (
{
angle = 69.6476;
position = "{119, 40}";
},
{
angle = 6;
position = "{87, -108}";
}
);
layerId = "FABFC9D4-E17A-4CB6-8F8E-4923CD579275";
name = Regular;
paths = (
{
closed = 1;
nodes = (
"537 470 OFFCURVE",
"611 379 OFFCURVE",
"611 218 CURVE SMOOTH",
"611 167 OFFCURVE",
"577 73 OFFCURVE",
"551 35 CURVE",
"502 -16 OFFCURVE",
"415 -65 OFFCURVE",
"332 -65 CURVE SMOOTH",
"250 -65 OFFCURVE",
"202 -12 OFFCURVE",
"197 69 CURVE",
"215 188 OFFCURVE",
"285 295 OFFCURVE",
"363 326 CURVE",
"407 316 OFFCURVE",
"439 257 OFFCURVE",
"439 191 CURVE SMOOTH",
"439 110 OFFCURVE",
"391 14 OFFCURVE",
"299 -54 CURVE",
"242 -82 OFFCURVE",
"169 -100 OFFCURVE",
"85 -108 CURVE",
"142 44 LINE",
"165 47 OFFCURVE",
"206 51 OFFCURVE",
"254 57 CURVE",
"308 55 LINE",
"328 84 OFFCURVE",
"334 118 OFFCURVE",
"334 144 CURVE SMOOTH",
"334 176 OFFCURVE",
"325 205 OFFCURVE",
"309 218 CURVE",
"295 209 OFFCURVE",
"268 173 OFFCURVE",
"263 156 CURVE",
"270 117 OFFCURVE",
"311 87 OFFCURVE",
"376 87 CURVE SMOOTH",
"436 87 OFFCURVE",
"524 110 OFFCURVE",
"553 134 CURVE",
"523 113 LINE",
"527 241 OFFCURVE",
"440 377 OFFCURVE",
"337 377 CURVE SMOOTH",
"300 377 OFFCURVE",
"265 361 OFFCURVE",
"206 303 CURVE",
"189 316 LINE",
"255 410 OFFCURVE",
"365 470 OFFCURVE",
"441 470 CURVE SMOOTH"
);
}
);
width = 600;
}
);
unicode = FEEB;
},
{
glyphname = "waw-ar";
lastChange = "2015-09-21 15:37:09 +0000";
layers = (
{
background = {
paths = (
{
closed = 1;
nodes = (
"906 251 OFFCURVE",
"856 163 OFFCURVE",
"856 126 CURVE SMOOTH",
"856 84 OFFCURVE",
"918 68 OFFCURVE",
"962 68 CURVE",
"960 42 LINE SMOOTH",
"942 21 OFFCURVE",
"807 -5 OFFCURVE",
"739 -5 CURVE",
"652 -152 LINE",
"755 -152 OFFCURVE",
"856 -125 OFFCURVE",
"917 -84 CURVE SMOOTH",
"976 -36 OFFCURVE",
"1020 62 OFFCURVE",
"1020 130 CURVE SMOOTH",
"1020 196 OFFCURVE",
"997 251 OFFCURVE",
"953 251 CURVE SMOOTH"
);
},
{
closed = 1;
nodes = (
"1256 231 OFFCURVE",
"1206 161 OFFCURVE",
"1206 116 CURVE SMOOTH",
"1206 95 OFFCURVE",
"1228 81 OFFCURVE",
"1252 81 CURVE SMOOTH",
"1265 81 OFFCURVE",
"1275 83 OFFCURVE",
"1284 88 CURVE",
"1308 36 LINE",
"1289 21 OFFCURVE",
"1175 -5 OFFCURVE",
"1109 -5 CURVE",
"1022 -152 LINE",
"1125 -152 OFFCURVE",
"1221 -125 OFFCURVE",
"1278 -82 CURVE SMOOTH",
"1342 -34 OFFCURVE",
"1375 48 OFFCURVE",
"1375 119 CURVE SMOOTH",
"1375 170 OFFCURVE",
"1353 230 OFFCURVE",
"1318 251 CURVE"
);
},
{
closed = 1;
nodes = (
"1938 223 OFFCURVE",
"1918 223 CURVE SMOOTH",
"1898 223 OFFCURVE",
"1881 216 OFFCURVE",
"1858 185 CURVE SMOOTH",
"1808 120 LINE SMOOTH",
"1797 105 OFFCURVE",
"1784 81 OFFCURVE",
"1784 65 CURVE SMOOTH",
"1784 48 OFFCURVE",
"1790 29 OFFCURVE",
"1818 29 CURVE SMOOTH",
"1824 29 OFFCURVE",
"1828 30 OFFCURVE",
"1837 32 CURVE",
"1837 -15 LINE",
"1797 -22 OFFCURVE",
"1683 -34 OFFCURVE",
"1439 -34 CURVE",
"1440 -50 OFFCURVE",
"1515 -168 OFFCURVE",
"1655 -168 CURVE SMOOTH",
"1709 -168 OFFCURVE",
"1753 -150 OFFCURVE",
"1803 -110 CURVE SMOOTH",
"1843 -77 OFFCURVE",
"1894 -13 OFFCURVE",
"1927 43 CURVE SMOOTH",
"1948 79 OFFCURVE",
"1952 162 OFFCURVE",
"1952 178 CURVE SMOOTH",
"1952 207 OFFCURVE"
);
},
{
closed = 1;
nodes = (
"-717 220 OFFCURVE",
"-759 220 CURVE SMOOTH",
"-793 220 OFFCURVE",
"-863 131 OFFCURVE",
"-863 77 CURVE SMOOTH",
"-863 58 OFFCURVE",
"-849 45 OFFCURVE",
"-816 45 CURVE SMOOTH",
"-802 45 OFFCURVE",
"-795 47 OFFCURVE",
"-788 50 CURVE",
"-759 -8 LINE",
"-790 -15 OFFCURVE",
"-929 -34 OFFCURVE",
"-1181 -34 CURVE",
"-1180 -50 OFFCURVE",
"-1105 -168 OFFCURVE",
"-965 -168 CURVE SMOOTH",
"-911 -168 OFFCURVE",
"-822 -161 OFFCURVE",
"-772 -121 CURVE SMOOTH",
"-731 -88 OFFCURVE",
"-681 11 OFFCURVE",
"-681 43 CURVE SMOOTH",
"-681 88 OFFCURVE"
);
},
{
closed = 1;
nodes = (
"-1450 228 OFFCURVE",
"-1494 103 OFFCURVE",
"-1494 54 CURVE SMOOTH",
"-1494 35 OFFCURVE",
"-1485 24 OFFCURVE",
"-1469 24 CURVE SMOOTH",
"-1461 24 OFFCURVE",
"-1433 28 OFFCURVE",
"-1403 35 CURVE",
"-1398 -14 LINE",
"-1746 -147 LINE",
"-1697 -194 OFFCURVE",
"-1624 -228 OFFCURVE",
"-1552 -228 CURVE SMOOTH",
"-1466 -228 OFFCURVE",
"-1317 -52 OFFCURVE",
"-1317 77 CURVE SMOOTH",
"-1317 177 OFFCURVE",
"-1345 228 OFFCURVE",
"-1379 228 CURVE SMOOTH"
);
},
{
closed = 1;
nodes = (
"-246 76 LINE",
"-254 74 OFFCURVE",
"-266 73 OFFCURVE",
"-274 73 CURVE SMOOTH",
"-299 73 OFFCURVE",
"-324 84 OFFCURVE",
"-324 113 CURVE SMOOTH",
"-324 151 OFFCURVE",
"-248 257 OFFCURVE",
"-203 257 CURVE SMOOTH",
"-167 257 OFFCURVE",
"-142 192 OFFCURVE",
"-155 104 CURVE SMOOTH",
"-172 -10 OFFCURVE",
"-290 -110 OFFCURVE",
"-375 -128 CURVE",
"-441 -128 OFFCURVE",
"-536 -97 OFFCURVE",
"-590 -47 CURVE",
"-535 -35 OFFCURVE",
"-329 14 OFFCURVE",
"-241 45 CURVE"
);
},
{
closed = 1;
nodes = (
"355 73 LINE",
"337 73 LINE SMOOTH",
"294 73 OFFCURVE",
"266 86 OFFCURVE",
"266 110 CURVE SMOOTH",
"266 153 OFFCURVE",
"348 257 OFFCURVE",
"397 257 CURVE SMOOTH",
"433 257 OFFCURVE",
"459 187 OFFCURVE",
"445 104 CURVE SMOOTH",
"424 -21 OFFCURVE",
"314 -133 OFFCURVE",
"225 -138 CURVE SMOOTH",
"155 -142 OFFCURVE",
"50 -80 OFFCURVE",
"10 -17 CURVE",
"126 -5 OFFCURVE",
"287 21 OFFCURVE",
"359 45 CURVE"
);
}
);
};
guideLines = (
{
angle = 6;
position = "{452, 86}";
}
);
layerId = "FABFC9D4-E17A-4CB6-8F8E-4923CD579275";
name = Regular;
paths = (
{
closed = 1;
nodes = (
"359 45 LINE SMOOTH",
"287 22 OFFCURVE",
"126 -5 OFFCURVE",
"10 -17 CURVE",
"50 -80 OFFCURVE",
"155 -142 OFFCURVE",
"225 -138 CURVE SMOOTH",
"339 -132 OFFCURVE",
"450 24 OFFCURVE",
"450 149 CURVE SMOOTH",
"450 223 OFFCURVE",
"426 275 OFFCURVE",
"392 275 CURVE SMOOTH",
"338 275 OFFCURVE",
"248 160 OFFCURVE",
"248 113 CURVE SMOOTH",
"248 86 OFFCURVE",
"279 72 OFFCURVE",
"326 72 CURVE SMOOTH",
"355 72 LINE",
"363 21 LINE",
"381 52 LINE"
);
}
);
width = 479;
}
);
unicode = 0648;
},
{
glyphname = "waw-ar.fina";
lastChange = "2015-09-21 16:19:01 +0000";
layers = (
{
anchors = (
{
name = entry;
position = "{500, 149}";
}
);
background = {
anchors = (
{
name = entry;
position = "{534, 229}";
}
);
components = (
{
name = "waw-ar";
}
);
paths = (
{
closed = 1;
nodes = (
"532 296 LINE SMOOTH",
"506 296 OFFCURVE",
"387 261 OFFCURVE",
"359 242 CURVE",
"380 131 LINE",
"416 146 OFFCURVE",
"485 164 OFFCURVE",
"510 164 CURVE SMOOTH",
"523 164 LINE",
"545 296 LINE"
);
}
);
};
components = (
{
name = "waw-ar";
}
);
guideLines = (
{
angle = 6;
position = "{382, 70}";
}
);
layerId = "FABFC9D4-E17A-4CB6-8F8E-4923CD579275";
name = Regular;
paths = (
{
closed = 1;
nodes = (
"373 69 LINE",
"484 81 LINE",
"543 233 LINE",
"429 221 LINE"
);
}
);
width = 553;
}
);
unicode = FEEE;
},
{
glyphname = "yeh-ar";
lastChange = "2015-08-17 16:19:24 +0000";
layers = (
{
background = {
paths = (
{
closed = 1;
nodes = (
"210 220 OFFCURVE",
"157 133 OFFCURVE",
"125 46 CURVE",
"151 -4 OFFCURVE",
"208 -43 OFFCURVE",
"303 -43 CURVE SMOOTH",
"385 -43 OFFCURVE",
"514 -21 OFFCURVE",
"583 24 CURVE",
"491 33 OFFCURVE",
"413 52 OFFCURVE",
"356 84 CURVE",
"435 244 LINE",
"508 338 OFFCURVE",
"609 405 OFFCURVE",
"706 424 CURVE",
"664 284 LINE",
"564 282 OFFCURVE",
"489 238 OFFCURVE",
"448 197 CURVE",
"488 176 OFFCURVE",
"573 154 OFFCURVE",
"688 137 CURVE",
"662 20 OFFCURVE",
"618 -55 OFFCURVE",
"586 -89 CURVE SMOOTH",
"505 -172 OFFCURVE",
"355 -211 OFFCURVE",
"252 -211 CURVE SMOOTH",
"132 -211 OFFCURVE",
"35 -157 OFFCURVE",
"25 -51 CURVE",
"72 73 OFFCURVE",
"148 196 OFFCURVE",
"255 320 CURVE",
"282 307 LINE"
);
},
{
closed = 1;
nodes = (
"1014 220 OFFCURVE",
"957 133 OFFCURVE",
"925 46 CURVE",
"956 -1 OFFCURVE",
"1014 -35 OFFCURVE",
"1108 -35 CURVE SMOOTH",
"1192 -35 OFFCURVE",
"1316 -21 OFFCURVE",
"1383 24 CURVE",
"1309 46 OFFCURVE",
"1225 61 OFFCURVE",
"1144 66 CURVE",
"1225 225 LINE",
"1293 323 OFFCURVE",
"1387 394 OFFCURVE",
"1506 424 CURVE",
"1462 209 LINE",
"1435 210 LINE",
"1441 278 LINE",
"1353 276 OFFCURVE",
"1281 229 OFFCURVE",
"1245 189 CURVE",
"1289 189 OFFCURVE",
"1381 172 OFFCURVE",
"1467 143 CURVE",
"1449 19 OFFCURVE",
"1421 -54 OFFCURVE",
"1386 -89 CURVE SMOOTH",
"1305 -172 OFFCURVE",
"1155 -211 OFFCURVE",
"1052 -211 CURVE SMOOTH",
"932 -211 OFFCURVE",
"835 -157 OFFCURVE",
"825 -51 CURVE",
"872 73 OFFCURVE",
"948 196 OFFCURVE",
"1055 320 CURVE",
"1082 307 LINE"
);
},
{
closed = 1;
nodes = (
"-559 220 OFFCURVE",
"-606 133 OFFCURVE",
"-632 46 CURVE",
"-606 -1 OFFCURVE",
"-559 -35 OFFCURVE",
"-482 -35 CURVE SMOOTH",
"-413 -35 OFFCURVE",
"-311 -21 OFFCURVE",
"-256 24 CURVE",
"-311 31 OFFCURVE",
"-390 52 OFFCURVE",
"-430 72 CURVE",
"-430 125 OFFCURVE",
"-409 181 OFFCURVE",
"-386 225 CURVE",
"-330 323 OFFCURVE",
"-252 394 OFFCURVE",
"-155 424 CURVE",
"-191 209 LINE",
"-213 210 LINE",
"-211 256 LINE",
"-282 255 OFFCURVE",
"-340 223 OFFCURVE",
"-352 209 CURVE",
"-327 195 OFFCURVE",
"-258 172 OFFCURVE",
"-179 156 CURVE",
"-179 90 OFFCURVE",
"-225 -54 OFFCURVE",
"-254 -89 CURVE SMOOTH",
"-320 -172 OFFCURVE",
"-443 -211 OFFCURVE",
"-528 -211 CURVE SMOOTH",
"-630 -211 OFFCURVE",
"-713 -161 OFFCURVE",
"-722 -64 CURVE",
"-682 64 OFFCURVE",
"-617 192 OFFCURVE",
"-525 320 CURVE",
"-503 307 LINE"
);
}
);
};
components = (
{
name = "twodotshorizontalbelow-ar";
transform = "{1, 0, 0, 1, 16, -210}";
}
);
layerId = "FABFC9D4-E17A-4CB6-8F8E-4923CD579275";
name = Regular;
paths = (
{
closed = 1;
nodes = (
"668 153 CURVE",
"648 23 OFFCURVE",
"621 -51 OFFCURVE",
"586 -89 CURVE SMOOTH",
"505 -172 OFFCURVE",
"355 -211 OFFCURVE",
"252 -211 CURVE SMOOTH",
"132 -211 OFFCURVE",
"35 -157 OFFCURVE",
"25 -51 CURVE",
"76 80 OFFCURVE",
"160 213 OFFCURVE",
"285 314 CURVE",
"306 220 LINE",
"227 164 OFFCURVE",
"162 100 OFFCURVE",
"116 31 CURVE",
"152 -21 OFFCURVE",
"214 -53 OFFCURVE",
"308 -53 CURVE SMOOTH",
"401 -53 OFFCURVE",
"542 -31 OFFCURVE",
"602 44 CURVE",
"610 21 LINE",
"535 44 OFFCURVE",
"446 58 OFFCURVE",
"366 62 CURVE",
"352 82 LINE",
"425 225 LINE",
"493 323 OFFCURVE",
"587 394 OFFCURVE",
"706 424 CURVE",
"641 278 LINE",
"541 276 OFFCURVE",
"462 215 OFFCURVE",
"432 173 CURVE",
"433 196 LINE",
"504 196 OFFCURVE",
"583 183 OFFCURVE"
);
}
);
width = 736;
}
);
unicode = 064A;
},
{
glyphname = "yeh-ar.fina";
lastChange = "2015-09-15 11:21:33 +0000";
layers = (
{
anchors = (
{
name = entry;
position = "{677, 282}";
}
);
components = (
{
name = "twodotshorizontalbelow-ar";
transform = "{1, 0, 0, 1, 16, -210}";
}
);
layerId = "FABFC9D4-E17A-4CB6-8F8E-4923CD579275";
name = Regular;
paths = (
{
closed = 1;
nodes = (
"614 166 OFFCURVE",
"485 196 OFFCURVE",
"402 194 CURVE",
"404 180 LINE",
"478 196 OFFCURVE",
"568 208 OFFCURVE",
"658 216 CURVE",
"715 368 LINE",
"609 358 OFFCURVE",
"502 334 OFFCURVE",
"418 297 CURVE",
"377 231 OFFCURVE",
"344 147 OFFCURVE",
"321 69 CURVE",
"403 62 OFFCURVE",
"529 44 OFFCURVE",
"573 33 CURVE",
"572 44 LINE",
"512 -31 OFFCURVE",
"392 -53 OFFCURVE",
"308 -53 CURVE SMOOTH",
"214 -53 OFFCURVE",
"152 -21 OFFCURVE",
"116 31 CURVE",
"162 100 OFFCURVE",
"227 164 OFFCURVE",
"306 220 CURVE",
"285 314 LINE",
"160 213 OFFCURVE",
"76 80 OFFCURVE",
"25 -51 CURVE",
"35 -157 OFFCURVE",
"132 -211 OFFCURVE",
"252 -211 CURVE SMOOTH",
"346 -211 OFFCURVE",
"482 -172 OFFCURVE",
"556 -89 CURVE SMOOTH",
"589 -52 OFFCURVE",
"615 21 OFFCURVE",
"634 148 CURVE"
);
}
);
width = 725;
}
);
unicode = FEF2;
},
{
glyphname = "dotabove-ar";
lastChange = "2015-05-31 19:42:15 +0000";
layers = (
{
anchors = (
{
name = top;
position = "{259, 261}";
}
);
layerId = "FABFC9D4-E17A-4CB6-8F8E-4923CD579275";
name = Regular;
paths = (
{
closed = 1;
nodes = (
"213 408 LINE",
"229 381 OFFCURVE",
"246 358 OFFCURVE",
"267 340 CURVE",
"333 384 LINE",
"313 410 OFFCURVE",
"305 425 OFFCURVE",
"286 457 CURVE"
);
}
);
width = 600;
}
);
unicode = FBB2;
},
{
glyphname = "dotbelow-ar";
lastChange = "2015-06-06 15:18:24 +0000";
layers = (
{
anchors = (
{
name = bottom;
position = "{273, 55}";
}
);
background = {
paths = (
{
closed = 1;
nodes = (
"187 -97 LINE",
"211 -132 OFFCURVE",
"231 -158 OFFCURVE",
"264 -181 CURVE",
"364 -120 LINE",
"338 -84 OFFCURVE",
"321 -62 OFFCURVE",
"283 -29 CURVE"
);
}
);
};
components = (
{
name = "dotabove-ar";
transform = "{1, 0, 0, 1, 0, -500}";
}
);
layerId = "FABFC9D4-E17A-4CB6-8F8E-4923CD579275";
name = Regular;
width = 600;
}
);
unicode = FBB3;
},
{
glyphname = "twodotshorizontalabove-ar";
lastChange = "2015-07-29 13:07:57 +0000";
layers = (
{
background = {
paths = (
{
closed = 1;
nodes = (
"189 -84 LINE",
"205 -120 OFFCURVE",
"228 -152 OFFCURVE",
"259 -177 CURVE",
"492 -109 LINE",
"462 -71 OFFCURVE",
"449 -52 OFFCURVE",
"419 -9 CURVE"
);
}
);
};
layerId = "FABFC9D4-E17A-4CB6-8F8E-4923CD579275";
name = Regular;
paths = (
{
closed = 1;
nodes = (
"423 557 LINE",
"403 481 LINE",
"225 442 LINE",
"242 508 LINE"
);
}
);
width = 600;
}
);
unicode = FBB4;
},
{
glyphname = "twodotshorizontalbelow-ar";
lastChange = "2015-07-29 13:09:06 +0000";
layers = (
{
layerId = "FABFC9D4-E17A-4CB6-8F8E-4923CD579275";
name = Regular;
paths = (
{
closed = 1;
nodes = (
"423 -43 LINE",
"403 -119 LINE",
"225 -158 LINE",
"242 -92 LINE"
);
}
);
width = 600;
}
);
unicode = FBB5;
},
{
glyphname = "threedotsupabove-ar";
lastChange = "2015-07-29 13:16:14 +0000";
layers = (
{
layerId = "FABFC9D4-E17A-4CB6-8F8E-4923CD579275";
name = Regular;
paths = (
{
closed = 1;
nodes = (
"239 567 LINE",
"275 572 OFFCURVE",
"324 564 OFFCURVE",
"360 544 CURVE",
"309 468 LINE",
"280 482 OFFCURVE",
"249 488 OFFCURVE",
"223 486 CURVE",
"162 427 LINE",
"140 439 LINE"
);
}
);
width = 600;
}
);
unicode = FBB6;
},
